<?xml version="1.0" encoding="utf-8"?>
<!-- Generator: Adobe Illustrator 23.0.4, SVG Export Plug-In . SVG Version: 6.00 Build 0)  -->
<svg version="1.1" id="Capa_1" xmlns="http://www.w3.org/2000/svg" xmlns:xlink="http://www.w3.org/1999/xlink" x="0px" y="0px"
	 viewBox="0 0 60.1 60.1" style="enable-background:new 0 0 60.1 60.1;" xml:space="preserve">
<g>
	<path d="M57.1,45.9H16.9c-1.7,0-3,1.3-3,3c0,1.7,1.3,3,3,3h40.2c1.7,0,3-1.3,3-3C60.1,47.2,58.8,45.9,57.1,45.9z"/>
	<path d="M57.1,27.1H16.9c-1.7,0-3,1.3-3,3c0,1.7,1.3,3,3,3h40.2c1.7,0,3-1.3,3-3C60.1,28.4,58.8,27.1,57.1,27.1z"/>
	<path d="M16.9,14.2h40.2c1.7,0,3-1.3,3-3c0-1.7-1.3-3-3-3H16.9c-1.7,0-3,1.3-3,3C13.9,12.9,15.3,14.2,16.9,14.2z"/>
	<circle cx="4" cy="11.5" r="4"/>
	<circle cx="4" cy="30.1" r="4"/>
	<circle cx="4" cy="48.7" r="4"/>
</g>
</svg>
