<?xml version="1.0" encoding="utf-8"?>
<!-- Generator: Adobe Illustrator 23.0.4, SVG Export Plug-In . SVG Version: 6.00 Build 0)  -->
<svg version="1.1" id="Capa_1" xmlns="http://www.w3.org/2000/svg" xmlns:xlink="http://www.w3.org/1999/xlink" x="0px" y="0px"
	 viewBox="0 0 36 41" style="enable-background:new 0 0 36 41;" xml:space="preserve">
<g>
	<path d="M33.5,0.1c-1.2,0-2,1.2-2,3V38c0,1.7,0.9,3,2,3s2-1.2,2-3V3C35.6,1.3,34.7,0.1,33.5,0.1z"/>
	<path d="M3.3,0.4C2.5,0,1.8-0.1,1.1,0.3s-1,1.1-1,1.7v36.7c0,0.6,0.3,1.3,0.9,1.7c0.4,0.3,0.9,0.3,1.2,0.3c0.4,0,0.8-0.2,1.1-0.3
		L30,22c0.5-0.3,0.9-1,0.9-1.6c0-0.8-0.4-1.3-0.6-1.5L3.3,0.4z M4.1,35.1V5.9l21.1,14.6L4.1,35.1z"/>
</g>
</svg>
