<?xml version="1.0" encoding="utf-8"?>
<!-- Generator: Adobe Illustrator 23.0.4, SVG Export Plug-In . SVG Version: 6.00 Build 0)  -->
<svg version="1.1" id="Capa_1" xmlns="http://www.w3.org/2000/svg" xmlns:xlink="http://www.w3.org/1999/xlink" x="0px" y="0px"
	 viewBox="0 0 491.1 491.1" style="enable-background:new 0 0 491.1 491.1;" xml:space="preserve">
<g>
	<path d="M120.2,312.9c-13.3,0-26,5.2-35.6,14.7c-9.6,9.6-14.9,22-14.9,35.3c0,13.3,5.2,25.8,14.9,35.3c9.7,9.4,22.2,14.7,35.6,14.7
		c27.3,0,49.6-22.4,49.6-50S147.5,312.9,120.2,312.9z M120.2,390.7c-15.3,0-28.2-12.7-28.2-27.8s12.9-27.8,28.2-27.8
		c15.1,0,27.3,12.4,27.3,27.8C147.5,378.3,135.3,390.7,120.2,390.7z"/>
	<path d="M487,160.5l-79.6-65.9c-2-1.7-4.4-2.6-7.1-2.6h-93.6V52c0-6.1-5-11.1-11.1-11.1h-283c-6.1,0-11.1,5-11.1,11.1v243.1
		c0,0.3,0,0.7,0,1c0,0.3,0,0.6,0,1v40.7c0,6.1,5,11.1,11.1,11.1H46c6.1,0,11.1-5,11.1-11.1c0-6.1-5-11.1-11.1-11.1H23.7V297
		c0-0.3,0-0.7,0-1c0-0.3,0-0.6,0-1v-232h260.9v263.5h-91.1c-6.1,0-11.1,5-11.1,11.1c0,6.1,5,11.1,11.1,11.1h135.7
		c6.1,0,11.1-5,11.1-11.1c0-6.1-5-11.1-11.1-11.1h-22.3V114.2h89.6l72.5,60l-0.8,152.1h-11.6c-6.1,0-11.1,5-11.1,11.1
		c0,6.1,5,11.1,11.1,11.1h22.6c6.1,0,11.1-4.9,11.1-11l0.9-168.5C491,165.8,489.5,162.6,487,160.5z"/>
	<path d="M391.5,312.9c-13.3,0-26,5.2-35.6,14.7c-9.6,9.6-14.9,22-14.9,35.3c0,13.3,5.2,25.8,14.9,35.3c9.7,9.4,22.2,14.7,35.6,14.7
		c27.3,0,49.6-22.4,49.6-50S418.9,312.9,391.5,312.9z M391.5,390.7c-15.3,0-28.2-12.7-28.2-27.8s12.9-27.8,28.2-27.8
		c15.1,0,27.3,12.4,27.3,27.8C418.9,378.3,406.6,390.7,391.5,390.7z"/>
	<path d="M404.4,146.4c-2-1.9-4.7-2.9-7.4-2.9h-57c-6.1,0-11.1,5-11.1,11.1v91.1c0,6.1,5,11.1,11.1,11.1h90.5
		c6.1,0,11.1-5,11.1-11.1v-61c0-3.1-1.3-6.1-3.7-8.2L404.4,146.4z M419.3,234.6h-68.2v-69h41.6l26.7,24V234.6z"/>
</g>
</svg>
