<?xml version="1.0" encoding="utf-8"?>
<!-- Generator: Adobe Illustrator 23.0.4, SVG Export Plug-In . SVG Version: 6.00 Build 0)  -->
<svg version="1.1" id="Capa_1" xmlns="http://www.w3.org/2000/svg" xmlns:xlink="http://www.w3.org/1999/xlink" x="0px" y="0px"
	 viewBox="0 0 51.4 51.4" style="enable-background:new 0 0 51.4 51.4;" xml:space="preserve">
<g>
	<path d="M40.2,37.7v-1v-23v-12c0-0.5-0.5-1-1-1s-1,0.5-1,1v5.1v29.9v1h-9l10,13.7l10-13.7H40.2z M33.2,39.7h12.1l-6,8.3L33.2,39.7z
		"/>
	<path d="M14.7,0.7l-10,13.7h9v1v23v12c0,0.5,0.5,1,1,1s1-0.5,1-1v-5.1V15.4v-1h9L14.7,0.7z M8.6,12.4l6-8.3l6,8.3H8.6z"/>
</g>
</svg>
