<?xml version="1.0" encoding="utf-8"?>
<!-- Generator: Adobe Illustrator 23.0.4, SVG Export Plug-In . SVG Version: 6.00 Build 0)  -->
<svg version="1.1" id="Capa_1" xmlns="http://www.w3.org/2000/svg" xmlns:xlink="http://www.w3.org/1999/xlink" x="0px" y="0px"
	 viewBox="0 0 512 512" style="enable-background:new 0 0 512 512;" xml:space="preserve">
<style type="text/css">
	.st0{fill:#D32054;}
</style>
<path class="st0" d="M0,241h61v30H0V241z"/>
<path class="st0" d="M451,241h61v30h-61V241z"/>
<path class="st0" d="M383.3,107.5l42.4-42.4l21.2,21.2l-42.4,42.4L383.3,107.5z"/>
<path class="st0" d="M107.5,128.7L65.1,86.3l21.2-21.2l42.4,42.4L107.5,128.7z"/>
<path class="st0" d="M241,0h30v61h-30V0z"/>
<path class="st0" d="M121,452c-16.6,0-30,13.4-30,30v30h330v-30c0-16.6-13.4-30-30-30H121z"/>
<path class="st0" d="M121,256v166h270V256c0-74.4-60.6-135-135-135S121,181.6,121,256z M241,211h30v90h-30V211z M241,331h30v30h-30
	V331z"/>
</svg>
