<?xml version="1.0" encoding="utf-8"?>
<!-- Generator: Adobe Illustrator 23.0.1, SVG Export Plug-In . SVG Version: 6.00 Build 0)  -->
<svg version="1.1" id="Capa_1" xmlns="http://www.w3.org/2000/svg" xmlns:xlink="http://www.w3.org/1999/xlink" x="0px" y="0px"
	 viewBox="0 0 496 496" style="enable-background:new 0 0 496 496;" xml:space="preserve">
<style type="text/css">
	.st0{fill:#FFE609;}
	.st1{fill:#676767;}
</style>
<path class="st0" d="M136,400h224V112H136V400z M152,128h192v256H152V128z"/>
<path class="st0" d="M264,368h64v-64h-64V368z M280,320h32v32h-32V320z"/>
<path class="st1" d="M168,312h80v16h-80V312z"/>
<path class="st1" d="M168,344h80v16h-80V344z"/>
<path class="st1" d="M168,144h160v16H168V144z"/>
<path class="st1" d="M256,176h72v16h-72V176z"/>
<path class="st1" d="M168,176h72v16h-72V176z"/>
<path class="st1" d="M168,208h72v16h-72V208z"/>
<path class="st1" d="M168,240h160v16H168V240z"/>
<path class="st1" d="M168,272h160v16H168V272z"/>
<path class="st1" d="M256,208h72v16h-72V208z"/>
<path class="st1" d="M496,200c0-23.4-14.5-43.5-34.9-51.8c1.9-6.5,2.9-13.2,2.9-20.2c0-39.7-32.3-72-72-72c-6.8,0-13.5,1-20,2.8
	C360.4,42.6,341.4,32,320,32c-12.2,0-23.5,3.5-33.2,9.4C268.9,15.7,239.6,0,208,0c-39.4,0-73.2,23.8-88,57.8
	c-5.2-1.2-10.6-1.8-16-1.8c-39.7,0-72,32.3-72,72c0,6.9,1,13.6,2.9,20.2C14.5,156.5,0,176.6,0,200c0,30.9,25.1,56,56,56h32v168H44.7
	l67.3,67.3l53.7-53.7l-11.3-11.3L112,468.7L83.3,440H104V240H56c-22.1,0-40-17.9-40-40s17.9-40,40-40s40,17.9,40,40h16
	c0-30.9-25.1-56-56-56c-1.9,0-3.7,0.1-5.6,0.3C48.8,139,48,133.6,48,128c0-30.9,25.1-56,56-56c3.7,0,7.3,0.5,10.9,1.2
	c-1.8,7.3-2.9,15-2.9,22.8h16c0-44.1,35.9-80,80-80c26.7,0,51.4,13.5,66.2,35.4C263,62.9,256,78.7,256,96h16c0-26.5,21.5-48,48-48
	s48,21.5,48,48h16c0-8-1.5-15.6-4.2-22.6c4-0.9,8.1-1.4,12.2-1.4c30.9,0,56,25.1,56,56c0,5.6-0.8,11-2.4,16.3
	c-1.8-0.2-3.7-0.3-5.6-0.3c-30.9,0-56,25.1-56,56h16c0-22.1,17.9-40,40-40s40,17.9,40,40s-17.9,40-40,40h-59.3l48,48H400v208h16V304
	h51.3l-48-48H440C470.9,256,496,230.9,496,200z"/>
</svg>
