<?xml version="1.0" encoding="utf-8"?>
<!-- Generator: Adobe Illustrator 23.0.1, SVG Export Plug-In . SVG Version: 6.00 Build 0)  -->
<svg version="1.1" id="Capa_1" xmlns="http://www.w3.org/2000/svg" xmlns:xlink="http://www.w3.org/1999/xlink" x="0px" y="0px"
	 viewBox="0 0 512 512" style="enable-background:new 0 0 512 512;" xml:space="preserve">
<style type="text/css">
	.st0{fill:#676767;}
	.st1{fill:#FFE609;}
</style>
<g>
	<g>
		<path class="st0" d="M142,281.6c-23.6,0-42.7,19.1-42.7,42.7s19.1,42.7,42.7,42.7s42.7-19.1,42.7-42.7S165.6,281.6,142,281.6z
			 M142,349.9c-14.2,0-25.6-11.4-25.6-25.6s11.4-25.6,25.6-25.6s25.6,11.4,25.6,25.6S156.1,349.9,142,349.9z"/>
	</g>
</g>
<g>
	<g>
		<path class="st0" d="M276.2,382.9l-41.7-59.6c-7.7-10.9-22.7-13.5-33.6-5.9c-10.7,7.5-13.4,22.2-6.2,33.1l16.6,25H72.6l16.6-25
			c7.4-11.1,4.4-26-6.7-33.4c-10.9-7.3-25.5-4.5-33.1,6.2L7.7,382.9c-8.7,12.6-5.8,29.9,6.8,38.7c4.7,3.3,10.2,5,15.9,5h60.3v76.8
			c0,4.7,3.8,8.5,8.5,8.5h85.3c4.7,0,8.5-3.8,8.5-8.5v-76.8h60.3c15.4,0,27.8-12.5,27.8-27.8C281.3,393.2,279.5,387.6,276.2,382.9z
			 M259.7,407.7c-1.8,1.3-3.9,1.9-6.2,1.9h-68.8c-4.7,0-8.5,3.8-8.5,8.5v76.8h-68.3v-76.8c0-4.7-3.8-8.5-8.5-8.5H30.5
			c-6,0-10.8-4.8-10.8-10.8c0-2.2,0.6-4.4,1.9-6.2L63.5,333c2.2-3.2,6.6-4.1,9.8-1.8c3.2,2.2,4.1,6.5,1.8,9.8l-25.5,38.3
			c-2.7,3.9-1.6,9.2,2.3,11.8c1.4,1,3.1,1.4,4.7,1.4h170.7c4.7,0,8.5-3.8,8.5-8.5c0-1.7-0.5-3.3-1.4-4.7L208.9,341
			c-2.2-3.2-1.4-7.6,1.8-9.8c3.2-2.2,7.6-1.4,9.8,1.8l41.8,59.6C265.7,397.5,264.6,404.3,259.7,407.7z"/>
	</g>
</g>
<g>
	<g>
		<path class="st1" d="M159.1,128h-25.6c-14.2,0-25.6,11.4-25.6,25.6h17.1c0-4.7,3.8-8.5,8.5-8.5h25.6c4.7,0,8.5,3.8,8.5,8.5
			c0,4.7-3.8,8.5-8.5,8.5c-14.2,0-25.6,11.4-25.6,25.6h17.1c0-4.7,3.8-8.5,8.5-8.5c14.2,0,25.6-11.4,25.6-25.6
			C184.7,139.4,173.2,128,159.1,128z"/>
	</g>
</g>
<g>
	<g>
		<rect x="133.5" y="196.3" class="st1" width="17.1" height="17.1"/>
	</g>
</g>
<g>
	<g>
		<path class="st0" d="M142,93.9c-51.7,0-93.9,34.5-93.9,76.8c0,34.6,27.8,64.4,68.2,73.8l18.9,25.2c2.9,3.7,8.2,4.6,11.9,1.7
			c0.6-0.5,1.2-1.1,1.7-1.7l18.9-25.2c40.3-9.3,68.2-39.3,68.2-73.8C235.9,128.3,193.7,93.9,142,93.9z M161.1,228.5
			c-2,0.4-3.8,1.6-5.1,3.2l-14,18.7l-14-18.7c-1.3-1.7-3.1-2.8-5.1-3.2c-34-6.8-57.7-30.6-57.7-57.8c0-33,34.5-59.7,76.8-59.7
			s76.8,26.8,76.8,59.7C218.8,197.9,195,221.7,161.1,228.5z"/>
	</g>
</g>
<g>
	<g>
		<path class="st0" d="M389.5,170.7c-23.6,0-42.7,19.1-42.7,42.7s19.1,42.7,42.7,42.7s42.7-19.1,42.7-42.7S413,170.7,389.5,170.7z
			 M389.5,238.9c-14.2,0-25.6-11.4-25.6-25.6c0-14.2,11.4-25.6,25.6-25.6s25.6,11.4,25.6,25.6C415.1,227.5,403.6,238.9,389.5,238.9z
			"/>
	</g>
</g>
<g>
	<g>
		<path class="st1" d="M440.7,0H338.3c-23.6,0-42.7,19.1-42.7,42.7v51.2c0,23.6,19.1,42.7,42.7,42.7h22.1l23.1,23.1
			c3.3,3.3,8.7,3.3,12.1,0l23.1-23.1h22.1c23.6,0,42.7-19.1,42.7-42.7V42.7C483.3,19.1,464.2,0,440.7,0z M466.3,93.9
			c0,14.2-11.4,25.6-25.6,25.6h-25.6c-2.2,0-4.5,0.9-6.1,2.5l-19.5,19.5L370,121.9c-1.6-1.6-3.7-2.5-6.1-2.5h-25.6
			c-14.2,0-25.6-11.4-25.6-25.6V42.7c0-14.2,11.4-25.6,25.6-25.6h102.4c14.2,0,25.6,11.4,25.6,25.6V93.9z"/>
	</g>
</g>
<g>
	<g>
		<path class="st0" d="M487.6,230.7c-14-2.3-27.2,7-29.5,21c-0.2,1.4-0.3,2.9-0.3,4.3v8.5H321.2v-41.7c0.1-12.7-8.9-23.8-21.3-26.1
			c-14-2.3-27.2,7-29.5,21c-0.2,1.4-0.3,2.9-0.3,4.3v42.7c0,28.3,22.9,51.2,51.2,51.2h17.1v41.9L318,472.6
			c-3.1,18.3,9.2,35.7,27.5,38.8c18.3,3.1,35.7-9.2,38.8-27.5l5.1-30.9l5.1,30.9c3.1,18.3,20.6,30.6,38.8,27.4
			c18.3-3.1,30.6-20.6,27.4-38.8l-20.3-114.9v-41.9h17.1c28.3,0,51.2-22.9,51.2-51.2V257C509,244.2,500.1,233.2,487.6,230.7z
			 M491.9,264.5c0,18.9-15.3,34.1-34.1,34.1h-25.6c-4.7,0-8.5,3.8-8.5,8.5v51.2c0,0.5,0,1,0.1,1.5l20.4,115.6
			c1.6,9.1-4.4,17.6-13.4,19.2c-9.1,1.6-17.6-4.4-19.2-13.4c0-0.1,0-0.1,0-0.2l-13.5-81.4c-0.7-4.7-5.2-7.8-9.8-7
			c-3.6,0.6-6.4,3.4-7,7l-13.5,81.4c-1.5,9.1-9.9,15.1-19,13.8c-9.1-1.5-15.1-9.9-13.8-19c0-0.1,0-0.2,0.1-0.3l20.4-115.6
			c0.1-0.5,0.1-1,0.1-1.5v-51.2c0-4.7-3.8-8.5-8.5-8.5h-25.6c-18.9,0-34.1-15.3-34.1-34.1v-42.7c0-4.7,3.8-8.5,8.5-8.5
			c0.5,0,1,0,1.5,0.1c4.3,1.1,7.3,4.9,7,9.3v41.8c0,9.4,7.7,17.1,17.1,17.1h136.5c9.4,0,17.1-7.7,17.1-17.1V256c0-2.6,1.1-4.9,3-6.5
			c1.9-1.7,4.5-2.3,7-1.9c4.3,1.1,7.3,4.9,7,9.3L491.9,264.5L491.9,264.5z"/>
	</g>
</g>
<g>
	<g>
		<path class="st0" d="M429.8,36.6c-3.3-3.4-8.6-3.5-12.1-0.2c-0.1,0.1-0.1,0.1-0.2,0.2l-45.1,45.1l-11-11
			c-3.4-3.3-8.7-3.2-12.1,0.2c-3.2,3.3-3.2,8.5,0,11.8l17.1,17.1c3.3,3.3,8.7,3.3,12.1,0l51.2-51.2C433,45.4,433.1,40,429.8,36.6z"
			/>
	</g>
</g>
</svg>
