<?xml version="1.0" encoding="utf-8"?>
<!-- Generator: Adobe Illustrator 23.0.1, SVG Export Plug-In . SVG Version: 6.00 Build 0)  -->
<svg version="1.1" id="Capa_1" xmlns="http://www.w3.org/2000/svg" xmlns:xlink="http://www.w3.org/1999/xlink" x="0px" y="0px"
	 viewBox="0 0 512 512" style="enable-background:new 0 0 512 512;" xml:space="preserve">
<style type="text/css">
	.st0{fill:#FFE609;}
	.st1{fill:#676767;}
</style>
<g>
	<path class="st0" d="M76.7,112.5v15.3H92v-15.3H76.7z"/>
</g>
<g>
	<path class="st0" d="M122.2,112.5v15.3h15.3v-15.3H122.2z"/>
</g>
<g>
	<rect x="167.7" y="112.5" class="st0" width="15.3" height="15.3"/>
</g>
<path class="st0" d="M245.6,112.5v15.3h184.6v-15.3H245.6z M167.7,112.5v15.3H183v-15.3H167.7z M122.2,112.5v15.3h15.3v-15.3H122.2z
	 M76.7,112.5v15.3H92v-15.3H76.7z M167.7,112.5v15.3H183v-15.3H167.7z M341.5,427.9C341.5,427.9,341.5,427.9,341.5,427.9
	C341.5,427.9,341.6,427.9,341.5,427.9L341.5,427.9z"/>
<path d="M341.5,427.9C341.5,427.9,341.5,427.9,341.5,427.9C341.5,427.9,341.6,427.9,341.5,427.9L341.5,427.9z"/>
<rect x="245.6" y="112.5" class="st0" width="184.6" height="15.3"/>
<rect x="167.7" y="112.5" class="st0" width="15.3" height="15.3"/>
<rect x="122.2" y="112.5" class="st0" width="15.3" height="15.3"/>
<rect x="76.7" y="112.5" class="st0" width="15.3" height="15.3"/>
<rect x="167.7" y="112.5" class="st0" width="15.3" height="15.3"/>
<rect x="245.6" y="112.5" class="st0" width="184.6" height="15.3"/>
<rect x="167.7" y="112.5" class="st0" width="15.3" height="15.3"/>
<rect x="122.2" y="112.5" class="st0" width="15.3" height="15.3"/>
<rect x="76.7" y="112.5" class="st0" width="15.3" height="15.3"/>
<rect x="167.7" y="112.5" class="st0" width="15.3" height="15.3"/>
<path d="M341.5,427.9C341.5,427.9,341.5,427.9,341.5,427.9C341.5,427.9,341.6,427.9,341.5,427.9L341.5,427.9z"/>
<path d="M341.5,427.9C341.5,427.9,341.5,427.9,341.5,427.9C341.5,427.9,341.6,427.9,341.5,427.9L341.5,427.9z"/>
<rect x="245.6" y="112.5" class="st0" width="184.6" height="15.3"/>
<rect x="167.7" y="112.5" class="st0" width="15.3" height="15.3"/>
<rect x="122.2" y="112.5" class="st0" width="15.3" height="15.3"/>
<rect x="76.7" y="112.5" class="st0" width="15.3" height="15.3"/>
<rect x="245.6" y="112.5" class="st0" width="184.6" height="15.3"/>
<rect x="167.7" y="112.5" class="st0" width="15.3" height="15.3"/>
<rect x="122.2" y="112.5" class="st0" width="15.3" height="15.3"/>
<rect x="76.7" y="112.5" class="st0" width="15.3" height="15.3"/>
<path d="M341.5,427.9C341.5,427.9,341.5,427.9,341.5,427.9C341.5,427.9,341.6,427.9,341.5,427.9L341.5,427.9z"/>
<path d="M341.5,427.9C341.5,427.9,341.5,427.9,341.5,427.9C341.5,427.9,341.6,427.9,341.5,427.9L341.5,427.9z"/>
<rect x="245.6" y="112.5" class="st0" width="184.6" height="15.3"/>
<rect x="167.7" y="112.5" class="st0" width="15.3" height="15.3"/>
<rect x="122.2" y="112.5" class="st0" width="15.3" height="15.3"/>
<rect x="76.7" y="112.5" class="st0" width="15.3" height="15.3"/>
<rect x="245.6" y="112.5" class="st0" width="184.6" height="15.3"/>
<rect x="167.7" y="112.5" class="st0" width="15.3" height="15.3"/>
<rect x="122.2" y="112.5" class="st0" width="15.3" height="15.3"/>
<rect x="76.7" y="112.5" class="st0" width="15.3" height="15.3"/>
<path d="M341.5,427.9C341.5,427.9,341.5,427.9,341.5,427.9C341.5,427.9,341.6,427.9,341.5,427.9L341.5,427.9z"/>
<path d="M341.5,427.9C341.5,427.9,341.5,427.9,341.5,427.9C341.5,427.9,341.6,427.9,341.5,427.9L341.5,427.9z"/>
<rect x="245.6" y="112.5" class="st0" width="184.6" height="15.3"/>
<rect x="167.7" y="112.5" class="st0" width="15.3" height="15.3"/>
<rect x="122.2" y="112.5" class="st0" width="15.3" height="15.3"/>
<rect x="76.7" y="112.5" class="st0" width="15.3" height="15.3"/>
<rect x="245.6" y="112.5" class="st0" width="184.6" height="15.3"/>
<rect x="167.7" y="112.5" class="st0" width="15.3" height="15.3"/>
<rect x="122.2" y="112.5" class="st0" width="15.3" height="15.3"/>
<rect x="76.7" y="112.5" class="st0" width="15.3" height="15.3"/>
<path d="M341.5,427.9C341.5,427.9,341.5,427.9,341.5,427.9C341.5,427.9,341.6,427.9,341.5,427.9L341.5,427.9z"/>
<path class="st1" d="M341.5,427.9L341.5,427.9C341.6,427.9,341.5,427.9,341.5,427.9C341.5,427.9,341.5,427.9,341.5,427.9z"/>
<rect x="76.7" y="112.5" class="st0" width="15.3" height="15.3"/>
<rect x="122.2" y="112.5" class="st0" width="15.3" height="15.3"/>
<rect x="167.7" y="112.5" class="st0" width="15.3" height="15.3"/>
<rect x="245.6" y="112.5" class="st0" width="184.6" height="15.3"/>
<rect x="245.6" y="112.5" class="st0" width="184.6" height="15.3"/>
<rect x="167.7" y="112.5" class="st0" width="15.3" height="15.3"/>
<rect x="122.2" y="112.5" class="st0" width="15.3" height="15.3"/>
<rect x="76.7" y="112.5" class="st0" width="15.3" height="15.3"/>
<rect x="76.7" y="112.5" class="st0" width="15.3" height="15.3"/>
<rect x="122.2" y="112.5" class="st0" width="15.3" height="15.3"/>
<rect x="167.7" y="112.5" class="st0" width="15.3" height="15.3"/>
<rect x="245.6" y="112.5" class="st0" width="184.6" height="15.3"/>
<rect x="245.6" y="112.5" class="st0" width="184.6" height="15.3"/>
<rect x="167.7" y="112.5" class="st0" width="15.3" height="15.3"/>
<rect x="122.2" y="112.5" class="st0" width="15.3" height="15.3"/>
<rect x="76.7" y="112.5" class="st0" width="15.3" height="15.3"/>
<rect x="76.7" y="112.5" class="st0" width="15.3" height="15.3"/>
<rect x="122.2" y="112.5" class="st0" width="15.3" height="15.3"/>
<rect x="167.7" y="112.5" class="st0" width="15.3" height="15.3"/>
<rect x="245.6" y="112.5" class="st0" width="184.6" height="15.3"/>
<rect x="245.6" y="112.5" class="st0" width="184.6" height="15.3"/>
<rect x="167.7" y="112.5" class="st0" width="15.3" height="15.3"/>
<rect x="122.2" y="112.5" class="st0" width="15.3" height="15.3"/>
<rect x="76.7" y="112.5" class="st0" width="15.3" height="15.3"/>
<rect x="76.7" y="112.5" class="st0" width="15.3" height="15.3"/>
<rect x="122.2" y="112.5" class="st0" width="15.3" height="15.3"/>
<rect x="167.7" y="112.5" class="st0" width="15.3" height="15.3"/>
<rect x="245.6" y="112.5" class="st0" width="184.6" height="15.3"/>
<rect x="245.6" y="112.5" class="st0" width="184.6" height="15.3"/>
<rect x="167.7" y="112.5" class="st0" width="15.3" height="15.3"/>
<rect x="122.2" y="112.5" class="st0" width="15.3" height="15.3"/>
<rect x="76.7" y="112.5" class="st0" width="15.3" height="15.3"/>
<rect x="76.7" y="112.5" class="st0" width="15.3" height="15.3"/>
<rect x="122.2" y="112.5" class="st0" width="15.3" height="15.3"/>
<rect x="167.7" y="112.5" class="st0" width="15.3" height="15.3"/>
<rect x="245.6" y="112.5" class="st0" width="184.6" height="15.3"/>
<rect x="245.6" y="112.5" class="st0" width="184.6" height="15.3"/>
<rect x="167.7" y="112.5" class="st0" width="15.3" height="15.3"/>
<rect x="122.2" y="112.5" class="st0" width="15.3" height="15.3"/>
<rect x="76.7" y="112.5" class="st0" width="15.3" height="15.3"/>
<g>
	<path class="st1" d="M29,62.8v386.4H483V62.8H29z M44.3,433.9V178.2H189l-15.4,10.9c-18.3,13-33.6,30.3-44.1,50.1
		c-10.8,20.4-16.6,43.5-16.6,66.8c0,23.3,5.8,46.5,16.7,66.9c10.5,19.8,25.9,37.2,44.3,50.1l15.5,10.9H44.3z M128.2,305.9
		c0-70.4,57.3-127.7,127.8-127.7c70.4,0,127.7,57.3,127.7,127.7S326.4,433.7,256,433.7C185.6,433.7,128.2,376.4,128.2,305.9z
		 M467.7,433.9H322.6l15.5-10.9c18.4-13,33.7-30.3,44.3-50.1c10.9-20.5,16.7-43.6,16.7-66.9c0-23.2-5.7-46.3-16.6-66.8
		c-10.5-19.8-25.7-37.1-44.1-50.1L323,178.2h144.6V433.9z M467.7,162.9H44.3V78.1h423.3V162.9z"/>
</g>
<rect x="245.6" y="112.5" class="st0" width="184.6" height="15.3"/>
<rect x="167.7" y="112.5" class="st0" width="15.3" height="15.3"/>
<rect x="122.2" y="112.5" class="st0" width="15.3" height="15.3"/>
<rect x="76.7" y="112.5" class="st0" width="15.3" height="15.3"/>
<rect x="76.7" y="112.5" class="st0" width="15.3" height="15.3"/>
<rect x="122.2" y="112.5" class="st0" width="15.3" height="15.3"/>
<rect x="167.7" y="112.5" class="st0" width="15.3" height="15.3"/>
<rect x="245.6" y="112.5" class="st0" width="184.6" height="15.3"/>
<rect x="245.6" y="112.5" class="st0" width="184.6" height="15.3"/>
<rect x="167.7" y="112.5" class="st0" width="15.3" height="15.3"/>
<rect x="122.2" y="112.5" class="st0" width="15.3" height="15.3"/>
<rect x="76.7" y="112.5" class="st0" width="15.3" height="15.3"/>
<rect x="76.7" y="112.5" class="st0" width="15.3" height="15.3"/>
<rect x="122.2" y="112.5" class="st0" width="15.3" height="15.3"/>
<rect x="167.7" y="112.5" class="st0" width="15.3" height="15.3"/>
<rect x="245.6" y="112.5" class="st0" width="184.6" height="15.3"/>
<rect x="245.6" y="112.5" class="st0" width="184.6" height="15.3"/>
<rect x="167.7" y="112.5" class="st0" width="15.3" height="15.3"/>
<rect x="122.2" y="112.5" class="st0" width="15.3" height="15.3"/>
<rect x="76.7" y="112.5" class="st0" width="15.3" height="15.3"/>
<rect x="76.7" y="112.5" class="st0" width="15.3" height="15.3"/>
<rect x="122.2" y="112.5" class="st0" width="15.3" height="15.3"/>
<rect x="167.7" y="112.5" class="st0" width="15.3" height="15.3"/>
<rect x="245.6" y="112.5" class="st0" width="184.6" height="15.3"/>
<rect x="245.6" y="112.5" class="st0" width="184.6" height="15.3"/>
<rect x="167.7" y="112.5" class="st0" width="15.3" height="15.3"/>
<rect x="122.2" y="112.5" class="st0" width="15.3" height="15.3"/>
<rect x="76.7" y="112.5" class="st0" width="15.3" height="15.3"/>
<rect x="76.7" y="112.5" class="st0" width="15.3" height="15.3"/>
<rect x="122.2" y="112.5" class="st0" width="15.3" height="15.3"/>
<rect x="167.7" y="112.5" class="st0" width="15.3" height="15.3"/>
<rect x="245.6" y="112.5" class="st0" width="184.6" height="15.3"/>
<rect x="245.6" y="112.5" class="st0" width="184.6" height="15.3"/>
<rect x="167.7" y="112.5" class="st0" width="15.3" height="15.3"/>
<rect x="122.2" y="112.5" class="st0" width="15.3" height="15.3"/>
<rect x="76.7" y="112.5" class="st0" width="15.3" height="15.3"/>
<path class="st1" d="M341.6,427.9C341.6,427.9,341.5,427.9,341.6,427.9C341.5,427.9,341.5,427.9,341.6,427.9L341.6,427.9z"/>
<rect x="76.7" y="112.5" class="st0" width="15.3" height="15.3"/>
<rect x="122.2" y="112.5" class="st0" width="15.3" height="15.3"/>
<rect x="167.7" y="112.5" class="st0" width="15.3" height="15.3"/>
<rect x="245.6" y="112.5" class="st0" width="184.6" height="15.3"/>
<rect x="245.6" y="112.5" class="st0" width="184.6" height="15.3"/>
<path d="M341.5,427.9C341.5,427.9,341.6,427.9,341.5,427.9L341.5,427.9C341.5,427.9,341.5,427.9,341.5,427.9z"/>
<rect x="167.7" y="112.5" class="st0" width="15.3" height="15.3"/>
<rect x="122.2" y="112.5" class="st0" width="15.3" height="15.3"/>
<rect x="76.7" y="112.5" class="st0" width="15.3" height="15.3"/>
<path d="M341.5,427.9C341.5,427.9,341.5,427.9,341.5,427.9C341.5,427.9,341.6,427.9,341.5,427.9L341.5,427.9z"/>
<rect x="245.6" y="112.5" class="st0" width="184.6" height="15.3"/>
<rect x="167.7" y="112.5" class="st0" width="15.3" height="15.3"/>
<rect x="122.2" y="112.5" class="st0" width="15.3" height="15.3"/>
<rect x="76.7" y="112.5" class="st0" width="15.3" height="15.3"/>
<rect x="245.6" y="112.5" class="st0" width="184.6" height="15.3"/>
<rect x="167.7" y="112.5" class="st0" width="15.3" height="15.3"/>
<rect x="122.2" y="112.5" class="st0" width="15.3" height="15.3"/>
<rect x="76.7" y="112.5" class="st0" width="15.3" height="15.3"/>
<path d="M341.5,427.9C341.5,427.9,341.5,427.9,341.5,427.9C341.5,427.9,341.6,427.9,341.5,427.9L341.5,427.9z"/>
<path d="M341.5,427.9C341.5,427.9,341.5,427.9,341.5,427.9C341.5,427.9,341.6,427.9,341.5,427.9L341.5,427.9z"/>
<rect x="245.6" y="112.5" class="st0" width="184.6" height="15.3"/>
<rect x="167.7" y="112.5" class="st0" width="15.3" height="15.3"/>
<rect x="122.2" y="112.5" class="st0" width="15.3" height="15.3"/>
<rect x="76.7" y="112.5" class="st0" width="15.3" height="15.3"/>
<rect x="245.6" y="112.5" class="st0" width="184.6" height="15.3"/>
<rect x="167.7" y="112.5" class="st0" width="15.3" height="15.3"/>
<rect x="122.2" y="112.5" class="st0" width="15.3" height="15.3"/>
<rect x="76.7" y="112.5" class="st0" width="15.3" height="15.3"/>
<path d="M341.5,427.9C341.5,427.9,341.5,427.9,341.5,427.9C341.5,427.9,341.6,427.9,341.5,427.9L341.5,427.9z"/>
<path d="M341.5,427.9C341.5,427.9,341.5,427.9,341.5,427.9C341.5,427.9,341.6,427.9,341.5,427.9L341.5,427.9z"/>
<rect x="245.6" y="112.5" class="st0" width="184.6" height="15.3"/>
<rect x="167.7" y="112.5" class="st0" width="15.3" height="15.3"/>
<rect x="122.2" y="112.5" class="st0" width="15.3" height="15.3"/>
<rect x="76.7" y="112.5" class="st0" width="15.3" height="15.3"/>
<rect x="245.6" y="112.5" class="st0" width="184.6" height="15.3"/>
<rect x="167.7" y="112.5" class="st0" width="15.3" height="15.3"/>
<rect x="122.2" y="112.5" class="st0" width="15.3" height="15.3"/>
<rect x="76.7" y="112.5" class="st0" width="15.3" height="15.3"/>
<path d="M341.5,427.9C341.5,427.9,341.5,427.9,341.5,427.9C341.5,427.9,341.6,427.9,341.5,427.9L341.5,427.9z"/>
<rect x="167.7" y="112.5" class="st0" width="15.3" height="15.3"/>
<rect x="245.6" y="112.5" class="st0" width="184.6" height="15.3"/>
<rect x="167.7" y="112.5" class="st0" width="15.3" height="15.3"/>
<rect x="122.2" y="112.5" class="st0" width="15.3" height="15.3"/>
<rect x="76.7" y="112.5" class="st0" width="15.3" height="15.3"/>
<rect x="167.7" y="112.5" class="st0" width="15.3" height="15.3"/>
<path d="M341.5,427.9C341.5,427.9,341.5,427.9,341.5,427.9C341.5,427.9,341.6,427.9,341.5,427.9L341.5,427.9z"/>
<rect x="245.6" y="112.5" class="st0" width="184.6" height="15.3"/>
<rect x="167.7" y="112.5" class="st0" width="15.3" height="15.3"/>
<rect x="122.2" y="112.5" class="st0" width="15.3" height="15.3"/>
<rect x="76.7" y="112.5" class="st0" width="15.3" height="15.3"/>
<rect x="167.7" y="112.5" class="st0" width="15.3" height="15.3"/>
<path d="M341.5,427.9C341.5,427.9,341.5,427.9,341.5,427.9C341.5,427.9,341.6,427.9,341.5,427.9L341.5,427.9z"/>
<g>
	<path class="st0" d="M245.6,112.5v15.3h184.6v-15.3H245.6z"/>
</g>
<g>
	<path class="st0" d="M316.5,262.9c-7.3-7.3-16.9-11.3-27.2-11.3c-10.3,0-19.9,4-27.2,11.3l-6,6l-4.2-4.2l-1.8-1.8
		c-7.3-7.2-16.9-11.2-27.2-11.2c-10.3,0-20,4-27.2,11.2c-15,15-15,39.4,0,54.4l60.3,60.7l60.7-60.7c7.2-7.2,11.2-16.9,11.2-27.2
		C327.7,279.8,323.7,270.1,316.5,262.9z M305.7,306.5l-49.8,49.8l-4.2-4.3l-45.2-45.5c-4.4-4.4-6.8-10.2-6.8-16.4
		c0-6.2,2.4-12,6.8-16.4c4.4-4.4,10.2-6.8,16.4-6.8s12,2.4,16.4,6.8l16.9,16.9l16.9-16.9c4.4-4.4,10.2-6.8,16.4-6.8s12,2.4,16.4,6.8
		C314.7,282.7,314.7,297.4,305.7,306.5z"/>
</g>
</svg>
