<?xml version="1.0" encoding="utf-8"?>
<!-- Generator: Adobe Illustrator 23.0.1, SVG Export Plug-In . SVG Version: 6.00 Build 0)  -->
<svg version="1.1" xmlns="http://www.w3.org/2000/svg" xmlns:xlink="http://www.w3.org/1999/xlink" x="0px" y="0px"
	 viewBox="0 0 8192 472.9" style="enable-background:new 0 0 8192 472.9;" xml:space="preserve">
<style type="text/css">
	.st0{fill:#E8D4D4;}
</style>
<g id="Capa_1">
	<title>icon-chart</title>
	<g>
		<g>
			<g>
				<path class="st0" d="M2202.4,250.2l-66.3-66.3c-2.4-2.4-6.2-2.4-8.5,0l-35.6,35.6l-28,16.8h-22.4c-0.7,0-1.3,0.1-2,0.4
					l-30.8-11.6l-35.2-35.2c-2.4-2.4-6.2-2.4-8.5,0l-60.3,60.3c-2.4,2.4-2.4,6.2,0,8.5l35.9,35.9l14.7,19.6
					c-6.9,7.1-6.8,18.4,0.2,25.4l9.6,9.6l18.1,18.1l18.1,18.1l9.6,9.6c3.4,3.4,8,5.3,12.8,5.3c4.8,0,9.4-1.9,12.8-5.3l5.3-5.3
					l17.3,17.3c3.4,3.4,8,5.3,12.8,5.3s9.4-1.9,12.8-5.3l1-1c3.3-3.3,5-7.5,5.2-11.8c4.5-0.2,8.7-2,11.8-5.2l1-1
					c3.3-3.3,5-7.5,5.2-11.8c4.5-0.2,8.7-2,11.8-5.2l1-1c3.3-3.3,5-7.5,5.2-11.8c4.5-0.2,8.7-2,11.8-5.2l1-1
					c5.7-5.7,6.7-14.2,3.2-21l23.8-36.2l35.7-35.7C2204.7,256.3,2204.7,252.5,2202.4,250.2z M1917.5,254.4l51.7-51.7l27.6,27.6
					l-51.7,51.7L1917.5,254.4z M1963.9,331c-2.3-2.3-2.3-6.2,0-8.5l7.1-7.1c2.3-2.3,6.2-2.3,8.5,0l1,1c2.3,2.3,2.3,6.2,0,8.5
					l-11.3,11.3L1963.9,331z M1977.7,344.8l11.3-11.3c2.3-2.3,6.2-2.3,8.5,0l1,1c2.3,2.3,2.3,6.2,0,8.5l-11.3,11.3L1977.7,344.8z
					 M2005.3,372.5l-9.6-9.6l11.3-11.3c2.3-2.3,6.2-2.3,8.5,0l1,1c2.3,2.3,2.3,6.2,0,8.5L2005.3,372.5z M2034.7,379.2l-7.1,7.1
					c-2.3,2.3-6.2,2.3-8.5,0l-5.3-5.3l11.3-11.3c2.3-2.3,6.2-2.3,8.5,0l1,1C2037.1,373,2037.1,376.9,2034.7,379.2z M2131.1,343.1
					l-1,1c-2.3,2.3-6.2,2.3-8.5,0l-15.6-15.6l-8.5,8.5l15.6,15.6c2.3,2.3,2.3,6.2,0,8.5l-1,1c-2.3,2.3-6.2,2.3-8.5,0l-15.6-15.6
					l-8.5,8.5l15.6,15.6c2.3,2.3,2.3,6.2,0,8.5l-1,1c-2.3,2.3-6.2,2.3-8.5,0l-15.6-15.6l-8.5,8.5l15.6,15.6c2.3,2.3,2.3,6.2,0,8.5
					l-1,1c-2.3,2.3-6.2,2.3-8.5,0L2048,379c1.3-5.9-0.2-12.3-4.8-16.8l-1-1c-3.2-3.2-7.5-4.8-11.8-5c-0.2-4.4-1.9-8.7-5.2-12l-1-1
					c-3.2-3.2-7.5-4.8-11.8-5c-0.2-4.4-1.9-8.7-5.2-12l-1-1c-3.2-3.2-7.5-4.8-11.8-5c-0.2-4.4-1.9-8.7-5.2-12l-1-1
					c-6.4-6.4-17.1-6.7-24.1-1.2l-10.9-14.5l53.8-53.8l21.9,8.2l-28.7,25.1c0,0-0.1,0.1-0.1,0.1c-1.1,1-2.1,2-2.9,3.2
					c-0.4,0.5-0.6,1-0.9,1.5c-0.5,0.7-0.9,1.4-1.2,2.2c-0.3,0.7-0.6,1.3-0.8,2c-0.2,0.7-0.4,1.3-0.6,2c-0.2,0.7-0.3,1.5-0.4,2.2
					c-0.1,0.7-0.1,1.5-0.2,2.2c0,0.5-0.1,1-0.1,1.6c0,0.2,0.1,0.3,0.1,0.5c0.1,1.4,0.3,2.8,0.7,4.2c0.1,0.4,0.3,0.7,0.4,1
					c0.3,1.1,0.8,2.1,1.3,3.2c0.2,0.4,0.5,0.8,0.8,1.3c0.4,0.6,0.7,1.2,1.1,1.8c0.2,0.3,0.5,0.5,0.7,0.7c0.4,0.5,0.8,0.9,1.2,1.3
					c0.6,0.7,1.3,1.3,2,1.8c0.3,0.2,0.5,0.5,0.8,0.8c0.4,0.3,0.9,0.5,1.3,0.8c0.2,0.1,0.4,0.3,0.6,0.4c3.5,2,7.5,2.9,11.6,2.7
					c0.7,0,1.3-0.1,2-0.2c0.5-0.1,1-0.2,1.5-0.3c0.8-0.2,1.6-0.4,2.4-0.7c0.4-0.1,0.7-0.3,1-0.4c0.8-0.3,1.6-0.7,2.4-1.1
					c0.6-0.3,1.2-0.7,1.7-1.1c0.4-0.3,0.8-0.5,1.2-0.8l0.3-0.2l16.6-13.3l16.1-5.4h14.9l34.1,28.4l21.6,21.6
					C2133.5,336.9,2133.5,340.7,2131.1,343.1z M2134.7,321.1l-10.7-10.7l0,0l-6.4-6.4l-36.2-30.1c-1.1-0.9-2.4-1.4-3.9-1.4h-18.1
					c-0.6,0-1.3,0.1-1.9,0.3l-18.1,6c-0.7,0.2-1.3,0.6-1.9,1l-17.5,14c-1.7,1.3-3.7,2.1-5.7,2.2c-0.1,0-0.1,0-0.2,0
					c-0.8,0-1.5-0.1-2.2-0.2c-0.3-0.1-0.6-0.1-0.9-0.2c-0.7-0.2-1.4-0.5-2-1c-0.3-0.2-0.6-0.4-0.8-0.6c-0.3-0.2-0.6-0.5-0.8-0.8
					c-0.2-0.2-0.4-0.4-0.5-0.6c-0.2-0.2-0.3-0.4-0.5-0.7c-1.3-1.8-1.8-3.9-1.6-6c0-0.1,0-0.3,0-0.4c0.1-1,0.4-2,0.9-3
					c0.1-0.1,0.1-0.2,0.2-0.4c0.5-0.9,1.2-1.8,2-2.6l35.8-31.3h21.8c1.1,0,2.2-0.3,3.1-0.9l26.1-15.7l59.5,59.5L2134.7,321.1z
					 M2162,282.1l-57.8-57.8l27.6-27.6l57.8,57.8L2162,282.1z"/>
			</g>
		</g>
		<g>
			<g>
				<path class="st0" d="M2124.1,69.4c-15.6-15.6-41.1-15.6-56.7,0l-13.8,13.8l-13.8-13.8c-15.6-15.6-41.1-15.6-56.7,0
					s-15.6,41.1,0,56.7l66.3,66.3c1.2,1.2,2.7,1.8,4.3,1.8s3.1-0.6,4.3-1.8l66.3-66.3C2139.7,110.5,2139.7,85.1,2124.1,69.4z
					 M2115.6,117.6l-62,62l-62-62c-10.9-10.9-10.9-28.7,0-39.7c5.5-5.5,12.7-8.2,19.8-8.2c7.2,0,14.4,2.7,19.8,8.2l18.1,18.1
					c2.4,2.4,6.2,2.4,8.5,0l18.1-18.1c10.9-10.9,28.7-10.9,39.7,0C2126.5,88.9,2126.5,106.7,2115.6,117.6z"/>
			</g>
		</g>
		<g>
			<g>
				<path class="st0" d="M1895.3,148.9c-2,3.6-3.9,7.4-5.7,11.1l10.9,5.1c1.6-3.5,3.4-7,5.3-10.4L1895.3,148.9z"/>
			</g>
		</g>
		<g>
			<g>
				<path class="st0" d="M1908.9,128c-2.5,3.3-4.9,6.7-7.1,10.2l10.1,6.5c2.1-3.2,4.3-6.4,6.7-9.5L1908.9,128z"/>
			</g>
		</g>
		<g>
			<g>
				<path class="st0" d="M1877.5,195.3c-0.9,4-1.8,8.1-2.4,12.2l11.9,1.9c0.6-3.8,1.4-7.7,2.2-11.4L1877.5,195.3z"/>
			</g>
		</g>
		<g>
			<g>
				<path class="st0" d="M1884.8,171.5c-1.5,3.9-2.8,7.8-4.1,11.8l11.5,3.5c1.1-3.7,2.4-7.4,3.8-11L1884.8,171.5z"/>
			</g>
		</g>
		<g>
			<g>
				<path class="st0" d="M1902.4,311.3l-10.8,5.4c1.8,3.7,3.8,7.4,5.9,11l10.4-6.1C1905.9,318.2,1904.1,314.8,1902.4,311.3z"/>
			</g>
		</g>
		<g>
			<g>
				<path class="st0" d="M1943.8,92.7c-3.3,2.5-6.5,5.2-9.6,7.9l8,9c2.9-2.5,5.9-5,9-7.4L1943.8,92.7z"/>
			</g>
		</g>
		<g>
			<g>
				<path class="st0" d="M1925.2,109.2c-2.9,2.9-5.8,6-8.5,9.1l9.1,7.9c2.5-2.9,5.2-5.8,7.9-8.5L1925.2,109.2z"/>
			</g>
		</g>
		<g>
			<g>
				<path class="st0" d="M1873.5,219.9c-0.4,4.1-0.6,8.3-0.7,12.4l12.1,0.3c0.1-3.9,0.3-7.8,0.6-11.6L1873.5,219.9z"/>
			</g>
		</g>
		<g>
			<g>
				<path class="st0" d="M1887.7,267.3l-11.9,2.2c0.7,4,1.7,8.1,2.7,12.2l11.7-3C1889.2,274.9,1888.4,271.1,1887.7,267.3z"/>
			</g>
		</g>
		<g>
			<g>
				<path class="st0" d="M1885,244.2l-12,0.5c0.2,4.1,0.5,8.3,1,12.4l12-1.4C1885.5,252,1885.2,248.1,1885,244.2z"/>
			</g>
		</g>
		<g>
			<g>
				<path class="st0" d="M1893.5,289.8l-11.4,3.8c1.3,3.9,2.8,7.8,4.4,11.7l11.1-4.6C1896.1,297.2,1894.7,293.5,1893.5,289.8z"/>
			</g>
		</g>
		<g>
			<g>
				<path class="st0" d="M1928.5,349.6l-8.9,8.1c2.8,3.1,5.7,6.1,8.7,8.9l8.3-8.7C1933.8,355.3,1931.1,352.5,1928.5,349.6z"/>
			</g>
		</g>
		<g>
			<g>
				<path class="st0" d="M1984.6,390.4l-4.9,11c3.8,1.7,7.7,3.3,11.6,4.7l4.2-11.3C1991.7,393.4,1988.1,392,1984.6,390.4z"/>
			</g>
		</g>
		<g>
			<g>
				<path class="st0" d="M1945.3,365.8l-7.7,9.2c3.2,2.7,6.5,5.2,9.8,7.7l7.1-9.7C1951.3,370.6,1948.2,368.2,1945.3,365.8z"/>
			</g>
		</g>
		<g>
			<g>
				<path class="st0" d="M1964.1,379.4l-6.4,10.2c3.5,2.2,7.2,4.3,10.8,6.3l5.7-10.6C1970.7,383.4,1967.4,381.5,1964.1,379.4z"/>
			</g>
		</g>
		<g>
			<g>
				<path class="st0" d="M1914.1,331.4l-10,6.8c2.3,3.4,4.8,6.8,7.4,10.1l9.5-7.5C1918.6,337.7,1916.3,334.6,1914.1,331.4z"/>
			</g>
		</g>
		<g>
			<g>
				<path class="st0" d="M2161.4,366.1c-3,2.5-6.1,4.9-9.2,7.1l7.1,9.8c3.3-2.4,6.7-5,9.8-7.6L2161.4,366.1z"/>
			</g>
		</g>
		<g>
			<g>
				<path class="st0" d="M2163.7,93l-7.4,9.5c3.1,2.4,6.1,4.9,9,7.4l8-9C2170.2,98.2,2166.9,95.6,2163.7,93z"/>
			</g>
		</g>
		<g>
			<g>
				<path class="st0" d="M2178.2,350c-2.6,2.9-5.4,5.7-8.1,8.3l8.3,8.7c3-2.8,5.9-5.8,8.7-8.9L2178.2,350z"/>
			</g>
		</g>
		<g>
			<g>
				<path class="st0" d="M2192.7,331.8c-2.2,3.2-4.5,6.3-6.9,9.4l9.4,7.5c2.6-3.3,5.1-6.6,7.4-10L2192.7,331.8z"/>
			</g>
		</g>
		<g>
			<g>
				<path class="st0" d="M2122.1,390.6c-3.5,1.6-7.2,3-10.8,4.4l4.1,11.3c3.9-1.4,7.8-3,11.6-4.7L2122.1,390.6z"/>
			</g>
		</g>
		<g>
			<g>
				<path class="st0" d="M2142.6,379.7c-3.3,2.1-6.7,4-10.1,5.8l5.6,10.7c3.6-1.9,7.3-4,10.8-6.2L2142.6,379.7z"/>
			</g>
		</g>
		<g>
			<g>
				<path class="st0" d="M2198.5,128.4l-9.7,7.2c2.3,3.1,4.5,6.3,6.6,9.6l10.1-6.5C2203.4,135.2,2201,131.7,2198.5,128.4z"/>
			</g>
		</g>
		<g>
			<g>
				<path class="st0" d="M2222.5,172l-11.3,4.3c1.4,3.6,2.6,7.3,3.8,11l11.5-3.5C2225.3,179.8,2224,175.8,2222.5,172z"/>
			</g>
		</g>
		<g>
			<g>
				<path class="st0" d="M2204.5,311.7c-1.7,3.5-3.6,6.9-5.6,10.2l10.4,6.1c2.1-3.6,4.1-7.2,6-11L2204.5,311.7z"/>
			</g>
		</g>
		<g>
			<g>
				<path class="st0" d="M2212,149.4l-10.6,5.8c1.9,3.4,3.6,6.9,5.3,10.4l10.9-5.1C2215.9,156.8,2214,153,2212,149.4z"/>
			</g>
		</g>
		<g>
			<g>
				<path class="st0" d="M2182.3,109.5l-8.6,8.5c2.7,2.7,5.4,5.6,7.9,8.6l9.1-7.9C2188.1,115.6,2185.2,112.5,2182.3,109.5z"/>
			</g>
		</g>
		<g>
			<g>
				<path class="st0" d="M2233.6,220.4l-12,1c0.3,3.8,0.5,7.7,0.6,11.6l12.1-0.2C2234.2,228.7,2234,224.5,2233.6,220.4z"/>
			</g>
		</g>
		<g>
			<g>
				<path class="st0" d="M2229.7,195.8l-11.7,2.7c0.9,3.8,1.6,7.6,2.2,11.4l11.9-1.9C2231.5,203.9,2230.7,199.8,2229.7,195.8z"/>
			</g>
		</g>
		<g>
			<g>
				<path class="st0" d="M2213.5,290.3c-1.2,3.7-2.6,7.3-4.1,10.9l11.1,4.6c1.6-3.8,3.1-7.8,4.4-11.7L2213.5,290.3z"/>
			</g>
		</g>
		<g>
			<g>
				<path class="st0" d="M2222,244.7c-0.2,3.9-0.5,7.8-1,11.6l12,1.4c0.5-4.1,0.8-8.3,1-12.4L2222,244.7z"/>
			</g>
		</g>
		<g>
			<g>
				<path class="st0" d="M2219.3,267.8c-0.7,3.8-1.6,7.6-2.5,11.3l11.7,3c1-4,2-8.1,2.7-12.2L2219.3,267.8z"/>
			</g>
		</g>
	</g>
	<g>
		<g>
			<g>
				<path class="st0" d="M3727.4,115.3c-8-2.4-9.4-3.6-9.4-7.6c0.1-4.1,3.5-7.4,7.6-7.3c4.1-0.1,7.5,3.2,7.6,7.3h12.2
					c-0.1-10.9-9.1-19.7-20-19.5c-10.7,0.1-19.4,8.8-19.5,19.5c0,13.7,10.8,17,18,19.2c8,2.4,9.4,3.6,9.4,7.6
					c-0.1,4.2-3.7,7.5-7.9,7.3c-4-0.1-7.2-3.3-7.3-7.3h-12.2c0.1,10.9,9.1,19.7,20,19.5c10.7-0.1,19.4-8.8,19.5-19.5
					C3745.4,120.8,3734.5,117.5,3727.4,115.3z"/>
			</g>
		</g>
		<g>
			<g>
				<path class="st0" d="M3847.2,228.8h-182.4c-3.4,0-6.1,2.7-6.1,6.1v176.3c0,3.4,2.7,6.1,6.1,6.1h182.4c3.4,0,6.1-2.7,6.1-6.1
					V234.9C3853.3,231.5,3850.5,228.8,3847.2,228.8z M3792.5,241h18.2v21.3c0,5-4.1,9.1-9.1,9.1c-5,0-9.1-4.1-9.1-9.1V241z
					 M3762.1,241h18.2v21.3c0,5-4.1,9.1-9.1,9.1c-5,0-9.1-4.1-9.1-9.1V241z M3731.7,241h18.2v21.3c0,5-4.1,9.1-9.1,9.1
					s-9.1-4.1-9.1-9.1V241z M3701.3,241h18.2v21.3c0,5-4.1,9.1-9.1,9.1c-5,0-9.1-4.1-9.1-9.1V241z M3670.9,241h18.2v21.3
					c0,5-4.1,9.1-9.1,9.1c-5,0-9.1-4.1-9.1-9.1V241L3670.9,241z M3731.7,405.1h-36.5v-60.8h36.5V405.1z M3841.1,405.1h-97.3v-66.9
					c0-3.4-2.7-6.1-6.1-6.1h-48.6c-3.4,0-6.1,2.7-6.1,6.1v66.9h-12.2V281.4c8.2,4,18,2.3,24.3-4.3c8.1,8.4,21.5,8.6,29.9,0.5
					c0.2-0.2,0.3-0.3,0.5-0.5c8.1,8.4,21.5,8.6,29.9,0.5c0.2-0.2,0.3-0.3,0.5-0.5c8.1,8.4,21.5,8.6,29.9,0.5
					c0.2-0.2,0.3-0.3,0.5-0.5c8.1,8.4,21.5,8.6,29.9,0.5c0.2-0.2,0.3-0.3,0.5-0.5c6.3,6.6,16.1,8.3,24.3,4.3V405.1L3841.1,405.1z
					 M3841.1,262.2c0,5-4.1,9.1-9.1,9.1s-9.1-4.1-9.1-9.1V241h18.2V262.2z"/>
			</g>
		</g>
		<g>
			<g>
				<path class="st0" d="M3621.2,277.4c-2.8,0-5.2,1.9-5.9,4.5l-5.2,19.8h-109.5c-3.4,0-6.1,2.7-6.1,6.1c0,0.5,0.1,1.1,0.2,1.6
					l16.3,60.8c0.7,2.7,3.1,4.5,5.9,4.5h11v7.2c-9.5,3.4-14.5,13.8-11.1,23.3s13.8,14.5,23.3,11.1c9.5-3.4,14.5-13.8,11.1-23.3
					c-1.8-5.2-5.9-9.3-11.1-11.1v-7.2h36.5v7.2c-9.5,3.4-14.5,13.8-11.1,23.3c3.4,9.5,13.8,14.5,23.3,11.1
					c9.5-3.4,14.5-13.8,11.1-23.3c-1.8-5.2-5.9-9.3-11.1-11.1v-7.2h9.7c2.8,0,5.2-1.8,5.9-4.5l21.5-80.6h20.7v-12.2H3621.2z
					 M3534.1,405.1c-3.4,0-6.1-2.7-6.1-6.1c0-3.4,2.7-6.1,6.1-6.1s6.1,2.7,6.1,6.1C3540.1,402.4,3537.4,405.1,3534.1,405.1z
					 M3582.7,405.1c-3.4,0-6.1-2.7-6.1-6.1c0-3.4,2.7-6.1,6.1-6.1s6.1,2.7,6.1,6.1C3588.8,402.4,3586.1,405.1,3582.7,405.1z
					 M3593.9,362.6h-72.2l-13.1-48.6h98.3L3593.9,362.6z"/>
			</g>
		</g>
		<g>
			<g>
				<path class="st0" d="M3830.7,181.9l-13.9,13.9v-76.5c0-3.4-2.7-6.1-6.1-6.1h-30.8c-3.3-30-30.4-51.6-60.4-48.3
					c-25.4,2.8-45.5,22.9-48.3,48.3h-49.3c-3.4-36.8-35.9-63.9-72.7-60.5c-36.8,3.4-63.9,35.9-60.5,72.7
					c3.4,36.8,35.9,63.9,72.7,60.5c32.1-2.9,57.6-28.4,60.5-60.5h49.3c3.3,30,30.4,51.6,60.4,48.3c25.4-2.8,45.5-22.9,48.3-48.3
					h24.7v70.4l-13.9-13.9l-8.6,8.6l24.3,24.3c2.4,2.4,6.2,2.4,8.6,0c0,0,0,0,0,0l24.3-24.3L3830.7,181.9z M3579.7,168.3
					c-15.3,7.7-33.3,7.7-48.6,0v-11.6c0-10.6,8.6-19.1,19.1-19.1h10.4c10.6,0,19.1,8.6,19.1,19.1L3579.7,168.3L3579.7,168.3z
					 M3537.1,107.2c0-10.1,8.2-18.2,18.2-18.2s18.2,8.2,18.2,18.2c0,10.1-8.2,18.2-18.2,18.2
					C3545.3,125.4,3537.1,117.3,3537.1,107.2z M3596.1,155.7c-1.4,1.5-2.8,3-4.3,4.3v-3.3c0-11.3-6.2-21.7-16.1-27.2
					c12.4-11.3,13.4-30.5,2.1-42.9s-30.5-13.4-42.9-2.1s-13.4,30.5-2.1,42.9c0.7,0.7,1.4,1.4,2.1,2.1c-9.9,5.5-16,15.9-16.1,27.1
					v3.3c-22.5-20.1-24.5-54.7-4.3-77.3c20.1-22.5,54.7-24.5,77.3-4.3S3616.3,133.2,3596.1,155.7z M3725.6,161.9
					c-23.5,0-42.6-19.1-42.6-42.6s19.1-42.6,42.6-42.6s42.6,19.1,42.6,42.6C3768.1,142.9,3749.1,161.9,3725.6,161.9z"/>
			</g>
		</g>
		<g>
			<g>
				<path class="st0" d="M3559.6,200.2c-2.4-2.4-6.2-2.4-8.6,0c0,0,0,0,0,0l-24.3,24.3l8.6,8.6l13.9-13.9v70.4h12.2v-70.4l13.9,13.9
					l8.6-8.6L3559.6,200.2z"/>
			</g>
		</g>
		<g>
			<g>
				<path class="st0" d="M3822.9,295.7h-60.8c-3.4,0-6.1,2.7-6.1,6.1v42.6c0,3.4,2.7,6.1,6.1,6.1h60.8c3.4,0,6.1-2.7,6.1-6.1v-42.6
					C3828.9,298.4,3826.2,295.7,3822.9,295.7z M3816.8,338.2h-48.6v-30.4h48.6V338.2z"/>
			</g>
		</g>
	</g>
	<g>
		<path class="st0" d="M609.4,57.9h-47.2c-3.3,0-5.9,2.6-5.9,5.9v11.8h-5.8l-40.2-17.2c-0.7-0.3-1.5-0.5-2.3-0.5h-62.1
			c-10.9,0-21.4,4.4-29.2,12.1l-48,48c-7.8,7.6-9.3,19.5-3.6,28.8c0.9,1.4,2,2.6,3.1,3.7c-4.3,7.8-6.6,16.5-6.6,25.3
			c-0.1,22.8,14.4,43.1,36,50.4c21.6,7.3,45.4,0.1,59.3-18c13.8-18.1,14.6-43,1.9-61.9h14.7c4.2,14.2,23.2,23.6,40.4,23.6
			c17.2,0,36.2-9.4,40.4-23.6h2v11.8c0,3.3,2.6,5.9,5.9,5.9h47.2c3.3,0,5.9-2.6,5.9-5.9V63.8C615.3,60.6,612.6,57.9,609.4,57.9z
			 M456,175.9c0,22.8-18.5,41.3-41.3,41.3c-22.8,0-41.3-18.5-41.3-41.3c0-8.4,2.5-16.6,7.3-23.4c7.5-10.9,19.7-17.5,32.8-17.9h1.1
			c0.7,0,1.5,0.1,2.2,0.1c4.1,7.3,11.9,11.7,20.3,11.7h6.4C451.5,154.2,456,164.8,456,175.9z M549.2,134.6c-3.3,0-5.9,2.6-5.9,5.9
			c0,8.9-14.6,17.7-29.5,17.7c-14.9,0-29.5-8.8-29.5-17.7c0-3.3-2.6-5.9-5.9-5.9h-41.3c-6.5,0-11.8-5.3-11.8-11.8
			c0-6.5,5.3-11.8,11.8-11.8H502V99.2h-64.9c-13,0-23.6,10.6-23.6,23.6h-0.1c-14.7,0.4-28.6,6.8-38.3,17.8c0-0.1-0.1-0.1-0.2-0.2
			c-2.6-4.6-1.7-10.4,2.1-14.1l48-48c5.5-5.5,13-8.6,20.8-8.6h60.8L546.9,87c0.7,0.3,1.5,0.5,2.3,0.5h7v47.2H549.2z M603.5,152.3
			h-35.4V69.7h35.4V152.3z"/>
		<path class="st0" d="M498.2,300.9l-30.4-21.5v-32.7c0-3.3-2.6-5.9-5.9-5.9h-23.6c-3.3,0-5.9,2.6-5.9,5.9v7.7L406.3,236
			c-2-1.4-4.8-1.4-6.8,0l-91.9,64.9c-7.4,5.3-9,15.6-3.7,22.9c5.3,7.4,15.6,9,22.9,3.7l11.2-8.2v80.8c0,6.5,5.3,11.8,11.8,11.8H456
			c6.5,0,11.8-5.3,11.8-11.8v-80.8l11.2,8.2c4.8,3.5,11,4.2,16.4,1.8c5.4-2.4,9.1-7.5,9.7-13.4C505.7,310,503,304.3,498.2,300.9
			L498.2,300.9z M444.2,252.6H456v18.5l-11.8-8.3V252.6z M373.4,400.1v-35.4H397v35.4H373.4z M456,400.1h-47.2v-41.3
			c0-3.3-2.6-5.9-5.9-5.9h-35.4c-3.3,0-5.9,2.6-5.9,5.9v41.3h-11.8v-89.4l53.1-38.9l53.1,38.9V400.1z M492.6,316.9
			c-0.7,1.1-1.8,1.8-3.1,2c-1.2,0.2-2.5-0.1-3.5-0.8l-79.6-58.4c-2.1-1.5-4.9-1.5-7,0L319.8,318c-1.3,1.1-3.2,1.4-4.8,0.7
			c-1.6-0.7-2.7-2.2-2.8-3.9c-0.1-1.7,0.7-3.4,2.2-4.3l88.5-62.5l88.5,62.5C493.4,312,494,314.8,492.6,316.9z"/>
		<path class="st0" d="M414.7,358.8v23.6c0,3.3,2.6,5.9,5.9,5.9h23.6c3.3,0,5.9-2.6,5.9-5.9v-23.6c0-3.3-2.6-5.9-5.9-5.9h-23.6
			C417.3,352.9,414.7,355.5,414.7,358.8z M426.5,364.7h11.8v11.8h-11.8V364.7z"/>
		<path class="st0" d="M379.3,317.5c0,13,10.6,23.6,23.6,23.6s23.6-10.6,23.6-23.6s-10.6-23.6-23.6-23.6S379.3,304.5,379.3,317.5z
			 M414.7,317.5c0,6.5-5.3,11.8-11.8,11.8s-11.8-5.3-11.8-11.8s5.3-11.8,11.8-11.8S414.7,311,414.7,317.5z"/>
		<path class="st0" d="M408.8,158.2h11.8c3.3,0,5.9,2.6,5.9,5.9h11.8c0-9.8-7.9-17.7-17.7-17.7v-5.9h-11.8v5.9
			c-9.8,0-17.7,7.9-17.7,17.7s7.9,17.7,17.7,17.7h11.8c3.3,0,5.9,2.6,5.9,5.9s-2.6,5.9-5.9,5.9h-11.8c-3.3,0-5.9-2.6-5.9-5.9h-11.8
			c0,9.8,7.9,17.7,17.7,17.7v5.9h11.8v-5.9c9.8,0,17.7-7.9,17.7-17.7s-7.9-17.7-17.7-17.7h-11.8c-3.3,0-5.9-2.6-5.9-5.9
			S405.5,158.2,408.8,158.2z"/>
		<path class="st0" d="M591.7,305.7h-59c-6.5,0-11.8,5.3-11.8,11.8v11.8c0,0.5,0.1,1,0.2,1.6c-3.7,2.1-6,6-6.1,10.2v11.8
			c0,4.3,2.3,8.2,6.1,10.2c-0.1,0.5-0.1,1-0.2,1.6v11.8c0,0.5,0.1,1,0.2,1.6c-3.7,2.1-6,6-6.1,10.2v11.8c0,6.5,5.3,11.8,11.8,11.8
			h59c6.5,0,11.8-5.3,11.8-11.8v-11.8c0-0.5-0.1-1-0.2-1.6c3.7-2.1,6-6,6.1-10.2v-11.8c0-4.3-2.3-8.2-6.1-10.2
			c0.1-0.5,0.1-1,0.2-1.6v-11.8c0-0.5-0.1-1-0.2-1.6c3.7-2.1,6-6,6.1-10.2v-11.8C603.5,311,598.2,305.7,591.7,305.7z M532.7,317.5
			h59v11.8h-59V317.5z M585.8,352.9h-59v-11.8h59V352.9z M591.7,364.7v11.8h-59v-11.8H591.7z M585.8,400.1h-59v-11.8h59V400.1z"/>
	</g>
	<g>
		<g>
			<g>
				<path class="st0" d="M2983.1,198.5c-1.3-1.3-3-2-4.8-2c-1.8,0-3.6,0.7-4.9,2c-1.3,1.3-2,3.1-2,4.8c0,1.8,0.7,3.6,2,4.9
					c1.3,1.3,3,2,4.9,2s3.6-0.7,4.8-2c1.3-1.3,2-3,2-4.9C2985.1,201.6,2984.4,199.8,2983.1,198.5z"/>
			</g>
		</g>
		<g>
			<g>
				<path class="st0" d="M3011.4,196.5h-7.4c-3.8,0-6.9,3.1-6.9,6.9c0,3.8,3.1,6.9,6.9,6.9h7.4c10.3,0,18.6,8.4,18.6,18.6v66.9
					h-25.2v-30.7c0-6.5-3.3-12.4-8.7-15.9c-5.5-3.5-12.2-3.9-18.1-1.1l-30.8,14.5c-1.1-0.6-2.4-1.1-3.6-1.5v-50.9h8.9
					c3.8,0,6.9-3.1,6.9-6.9c0-3.8-3.1-6.9-6.9-6.9h-68.1c0.1-0.4,0.1-0.9,0.1-1.4v-21.1c4.8-1.5,8.2-5.9,8.2-11.2v-30.1
					c0-6.4-5.2-11.7-11.7-11.7H2858c1.7-3.4,2.7-7.2,2.7-11.2c0-10.3-5.9-19.2-15.5-23.1c-7.9-3.2-16.3-2.3-23.1,2.2
					c0.1-8.2-3.3-16.3-9.7-22.1c-11.2-10.2-28.2-10.2-39.5,0c-6.4,5.8-9.7,13.8-9.7,22c-6.8-4.4-15.1-5.3-22.9-2.1
					c-9.6,3.9-15.5,12.8-15.5,23.1c0,4,1,7.8,2.7,11.2h-23.3c-6.4,0-11.7,5.2-11.7,11.7v30.1c0,5.2,3.5,9.7,8.2,11.2v229.6
					c0,3.8,3.1,6.9,6.9,6.9h170.1c0.1,0,0.1,0,0.2,0h133.5c17.8,0,32.3-14.5,32.3-32.3V228.9C3043.8,211,3029.3,196.5,3011.4,196.5z
					 M2956.2,273.5l27.7-13c2.3-1.1,4.2-0.1,4.9,0.3c0.7,0.5,2.4,1.8,2.4,4.3v40.8c0,2.5-1.7,3.9-2.4,4.3c-0.7,0.5-2.6,1.4-4.9,0.3
					l-27.7-13.1c0.6-1.8,0.9-3.8,0.9-5.8v-12.5C2957.1,277.2,2956.8,275.3,2956.2,273.5z M2947,308.3l19.3,9.1l16.1,28.4l-3.7-1
					c-1.8-0.5-3.6-0.2-5.2,0.7s-2.7,2.4-3.2,4.2l-0.9,3.3l-24.6-43.7C2945.6,308.9,2946.3,308.6,2947,308.3z M2930.2,279.1
					c0-2.8,2.3-5.1,5.1-5.1h3c2.8,0,5.1,2.3,5.1,5.1v12.5c0,2.8-2.3,5.1-5.1,5.1h-3c-2.8,0-5.1-2.3-5.1-5.1V279.1z M2929.9,210.2
					v50.9h0c-1.3,0.4-2.5,0.9-3.6,1.5l-30.9-14.6c-5.9-2.8-12.6-2.3-18.1,1.1c-5.5,3.5-8.7,9.4-8.7,15.9v30.7h-25.2v-66.9
					c0-10.3,8.4-18.6,18.6-18.6L2929.9,210.2L2929.9,210.2z M2917.4,297.4l-27.8,13.1c-2.3,1.1-4.2,0.1-4.9-0.3
					c-0.7-0.5-2.4-1.8-2.4-4.3v-40.8c0-2.5,1.7-3.9,2.4-4.3c0.7-0.5,2.6-1.4,4.9-0.3l27.7,13.1c-0.6,1.8-0.8,3.6-0.8,5.6v12.5
					C2916.5,293.6,2916.8,295.5,2917.4,297.4z M2897.4,322l23.6-11.1l-16.8,29.1l-1-3.6c-0.5-1.8-1.6-3.3-3.2-4.2
					c-1.6-0.9-3.5-1.2-5.2-0.7l-3.5,0.9L2897.4,322z M2714.9,271.2l96.7-96.7h54.7l-151.8,151.8v-54.7
					C2714.6,271.5,2714.7,271.4,2714.9,271.2z M2714.5,252.3v-77.7h77.7L2714.5,252.3z M2871,196.5h-7.3l7.2-7.2v5.8
					C2870.9,195.6,2870.9,196.1,2871,196.5z M2827.8,102c3.3-3.4,7.9-4.3,12.3-2.5c4.4,1.8,7,5.7,7,10.4c0,6.2-5,11.2-11.2,11.2
					H2809L2827.8,102z M2782.1,77.1c3-2.7,6.8-4.1,10.5-4.1c3.8,0,7.5,1.4,10.5,4.1c5.9,5.3,6.9,14.3,2.3,20.8l-12.9,18.2
					l-12.9-18.2C2775.2,91.3,2776.2,82.4,2782.1,77.1z M2745.4,99.5c1.5-0.6,2.9-0.9,4.4-0.9c2.9,0,5.7,1.2,7.9,3.4l18.8,19.1h-26.8
					c-6.2,0-11.2-5-11.2-11.2C2738.5,105.1,2741.1,101.3,2745.4,99.5z M2706.2,160.9v-26h172.9v26H2706.2z M2747.8,396.8l45.4-45.4
					c2.7-2.7,2.7-7,0-9.7c-2.7-2.7-7-2.7-9.7,0l-55.1,55.1h-13.9v-51.1l115.3-115.3v147.7c0,6.9,2.2,13.4,5.9,18.6H2747.8
					L2747.8,396.8z M3030,378.2c0,10.3-8.4,18.6-18.6,18.6h-67.8v-45c0-3.8-3.1-6.9-6.9-6.9c-3.8,0-6.9,3.1-6.9,6.9v45h-67.8
					c-10.3,0-18.6-8.4-18.6-18.6v-68.7h25.5c1,5,4,9.4,8.4,12.2c1.1,0.7,2.2,1.2,3.3,1.7L2871,340c-1.4,2.4-1.2,5.4,0.5,7.6
					c1.7,2.2,4.5,3.2,7.2,2.5l12.9-3.5l3.5,12.9c0.7,2.7,3,4.7,5.7,5c0.3,0,0.6,0.1,0.9,0.1c2.4,0,4.7-1.3,5.9-3.4l25.6-44.4
					l32.4,57.6c1.2,2.2,3.5,3.5,6,3.5c0.3,0,0.6,0,0.9-0.1c2.8-0.3,5-2.3,5.8-5l3.5-12.9l12.9,3.5c2.7,0.7,5.5-0.2,7.2-2.4
					c1.7-2.2,1.9-5.2,0.5-7.6l-16.2-28.6c3.4,0,6.8-1,9.9-2.9c4.4-2.8,7.4-7.2,8.4-12.2h25.5L3030,378.2L3030,378.2z"/>
			</g>
		</g>
		<g>
			<g>
				<path class="st0" d="M2812.7,322.2c-1.3-1.3-3-2-4.9-2c-1.8,0-3.6,0.7-4.9,2c-1.3,1.3-2,3-2,4.9s0.7,3.6,2,4.8
					c1.3,1.3,3,2,4.9,2c1.8,0,3.6-0.7,4.9-2c1.3-1.3,2-3,2-4.8C2814.7,325.2,2814,323.5,2812.7,322.2z"/>
			</g>
		</g>
		<g>
			<g>
				<path class="st0" d="M3017,78.4h-4.7c-3.8,0-6.9,3.1-6.9,6.9c0,3.8,3.1,6.9,6.9,6.9h4.7c3.8,0,6.9-3.1,6.9-6.9
					S3020.8,78.4,3017,78.4z"/>
			</g>
		</g>
		<g>
			<g>
				<path class="st0" d="M2983.7,78.4h-4.7c-3.8,0-6.9,3.1-6.9,6.9c0,3.8,3.1,6.9,6.9,6.9h4.7c3.8,0,6.9-3.1,6.9-6.9
					S2987.5,78.4,2983.7,78.4z"/>
			</g>
		</g>
		<g>
			<g>
				<path class="st0" d="M2998,92.7c-3.8,0-6.9,3.1-6.9,6.9v4.7c0,3.8,3.1,6.9,6.9,6.9c3.8,0,6.9-3.1,6.9-6.9v-4.7
					C3004.9,95.8,3001.8,92.7,2998,92.7z"/>
			</g>
		</g>
		<g>
			<g>
				<path class="st0" d="M2998,59.4c-3.8,0-6.9,3.1-6.9,6.9V71c0,3.8,3.1,6.9,6.9,6.9c3.8,0,6.9-3.1,6.9-6.9v-4.7
					C3004.9,62.5,3001.8,59.4,2998,59.4z"/>
			</g>
		</g>
		<g>
			<g>
				<path class="st0" d="M2951,148.4h-4.7c-3.8,0-6.9,3.1-6.9,6.9c0,3.8,3.1,6.9,6.9,6.9h4.7c3.8,0,6.9-3.1,6.9-6.9
					C2957.8,151.5,2954.8,148.4,2951,148.4z"/>
			</g>
		</g>
		<g>
			<g>
				<path class="st0" d="M2917.7,148.4h-4.7c-3.8,0-6.9,3.1-6.9,6.9c0,3.8,3.1,6.9,6.9,6.9h4.7c3.8,0,6.9-3.1,6.9-6.9
					C2924.6,151.5,2921.5,148.4,2917.7,148.4z"/>
			</g>
		</g>
		<g>
			<g>
				<path class="st0" d="M2932,162.7c-3.8,0-6.9,3.1-6.9,6.9v4.7c0,3.8,3.1,6.9,6.9,6.9c3.8,0,6.9-3.1,6.9-6.9v-4.7
					C2938.8,165.8,2935.8,162.7,2932,162.7z"/>
			</g>
		</g>
		<g>
			<g>
				<path class="st0" d="M2932,129.4c-3.8,0-6.9,3.1-6.9,6.9v4.7c0,3.8,3.1,6.9,6.9,6.9c3.8,0,6.9-3.1,6.9-6.9v-4.7
					C2938.8,132.5,2935.8,129.4,2932,129.4z"/>
			</g>
		</g>
	</g>
	<g>
		<g>
			<g>
				<path class="st0" d="M1313.3,70.4c-1-3.1-4.4-4.8-7.5-3.8l-2.1,0.7V65c0-3.3-2.7-5.9-5.9-5.9s-5.9,2.7-5.9,5.9v2.3l-2.1-0.7
					c-3.1-1-6.5,0.7-7.5,3.8c-1,3.1,0.7,6.5,3.8,7.5l2.2,0.7l-1.4,1.9c-2.8,3.9,0,9.4,4.8,9.4c3.5,0,4.8-2.4,6.1-4.3l1.3,1.8
					c1.9,2.7,5.6,3.3,8.3,1.4c2.7-1.9,3.3-5.6,1.4-8.3l-1.4-1.9l2.2-0.7C1312.6,76.9,1314.3,73.6,1313.3,70.4z"/>
			</g>
		</g>
		<g>
			<g>
				<path class="st0" d="M1372.1,134.3c-1-3.1-4.4-4.8-7.5-3.8l-2.1,0.7v-2.3c0-3.3-2.7-5.9-5.9-5.9s-5.9,2.7-5.9,5.9v2.3l-2.1-0.7
					c-3.1-1-6.5,0.7-7.5,3.8c-1,3.1,0.7,6.5,3.8,7.5l2.2,0.7l-1.4,1.9c-1.9,2.7-1.3,6.4,1.4,8.3c2.7,1.9,6.4,1.3,8.3-1.4l1.3-1.8
					c1.2,1.7,2.6,4.3,6.1,4.3c4.8,0,7.7-5.5,4.8-9.4l-1.4-1.9l2.2-0.7C1371.5,140.8,1373.2,137.4,1372.1,134.3z"/>
			</g>
		</g>
		<g>
			<g>
				<circle class="st0" cx="1292.7" cy="120.5" r="5.9"/>
			</g>
		</g>
		<g>
			<g>
				<circle class="st0" cx="1387.9" cy="216.8" r="5.9"/>
			</g>
		</g>
		<g>
			<g>
				<circle class="st0" cx="1326" cy="171.3" r="5.9"/>
			</g>
		</g>
		<g>
			<g>
				<circle class="st0" cx="1390.3" cy="93.6" r="5.9"/>
			</g>
		</g>
		<g>
			<g>
				<path class="st0" d="M1280.4,134.6c-3.1-3.8-7.5-4.2-7.5-4.2c-3.4-0.5-6.3,1.9-6.7,5c-0.5,3.3,1.8,6.3,5,6.7l-10.6,10.3
					c-1.4,1.4-2,3.3-1.7,5.3l2.5,14.6c0,0,0,0,0,0c-17.5-9.2-14.4-9.1-31.7,0h0c0,0,0,0,0,0l2.5-14.6c0.3-1.9-0.3-3.9-1.7-5.3
					l-10.6-10.3l14.7-2.1c1.9-0.3,3.6-1.5,4.5-3.3l6.6-13.3l2.6,5.2c1,2,3.1,3.3,5.3,3.3c4.4,0,7.3-4.6,5.3-8.6l-2.6-5.2
					c-4.4-8.9-17.1-8.7-21.3,0l-5.2,10.5c-11.8,1.7-15.5,1.5-19.1,5.9c-1.8,2.2-2.7,4.8-2.7,7.6c0,6.2,3.6,8.4,12,16.6l-2,11.5
					c-0.1,0.7-0.2,1.4-0.2,2c0,3.2,1.3,6.3,3.6,8.5c2.3,2.2,5.3,3.4,8.3,3.4c3.7,0,5-1.1,15.9-6.8h0l10.3,5.4
					c7.9,4.2,17.5-1.6,17.4-10.5c0-0.7-0.1-1.4-0.2-2l-2-11.5l8.4-8.2C1284,146.4,1284.3,139.4,1280.4,134.6z"/>
			</g>
		</g>
		<g>
			<g>
				<path class="st0" d="M1418.8,240.3h-79.2l2.8-2.8c7.9-7.7,3.6-21.3-7.4-22.8l-15.3-2.2l-6.8-13.8c-4.9-10-19.1-9.9-24,0
					l-6.8,13.8l-15.3,2.2c-11,1.6-15.4,15.1-7.4,22.8l2.8,2.8h-21.3c0.3-3.4-0.8-7-3.4-9.6l-33.6-33.6c-4.6-4.6-12.2-4.6-16.8,0
					c-11.5,11.5-14.9,14.9-20.7,20.7l-22.8-22.8c-5.6-5.6-13.4-7.7-21.1-5.6c-7.6,2-13.4,7.8-15.4,15.4l-11.9,44.5
					c-7.1,3-12.7,8.6-15.7,15.7l-44.5,11.9c-16.2,4.3-21.7,24.6-9.8,36.5l22.8,22.8c-11.7,11.7-19.6,19.6-20.7,20.7
					c-4.6,4.6-4.6,12.2,0,16.8l33.6,33.6c2.3,2.3,5.4,3.5,8.4,3.5c3,0,6.1-1.2,8.4-3.5l155.1-155.1h180v140.8c0,3.3-2.7,5.9-5.9,5.9
					h-200.6c-3.3,0-5.9-2.7-5.9-5.9v-75.8c0-3.3-2.7-5.9-5.9-5.9c-3.3,0-5.9,2.7-5.9,5.9c0,0,0,0,0,0v75.8c0,4.8,1.9,9.2,5.2,12.6
					c3.4,3.4,7.9,5.2,12.6,5.2h200.6c9.8,0,17.8-7.9,17.8-17.8V246.2C1424.8,242.9,1422.1,240.3,1418.8,240.3z M1118.6,207.8
					c2-7.4,11.2-9.8,16.6-4.4l22.8,22.8c-8.2,8.2-17.6,17.6-27.5,27.5l7.2-26.8c0.9-3.2-1-6.4-4.2-7.3c-3.2-0.9-6.4,1-7.3,4.2
					l-6.9,25.8c-3.5-1.6-7.3-2.5-11.1-2.7L1118.6,207.8z M1101.8,259.4c6.4-1.9,13.4-0.1,18,4.9c-8.3,8.3-16.9,16.9-25.2,25.2
					C1084.5,280,1088.6,263.3,1101.8,259.4z M1033.6,304.9c-2.5-2.5-3.5-6.1-2.6-9.6c0.9-3.5,3.5-6.1,7-7l39.1-10.5
					c0.2,3.8,1.1,7.6,2.7,11.1l-25.8,6.9c-3.2,0.8-5.1,4.1-4.2,7.3c0.9,3.2,4.1,5.1,7.3,4.2l26.8-7.2c-9.9,9.9-19.3,19.3-27.5,27.5
					L1033.6,304.9z M1069.3,398.9l-33.6-33.6c1.3-1.3,10.9-10.9,24.9-24.9c0,0,0,0,0,0l0,0c10.9-10.9,96.9-96.9,110-110l0,0
					c10.4-10.4-3.1,3.1,24.9-24.9l33.6,33.6L1069.3,398.9z M1334.2,229l-11.6,11.3h-43.4c-12.4-12.1-12.3-11.6-11.9-12.8
					c0.4-1.2-0.2-0.8,19.6-3.7c1.9-0.3,3.6-1.5,4.5-3.3c8.9-18,8.3-17.5,9.6-17.5c1.3,0,0.7-0.5,9.6,17.5c0.9,1.8,2.5,3,4.5,3.3
					l18.4,2.7C1334.6,226.6,1335.1,228.1,1334.2,229z"/>
			</g>
		</g>
	</g>
	<g>
		<g>
			<g>
				<path class="st0" d="M6249.9,250.2l-66.3-66.3c-2.4-2.4-6.2-2.4-8.5,0l-35.6,35.6l-28,16.8H6089c-0.7,0-1.3,0.1-2,0.4
					l-30.8-11.6l-35.2-35.2c-2.4-2.4-6.2-2.4-8.5,0l-60.3,60.3c-2.4,2.4-2.4,6.2,0,8.5l35.9,35.9l14.7,19.6
					c-6.9,7.1-6.8,18.4,0.2,25.4l9.6,9.6l18.1,18.1l18.1,18.1l9.5,9.6c3.4,3.4,8,5.3,12.8,5.3c4.8,0,9.4-1.9,12.8-5.3l5.3-5.3
					l17.3,17.3c3.4,3.4,8,5.3,12.8,5.3c4.8,0,9.4-1.9,12.8-5.3l1-1c3.3-3.3,5-7.5,5.2-11.8c4.5-0.2,8.7-2,11.8-5.2l1-1
					c3.3-3.3,5-7.5,5.2-11.8c4.5-0.2,8.7-2,11.8-5.2l1-1c3.3-3.3,5-7.5,5.2-11.8c4.5-0.2,8.7-2,11.8-5.2l1-1
					c5.7-5.7,6.7-14.2,3.2-21l23.8-36.2l35.7-35.7C6252.3,256.3,6252.3,252.5,6249.9,250.2z M5965,254.4l51.7-51.7l27.6,27.6
					l-51.7,51.7L5965,254.4z M6011.4,331c-2.3-2.3-2.3-6.2,0-8.5l7.1-7.1c2.3-2.3,6.2-2.3,8.5,0l1,1c2.4,2.3,2.4,6.2,0,8.5
					l-11.3,11.3L6011.4,331z M6025.2,344.8l11.3-11.3c2.3-2.3,6.2-2.3,8.5,0l1,1c2.4,2.3,2.4,6.2,0,8.5l-11.3,11.3L6025.2,344.8z
					 M6052.9,372.5l-9.6-9.6l11.3-11.3c2.3-2.3,6.2-2.3,8.5,0l1,1c2.4,2.3,2.4,6.2,0,8.5L6052.9,372.5z M6082.2,379.2l-7.1,7.1
					c-2.3,2.3-6.2,2.3-8.5,0l-5.3-5.3l11.3-11.3c2.3-2.3,6.2-2.3,8.5,0l1,1C6084.6,373,6084.6,376.9,6082.2,379.2z M6178.6,343.1
					l-1,1c-2.3,2.3-6.2,2.3-8.5,0l-15.6-15.6l-8.5,8.5l15.6,15.6c2.4,2.3,2.4,6.2,0,8.5l-1,1c-2.3,2.3-6.2,2.3-8.5,0l-15.6-15.6
					l-8.5,8.5l15.6,15.6c2.3,2.3,2.3,6.2,0,8.5l-1,1c-2.3,2.3-6.2,2.3-8.5,0l-15.6-15.6l-8.5,8.5l15.6,15.6c2.3,2.3,2.3,6.2,0,8.5
					l-1,1c-2.3,2.3-6.2,2.3-8.5,0l-19.3-19.3c1.3-5.9-0.2-12.3-4.8-16.8l-1-1c-3.2-3.2-7.5-4.8-11.8-5c-0.2-4.4-1.9-8.7-5.2-12l-1-1
					c-3.2-3.2-7.5-4.8-11.8-5c-0.2-4.4-1.9-8.7-5.2-12l-1-1c-3.2-3.2-7.5-4.8-11.8-5c-0.2-4.4-1.9-8.7-5.2-12l-1-1
					c-6.4-6.4-17.1-6.7-24.1-1.2l-10.9-14.5l53.8-53.8l21.9,8.2l-28.7,25.1c0,0-0.1,0.1-0.1,0.1c-1.1,1-2.1,2-2.9,3.2
					c-0.4,0.5-0.6,1-0.9,1.5c-0.5,0.7-0.9,1.4-1.2,2.2c-0.3,0.7-0.6,1.3-0.8,2c-0.2,0.7-0.4,1.3-0.6,2c-0.2,0.7-0.3,1.5-0.4,2.2
					c-0.1,0.7-0.1,1.5-0.2,2.2c0,0.5-0.1,1-0.1,1.6c0,0.2,0.1,0.3,0.1,0.5c0.1,1.4,0.3,2.8,0.7,4.2c0.1,0.4,0.3,0.7,0.4,1
					c0.3,1.1,0.8,2.1,1.3,3.2c0.2,0.4,0.5,0.8,0.8,1.3c0.4,0.6,0.7,1.2,1.1,1.8c0.2,0.3,0.5,0.5,0.7,0.7c0.4,0.5,0.8,0.9,1.2,1.3
					c0.6,0.7,1.3,1.3,2,1.8c0.3,0.2,0.5,0.5,0.8,0.8c0.4,0.3,0.9,0.5,1.3,0.8c0.2,0.1,0.4,0.3,0.6,0.4c3.5,2,7.5,2.9,11.6,2.7
					c0.7,0,1.3-0.1,2-0.2c0.5-0.1,1-0.2,1.5-0.3c0.8-0.2,1.6-0.4,2.4-0.7c0.4-0.1,0.7-0.3,1-0.4c0.8-0.3,1.6-0.7,2.4-1.1
					c0.6-0.3,1.2-0.7,1.7-1.1c0.4-0.3,0.8-0.5,1.2-0.8l0.3-0.2l16.6-13.3l16.1-5.4h14.9l34.1,28.4l21.6,21.6
					C6181,336.9,6181,340.7,6178.6,343.1z M6182.2,321.1l-10.7-10.7l0,0l-6.4-6.4l-36.2-30.1c-1.1-0.9-2.4-1.4-3.9-1.4h-18.1
					c-0.6,0-1.3,0.1-1.9,0.3l-18.1,6c-0.7,0.2-1.3,0.6-1.9,1l-17.5,14c-1.7,1.3-3.7,2.1-5.7,2.2c-0.1,0-0.1,0-0.2,0
					c-0.8,0-1.5-0.1-2.2-0.2c-0.3-0.1-0.6-0.1-0.9-0.2c-0.7-0.2-1.4-0.5-2-1c-0.3-0.2-0.6-0.4-0.8-0.6c-0.3-0.2-0.6-0.5-0.8-0.8
					c-0.2-0.2-0.4-0.4-0.5-0.6s-0.3-0.4-0.5-0.7c-1.3-1.8-1.8-3.9-1.6-6c0-0.1,0-0.3,0-0.4c0.1-1,0.4-2,0.9-3
					c0.1-0.1,0.1-0.2,0.2-0.4c0.5-0.9,1.2-1.8,2-2.6l35.8-31.3h21.8c1.1,0,2.2-0.3,3.1-0.9l26.1-15.7l59.5,59.5L6182.2,321.1z
					 M6209.5,282.1l-57.8-57.8l27.6-27.6l57.8,57.8L6209.5,282.1z"/>
			</g>
		</g>
		<g>
			<g>
				<path class="st0" d="M6171.6,69.4c-15.6-15.6-41.1-15.6-56.7,0l-13.8,13.8l-13.8-13.8c-15.6-15.6-41.1-15.6-56.7,0
					s-15.6,41.1,0,56.7l66.3,66.3c1.2,1.2,2.7,1.8,4.3,1.8s3.1-0.6,4.3-1.8l66.3-66.3C6187.2,110.5,6187.2,85.1,6171.6,69.4z
					 M6163.1,117.6l-62,62l-62-62c-10.9-10.9-10.9-28.7,0-39.7c5.5-5.5,12.7-8.2,19.8-8.2s14.4,2.7,19.8,8.2l18.1,18.1
					c2.4,2.4,6.2,2.4,8.5,0l18.1-18.1c10.9-10.9,28.7-10.9,39.7,0C6174,88.9,6174,106.7,6163.1,117.6z"/>
			</g>
		</g>
		<g>
			<g>
				<path class="st0" d="M5942.8,148.9c-2,3.6-3.9,7.4-5.7,11.1l10.9,5.1c1.6-3.5,3.4-7,5.3-10.4L5942.8,148.9z"/>
			</g>
		</g>
		<g>
			<g>
				<path class="st0" d="M5956.4,128c-2.5,3.3-4.9,6.7-7.1,10.2l10.1,6.5c2.1-3.2,4.3-6.4,6.7-9.5L5956.4,128z"/>
			</g>
		</g>
		<g>
			<g>
				<path class="st0" d="M5925,195.3c-0.9,4-1.8,8.1-2.4,12.2l11.9,1.9c0.6-3.8,1.4-7.7,2.2-11.4L5925,195.3z"/>
			</g>
		</g>
		<g>
			<g>
				<path class="st0" d="M5932.3,171.5c-1.5,3.9-2.9,7.8-4.1,11.8l11.5,3.5c1.1-3.7,2.4-7.4,3.8-11L5932.3,171.5z"/>
			</g>
		</g>
		<g>
			<g>
				<path class="st0" d="M5949.9,311.3l-10.8,5.4c1.8,3.7,3.8,7.4,5.9,11l10.4-6.1C5953.4,318.2,5951.6,314.8,5949.9,311.3z"/>
			</g>
		</g>
		<g>
			<g>
				<path class="st0" d="M5991.4,92.7c-3.3,2.5-6.5,5.2-9.6,7.9l8,9c2.9-2.5,5.9-5,9-7.4L5991.4,92.7z"/>
			</g>
		</g>
		<g>
			<g>
				<path class="st0" d="M5972.7,109.2c-2.9,2.9-5.8,6-8.5,9.1l9.1,7.9c2.5-2.9,5.2-5.8,7.9-8.5L5972.7,109.2z"/>
			</g>
		</g>
		<g>
			<g>
				<path class="st0" d="M5921,219.9c-0.4,4.1-0.6,8.3-0.7,12.4l12.1,0.3c0.1-3.9,0.3-7.8,0.6-11.6L5921,219.9z"/>
			</g>
		</g>
		<g>
			<g>
				<path class="st0" d="M5935.2,267.3l-11.9,2.2c0.7,4,1.7,8.1,2.7,12.2l11.7-3C5936.7,274.9,5935.9,271.1,5935.2,267.3z"/>
			</g>
		</g>
		<g>
			<g>
				<path class="st0" d="M5932.5,244.2l-12,0.5c0.2,4.1,0.5,8.3,1,12.4l12-1.4C5933,252,5932.7,248.1,5932.5,244.2z"/>
			</g>
		</g>
		<g>
			<g>
				<path class="st0" d="M5941,289.8l-11.4,3.8c1.3,3.9,2.8,7.8,4.4,11.7l11.1-4.6C5943.6,297.2,5942.2,293.5,5941,289.8z"/>
			</g>
		</g>
		<g>
			<g>
				<path class="st0" d="M5976,349.6l-8.9,8.1c2.8,3.1,5.7,6.1,8.7,8.9l8.3-8.7C5981.4,355.3,5978.6,352.5,5976,349.6z"/>
			</g>
		</g>
		<g>
			<g>
				<path class="st0" d="M6032.1,390.4l-4.9,11c3.8,1.7,7.7,3.3,11.6,4.7l4.2-11.3C6039.2,393.4,6035.6,392,6032.1,390.4z"/>
			</g>
		</g>
		<g>
			<g>
				<path class="st0" d="M5992.8,365.8l-7.7,9.2c3.2,2.7,6.5,5.2,9.8,7.7l7.1-9.7C5998.8,370.6,5995.7,368.2,5992.8,365.8z"/>
			</g>
		</g>
		<g>
			<g>
				<path class="st0" d="M6011.6,379.4l-6.4,10.2c3.5,2.2,7.2,4.3,10.8,6.3l5.7-10.6C6018.3,383.4,6014.9,381.5,6011.6,379.4z"/>
			</g>
		</g>
		<g>
			<g>
				<path class="st0" d="M5961.6,331.4l-10,6.8c2.3,3.4,4.8,6.8,7.4,10.1l9.5-7.5C5966.1,337.7,5963.8,334.6,5961.6,331.4z"/>
			</g>
		</g>
		<g>
			<g>
				<path class="st0" d="M6208.9,366.1c-3,2.5-6.1,4.9-9.2,7.1l7.1,9.8c3.3-2.4,6.7-5,9.8-7.6L6208.9,366.1z"/>
			</g>
		</g>
		<g>
			<g>
				<path class="st0" d="M6211.2,93l-7.4,9.5c3.1,2.4,6.1,4.9,9,7.4l8-9C6217.7,98.2,6214.5,95.6,6211.2,93z"/>
			</g>
		</g>
		<g>
			<g>
				<path class="st0" d="M6225.8,350c-2.6,2.9-5.4,5.7-8.1,8.3l8.3,8.7c3-2.8,5.9-5.8,8.7-8.9L6225.8,350z"/>
			</g>
		</g>
		<g>
			<g>
				<path class="st0" d="M6240.2,331.8c-2.2,3.2-4.5,6.3-6.9,9.4l9.4,7.5c2.6-3.3,5.1-6.6,7.4-10L6240.2,331.8z"/>
			</g>
		</g>
		<g>
			<g>
				<path class="st0" d="M6169.6,390.6c-3.5,1.6-7.2,3-10.8,4.4l4.1,11.3c3.9-1.4,7.8-3,11.6-4.7L6169.6,390.6z"/>
			</g>
		</g>
		<g>
			<g>
				<path class="st0" d="M6190.1,379.7c-3.3,2.1-6.7,4-10.1,5.8l5.6,10.7c3.6-1.9,7.3-4,10.8-6.2L6190.1,379.7z"/>
			</g>
		</g>
		<g>
			<g>
				<path class="st0" d="M6246.1,128.4l-9.7,7.2c2.3,3.1,4.5,6.3,6.6,9.6l10.1-6.5C6250.9,135.2,6248.5,131.7,6246.1,128.4z"/>
			</g>
		</g>
		<g>
			<g>
				<path class="st0" d="M6270,172l-11.3,4.3c1.4,3.6,2.6,7.3,3.8,11l11.5-3.5C6272.8,179.8,6271.5,175.8,6270,172z"/>
			</g>
		</g>
		<g>
			<g>
				<path class="st0" d="M6252,311.7c-1.7,3.5-3.6,6.9-5.6,10.2l10.4,6.1c2.1-3.6,4.1-7.2,6-11L6252,311.7z"/>
			</g>
		</g>
		<g>
			<g>
				<path class="st0" d="M6259.5,149.4l-10.6,5.8c1.9,3.4,3.6,6.9,5.3,10.4l10.9-5.1C6263.4,156.8,6261.5,153,6259.5,149.4z"/>
			</g>
		</g>
		<g>
			<g>
				<path class="st0" d="M6229.8,109.5l-8.6,8.5c2.7,2.7,5.4,5.6,7.9,8.6l9.1-7.9C6235.6,115.6,6232.7,112.5,6229.8,109.5z"/>
			</g>
		</g>
		<g>
			<g>
				<path class="st0" d="M6281.1,220.4l-12,1c0.3,3.8,0.5,7.7,0.6,11.6l12.1-0.2C6281.7,228.7,6281.5,224.5,6281.1,220.4z"/>
			</g>
		</g>
		<g>
			<g>
				<path class="st0" d="M6277.2,195.8l-11.7,2.7c0.9,3.8,1.6,7.6,2.2,11.4l11.9-1.9C6279,203.9,6278.2,199.8,6277.2,195.8z"/>
			</g>
		</g>
		<g>
			<g>
				<path class="st0" d="M6261,290.3c-1.2,3.7-2.6,7.3-4.1,10.9l11.1,4.6c1.6-3.8,3.1-7.8,4.4-11.7L6261,290.3z"/>
			</g>
		</g>
		<g>
			<g>
				<path class="st0" d="M6269.6,244.7c-0.2,3.9-0.5,7.8-1,11.6l12,1.4c0.5-4.1,0.8-8.3,1-12.4L6269.6,244.7z"/>
			</g>
		</g>
		<g>
			<g>
				<path class="st0" d="M6266.8,267.8c-0.7,3.8-1.6,7.6-2.5,11.3l11.7,3c1-4,2-8.1,2.7-12.2L6266.8,267.8z"/>
			</g>
		</g>
	</g>
	<g>
		<g>
			<g>
				<path class="st0" d="M7774.9,115.3c-8-2.4-9.4-3.6-9.4-7.6c0.1-4.1,3.5-7.4,7.6-7.3c4.1-0.1,7.5,3.2,7.6,7.3h12.2
					c-0.1-10.9-9.1-19.7-20-19.5c-10.7,0.1-19.4,8.8-19.5,19.5c0,13.7,10.8,17,18,19.2c8,2.4,9.4,3.6,9.4,7.6
					c-0.1,4.2-3.7,7.5-7.9,7.3c-4-0.1-7.2-3.3-7.3-7.3h-12.2c0.1,10.9,9.1,19.7,20,19.5c10.7-0.1,19.4-8.8,19.5-19.5
					C7792.9,120.8,7782,117.5,7774.9,115.3z"/>
			</g>
		</g>
		<g>
			<g>
				<path class="st0" d="M7894.7,228.8h-182.4c-3.4,0-6.1,2.7-6.1,6.1v176.3c0,3.4,2.7,6.1,6.1,6.1h182.4c3.4,0,6.1-2.7,6.1-6.1
					V234.9C7900.8,231.5,7898.1,228.8,7894.7,228.8z M7840,241h18.2v21.3c0,5-4.1,9.1-9.1,9.1c-5,0-9.1-4.1-9.1-9.1V241z
					 M7809.6,241h18.2v21.3c0,5-4.1,9.1-9.1,9.1c-5,0-9.1-4.1-9.1-9.1V241z M7779.2,241h18.2v21.3c0,5-4.1,9.1-9.1,9.1
					s-9.1-4.1-9.1-9.1V241z M7748.8,241h18.2v21.3c0,5-4.1,9.1-9.1,9.1c-5,0-9.1-4.1-9.1-9.1V241z M7718.4,241h18.2v21.3
					c0,5-4.1,9.1-9.1,9.1c-5,0-9.1-4.1-9.1-9.1V241L7718.4,241z M7779.2,405.1h-36.5v-60.8h36.5V405.1z M7888.6,405.1h-97.3v-66.9
					c0-3.4-2.7-6.1-6.1-6.1h-48.6c-3.4,0-6.1,2.7-6.1,6.1v66.9h-12.2V281.4c8.2,4,18,2.3,24.3-4.3c8.1,8.4,21.5,8.6,29.9,0.5
					c0.2-0.2,0.3-0.3,0.5-0.5c8.1,8.4,21.5,8.6,29.9,0.5c0.2-0.2,0.3-0.3,0.5-0.5c8.1,8.4,21.5,8.6,29.9,0.5
					c0.2-0.2,0.3-0.3,0.5-0.5c8.1,8.4,21.5,8.6,29.9,0.5c0.2-0.2,0.3-0.3,0.5-0.5c6.3,6.6,16.1,8.3,24.3,4.3V405.1L7888.6,405.1z
					 M7888.6,262.2c0,5-4.1,9.1-9.1,9.1s-9.1-4.1-9.1-9.1V241h18.2V262.2z"/>
			</g>
		</g>
		<g>
			<g>
				<path class="st0" d="M7668.7,277.4c-2.8,0-5.2,1.9-5.9,4.5l-5.2,19.8h-109.5c-3.4,0-6.1,2.7-6.1,6.1c0,0.5,0.1,1.1,0.2,1.6
					l16.3,60.8c0.7,2.7,3.1,4.5,5.9,4.5h11v7.2c-9.5,3.4-14.5,13.8-11.1,23.3s13.8,14.5,23.3,11.1c9.5-3.4,14.5-13.8,11.1-23.3
					c-1.8-5.2-5.9-9.3-11.1-11.1v-7.2h36.5v7.2c-9.5,3.4-14.5,13.8-11.1,23.3c3.4,9.5,13.8,14.5,23.3,11.1
					c9.5-3.4,14.5-13.8,11.1-23.3c-1.8-5.2-5.9-9.3-11.1-11.1v-7.2h9.7c2.8,0,5.2-1.8,5.9-4.5l21.5-80.6h20.7v-12.2H7668.7z
					 M7581.6,405.1c-3.4,0-6.1-2.7-6.1-6.1c0-3.4,2.7-6.1,6.1-6.1c3.4,0,6.1,2.7,6.1,6.1C7587.7,402.4,7584.9,405.1,7581.6,405.1z
					 M7630.2,405.1c-3.4,0-6.1-2.7-6.1-6.1c0-3.4,2.7-6.1,6.1-6.1c3.4,0,6.1,2.7,6.1,6.1C7636.3,402.4,7633.6,405.1,7630.2,405.1z
					 M7641.4,362.6h-72.2l-13.1-48.6h98.3L7641.4,362.6z"/>
			</g>
		</g>
		<g>
			<g>
				<path class="st0" d="M7878.2,181.9l-13.9,13.9v-76.5c0-3.4-2.7-6.1-6.1-6.1h-30.8c-3.3-30-30.4-51.6-60.4-48.3
					c-25.4,2.8-45.5,22.9-48.3,48.3h-49.3c-3.4-36.8-35.9-63.9-72.7-60.5c-36.8,3.4-63.9,35.9-60.5,72.7
					c3.4,36.8,35.9,63.9,72.7,60.5c32.1-2.9,57.6-28.4,60.5-60.5h49.3c3.3,30,30.4,51.6,60.4,48.3c25.4-2.8,45.5-22.9,48.3-48.3
					h24.7v70.4l-13.9-13.9l-8.6,8.6l24.3,24.3c2.4,2.4,6.2,2.4,8.6,0c0,0,0,0,0,0l24.3-24.3L7878.2,181.9z M7627.2,168.3
					c-15.3,7.7-33.3,7.7-48.6,0v-11.6c0-10.6,8.6-19.1,19.1-19.1h10.4c10.6,0,19.1,8.6,19.1,19.1L7627.2,168.3L7627.2,168.3z
					 M7584.6,107.2c0-10.1,8.2-18.2,18.2-18.2s18.2,8.2,18.2,18.2c0,10.1-8.2,18.2-18.2,18.2
					C7592.8,125.4,7584.6,117.3,7584.6,107.2z M7643.6,155.7c-1.4,1.5-2.8,3-4.3,4.3v-3.3c0-11.3-6.2-21.7-16.1-27.2
					c12.4-11.3,13.4-30.5,2.1-42.9s-30.5-13.4-42.9-2.1s-13.4,30.5-2.1,42.9c0.7,0.7,1.4,1.4,2.1,2.1c-9.9,5.5-16,15.9-16.1,27.1
					v3.3c-22.5-20.1-24.5-54.7-4.3-77.3c20.1-22.5,54.7-24.5,77.3-4.3C7661.9,98.6,7663.8,133.2,7643.6,155.7z M7773.1,161.9
					c-23.5,0-42.6-19.1-42.6-42.6s19.1-42.6,42.6-42.6c23.5,0,42.6,19.1,42.6,42.6C7815.6,142.9,7796.6,161.9,7773.1,161.9z"/>
			</g>
		</g>
		<g>
			<g>
				<path class="st0" d="M7607.2,200.2c-2.4-2.4-6.2-2.4-8.6,0c0,0,0,0,0,0l-24.3,24.3l8.6,8.6l13.9-13.9v70.4h12.2v-70.4l13.9,13.9
					l8.6-8.6L7607.2,200.2z"/>
			</g>
		</g>
		<g>
			<g>
				<path class="st0" d="M7870.4,295.7h-60.8c-3.4,0-6.1,2.7-6.1,6.1v42.6c0,3.4,2.7,6.1,6.1,6.1h60.8c3.4,0,6.1-2.7,6.1-6.1v-42.6
					C7876.5,298.4,7873.7,295.7,7870.4,295.7z M7864.3,338.2h-48.6v-30.4h48.6V338.2z"/>
			</g>
		</g>
	</g>
	<g>
		<path class="st0" d="M4656.9,57.9h-47.2c-3.3,0-5.9,2.6-5.9,5.9v11.8h-5.8l-40.2-17.2c-0.7-0.3-1.5-0.5-2.3-0.5h-62.1
			c-10.9,0-21.4,4.4-29.2,12.1l-48,48c-7.8,7.6-9.3,19.5-3.6,28.8c0.9,1.4,2,2.6,3.1,3.7c-4.3,7.8-6.6,16.5-6.6,25.3
			c-0.1,22.8,14.4,43.1,36,50.4c21.6,7.3,45.4,0.1,59.3-18c13.8-18.1,14.6-43,1.9-61.9h14.7c4.2,14.2,23.2,23.6,40.4,23.6
			c17.2,0,36.2-9.4,40.4-23.6h2v11.8c0,3.3,2.6,5.9,5.9,5.9h47.2c3.3,0,5.9-2.6,5.9-5.9V63.8C4662.8,60.6,4660.1,57.9,4656.9,57.9z
			 M4503.5,175.9c0,22.8-18.5,41.3-41.3,41.3c-22.8,0-41.3-18.5-41.3-41.3c0-8.4,2.5-16.6,7.3-23.4c7.5-10.9,19.7-17.5,32.8-17.9
			h1.1c0.7,0,1.5,0.1,2.2,0.1c4.1,7.3,11.9,11.7,20.3,11.7h6.4C4499,154.2,4503.5,164.8,4503.5,175.9z M4596.7,134.6
			c-3.3,0-5.9,2.6-5.9,5.9c0,8.9-14.6,17.7-29.5,17.7c-14.9,0-29.5-8.8-29.5-17.7c0-3.3-2.6-5.9-5.9-5.9h-41.3
			c-6.5,0-11.8-5.3-11.8-11.8c0-6.5,5.3-11.8,11.8-11.8h64.9V99.2h-64.9c-13,0-23.6,10.6-23.6,23.6h-0.1
			c-14.7,0.4-28.6,6.8-38.3,17.8c0-0.1-0.1-0.1-0.2-0.2c-2.6-4.6-1.7-10.4,2.1-14.1l48-48c5.5-5.5,13-8.6,20.8-8.6h60.8l40.2,17.2
			c0.7,0.3,1.5,0.5,2.3,0.5h7v47.2H4596.7z M4651,152.3h-35.4V69.7h35.4V152.3z"/>
		<path class="st0" d="M4545.7,300.9l-30.4-21.5v-32.7c0-3.3-2.6-5.9-5.9-5.9h-23.6c-3.3,0-5.9,2.6-5.9,5.9v7.7l-26.1-18.4
			c-2-1.4-4.8-1.4-6.8,0l-91.9,64.9c-7.4,5.3-9,15.6-3.7,22.9c5.3,7.4,15.6,9,22.9,3.7l11.2-8.2v80.8c0,6.5,5.3,11.8,11.8,11.8
			h106.2c6.5,0,11.8-5.3,11.8-11.8v-80.8l11.2,8.2c4.8,3.5,11,4.2,16.4,1.8c5.4-2.4,9.1-7.5,9.7-13.4
			C4553.2,310,4550.5,304.3,4545.7,300.9L4545.7,300.9z M4491.7,252.6h11.8v18.5l-11.8-8.3V252.6z M4420.9,400.1v-35.4h23.6v35.4
			H4420.9z M4503.5,400.1h-47.2v-41.3c0-3.3-2.6-5.9-5.9-5.9H4415c-3.3,0-5.9,2.6-5.9,5.9v41.3h-11.8v-89.4l53.1-38.9l53.1,38.9
			V400.1z M4540.1,316.9c-0.7,1.1-1.8,1.8-3.1,2c-1.2,0.2-2.5-0.1-3.5-0.8l-79.6-58.4c-2.1-1.5-4.9-1.5-7,0l-79.6,58.4
			c-1.3,1.1-3.2,1.4-4.8,0.7c-1.6-0.7-2.7-2.2-2.8-3.9c-0.1-1.7,0.7-3.4,2.2-4.3l88.5-62.5l88.5,62.5
			C4540.9,312,4541.5,314.8,4540.1,316.9z"/>
		<path class="st0" d="M4462.2,358.8v23.6c0,3.3,2.6,5.9,5.9,5.9h23.6c3.3,0,5.9-2.6,5.9-5.9v-23.6c0-3.3-2.6-5.9-5.9-5.9h-23.6
			C4464.8,352.9,4462.2,355.5,4462.2,358.8z M4474,364.7h11.8v11.8H4474V364.7z"/>
		<path class="st0" d="M4426.8,317.5c0,13,10.6,23.6,23.6,23.6c13,0,23.6-10.6,23.6-23.6s-10.6-23.6-23.6-23.6
			C4437.4,293.9,4426.8,304.5,4426.8,317.5z M4462.2,317.5c0,6.5-5.3,11.8-11.8,11.8c-6.5,0-11.8-5.3-11.8-11.8s5.3-11.8,11.8-11.8
			C4456.9,305.7,4462.2,311,4462.2,317.5z"/>
		<path class="st0" d="M4456.3,158.2h11.8c3.3,0,5.9,2.6,5.9,5.9h11.8c0-9.8-7.9-17.7-17.7-17.7v-5.9h-11.8v5.9
			c-9.8,0-17.7,7.9-17.7,17.7s7.9,17.7,17.7,17.7h11.8c3.3,0,5.9,2.6,5.9,5.9s-2.6,5.9-5.9,5.9h-11.8c-3.3,0-5.9-2.6-5.9-5.9h-11.8
			c0,9.8,7.9,17.7,17.7,17.7v5.9h11.8v-5.9c9.8,0,17.7-7.9,17.7-17.7s-7.9-17.7-17.7-17.7h-11.8c-3.3,0-5.9-2.6-5.9-5.9
			S4453,158.2,4456.3,158.2z"/>
		<path class="st0" d="M4639.2,305.7h-59c-6.5,0-11.8,5.3-11.8,11.8v11.8c0,0.5,0.1,1,0.2,1.6c-3.7,2.1-6,6-6.1,10.2v11.8
			c0,4.3,2.3,8.2,6.1,10.2c-0.1,0.5-0.1,1-0.2,1.6v11.8c0,0.5,0.1,1,0.2,1.6c-3.7,2.1-6,6-6.1,10.2v11.8c0,6.5,5.3,11.8,11.8,11.8
			h59c6.5,0,11.8-5.3,11.8-11.8v-11.8c0-0.5-0.1-1-0.2-1.6c3.7-2.1,6-6,6.1-10.2v-11.8c0-4.3-2.3-8.2-6.1-10.2
			c0.1-0.5,0.1-1,0.2-1.6v-11.8c0-0.5-0.1-1-0.2-1.6c3.7-2.1,6-6,6.1-10.2v-11.8C4651,311,4645.7,305.7,4639.2,305.7z M4580.2,317.5
			h59v11.8h-59V317.5z M4633.3,352.9h-59v-11.8h59V352.9z M4639.2,364.7v11.8h-59v-11.8H4639.2z M4633.3,400.1h-59v-11.8h59V400.1z"
			/>
	</g>
	<g>
		<g>
			<g>
				<path class="st0" d="M7030.6,198.5c-1.3-1.3-3-2-4.8-2s-3.6,0.7-4.9,2c-1.3,1.3-2,3.1-2,4.8c0,1.8,0.7,3.6,2,4.9
					c1.3,1.3,3,2,4.9,2c1.8,0,3.6-0.7,4.8-2c1.3-1.3,2-3,2-4.9C7032.6,201.6,7031.9,199.8,7030.6,198.5z"/>
			</g>
		</g>
		<g>
			<g>
				<path class="st0" d="M7058.9,196.5h-7.4c-3.8,0-6.9,3.1-6.9,6.9c0,3.8,3.1,6.9,6.9,6.9h7.4c10.3,0,18.6,8.4,18.6,18.6v66.9
					h-25.2v-30.7c0-6.5-3.3-12.4-8.7-15.9c-5.5-3.5-12.2-3.9-18.1-1.1l-30.8,14.5c-1.1-0.6-2.4-1.1-3.6-1.5v-50.9h8.9
					c3.8,0,6.9-3.1,6.9-6.9c0-3.8-3.1-6.9-6.9-6.9H6932c0.1-0.4,0.1-0.9,0.1-1.4v-21.1c4.8-1.5,8.2-5.9,8.2-11.2v-30.1
					c0-6.4-5.2-11.7-11.7-11.7h-23.1c1.7-3.4,2.7-7.2,2.7-11.2c0-10.3-5.9-19.2-15.5-23.1c-7.9-3.2-16.3-2.3-23.1,2.2
					c0.1-8.2-3.3-16.3-9.7-22.1c-11.2-10.2-28.2-10.2-39.5,0c-6.4,5.8-9.7,13.8-9.7,22c-6.8-4.4-15.1-5.3-22.9-2.1
					c-9.6,3.9-15.5,12.8-15.5,23.1c0,4,1,7.8,2.7,11.2h-23.3c-6.4,0-11.7,5.2-11.7,11.7v30.1c0,5.2,3.5,9.7,8.2,11.2v229.6
					c0,3.8,3.1,6.9,6.9,6.9h170.1c0.1,0,0.1,0,0.2,0h133.5c17.8,0,32.3-14.5,32.3-32.3V228.9C7091.3,211,7076.8,196.5,7058.9,196.5z
					 M7003.8,273.5l27.7-13c2.3-1.1,4.2-0.1,4.9,0.3s2.4,1.8,2.4,4.3v40.8c0,2.5-1.7,3.9-2.4,4.3c-0.7,0.5-2.6,1.4-4.9,0.3
					l-27.7-13.1c0.6-1.8,0.9-3.8,0.9-5.8v-12.5C7004.6,277.2,7004.3,275.3,7003.8,273.5z M6994.5,308.3l19.3,9.1l16.1,28.4l-3.7-1
					c-1.8-0.5-3.6-0.2-5.2,0.7s-2.7,2.4-3.2,4.2l-0.9,3.3l-24.6-43.7C6993.1,308.9,6993.8,308.6,6994.5,308.3z M6977.7,279.1
					c0-2.8,2.3-5.1,5.1-5.1h3c2.8,0,5.1,2.3,5.1,5.1v12.5c0,2.8-2.3,5.1-5.1,5.1h-3c-2.8,0-5.1-2.3-5.1-5.1V279.1z M6977.4,210.2
					v50.9h0c-1.3,0.4-2.5,0.9-3.6,1.5l-30.9-14.6c-5.9-2.8-12.6-2.3-18.1,1.1c-5.5,3.5-8.7,9.4-8.7,15.9v30.7h-25.2v-66.9
					c0-10.3,8.4-18.6,18.6-18.6L6977.4,210.2L6977.4,210.2z M6964.9,297.4l-27.8,13.1c-2.3,1.1-4.2,0.1-4.9-0.3s-2.4-1.8-2.4-4.3
					v-40.8c0-2.5,1.7-3.9,2.4-4.3c0.7-0.5,2.6-1.4,4.9-0.3l27.7,13.1c-0.6,1.8-0.8,3.6-0.8,5.6v12.5
					C6964,293.6,6964.3,295.5,6964.9,297.4z M6944.9,322l23.6-11.1l-16.8,29.1l-1-3.6c-0.5-1.8-1.6-3.3-3.2-4.2
					c-1.6-0.9-3.5-1.2-5.2-0.7l-3.5,0.9L6944.9,322z M6762.4,271.2l96.7-96.7h54.7L6762,326.3v-54.7
					C6762.1,271.5,6762.3,271.4,6762.4,271.2z M6762,252.3v-77.7h77.7L6762,252.3z M6918.5,196.5h-7.3l7.2-7.2v5.8
					C6918.4,195.6,6918.4,196.1,6918.5,196.5z M6875.3,102c3.3-3.4,7.9-4.3,12.3-2.5c4.4,1.8,7,5.7,7,10.4c0,6.2-5,11.2-11.2,11.2
					h-26.8L6875.3,102z M6829.6,77.1c3-2.7,6.8-4.1,10.5-4.1c3.8,0,7.5,1.4,10.5,4.1c5.9,5.3,6.9,14.3,2.3,20.8l-12.9,18.2
					l-12.9-18.2C6822.7,91.3,6823.7,82.4,6829.6,77.1z M6793,99.5c1.5-0.6,2.9-0.9,4.4-0.9c2.9,0,5.7,1.2,7.9,3.4l18.8,19.1h-26.8
					c-6.2,0-11.2-5-11.2-11.2C6786,105.1,6788.6,101.3,6793,99.5z M6753.7,160.9v-26h172.9v26H6753.7z M6795.3,396.8l45.4-45.4
					c2.7-2.7,2.7-7,0-9.7c-2.7-2.7-7-2.7-9.7,0l-55.1,55.1H6762v-51.1l115.3-115.3v147.7c0,6.9,2.2,13.4,5.9,18.6H6795.3
					L6795.3,396.8z M7077.6,378.2c0,10.3-8.4,18.6-18.6,18.6h-67.8v-45c0-3.8-3.1-6.9-6.9-6.9s-6.9,3.1-6.9,6.9v45h-67.8
					c-10.3,0-18.6-8.4-18.6-18.6v-68.7h25.5c1,5,4,9.4,8.4,12.2c1.1,0.7,2.2,1.2,3.3,1.7l-9.6,16.5c-1.4,2.4-1.2,5.4,0.5,7.6
					c1.7,2.2,4.5,3.2,7.2,2.5l12.9-3.5l3.5,12.9c0.7,2.7,3,4.7,5.7,5c0.3,0,0.6,0.1,0.9,0.1c2.4,0,4.7-1.3,5.9-3.4l25.6-44.4
					l32.4,57.6c1.2,2.2,3.5,3.5,6,3.5c0.3,0,0.6,0,0.9-0.1c2.8-0.3,5-2.3,5.8-5l3.5-12.9l12.9,3.5c2.7,0.7,5.5-0.2,7.2-2.4
					c1.7-2.2,1.9-5.2,0.5-7.6l-16.2-28.6c3.4,0,6.8-1,9.9-2.9c4.4-2.8,7.4-7.2,8.4-12.2h25.5L7077.6,378.2L7077.6,378.2z"/>
			</g>
		</g>
		<g>
			<g>
				<path class="st0" d="M6860.2,322.2c-1.3-1.3-3-2-4.9-2c-1.8,0-3.6,0.7-4.9,2c-1.3,1.3-2,3-2,4.9s0.7,3.6,2,4.8
					c1.3,1.3,3,2,4.9,2c1.8,0,3.6-0.7,4.9-2c1.3-1.3,2-3,2-4.8C6862.2,325.2,6861.5,323.5,6860.2,322.2z"/>
			</g>
		</g>
		<g>
			<g>
				<path class="st0" d="M7064.5,78.4h-4.7c-3.8,0-6.9,3.1-6.9,6.9c0,3.8,3.1,6.9,6.9,6.9h4.7c3.8,0,6.9-3.1,6.9-6.9
					S7068.3,78.4,7064.5,78.4z"/>
			</g>
		</g>
		<g>
			<g>
				<path class="st0" d="M7031.3,78.4h-4.7c-3.8,0-6.9,3.1-6.9,6.9c0,3.8,3.1,6.9,6.9,6.9h4.7c3.8,0,6.9-3.1,6.9-6.9
					S7035,78.4,7031.3,78.4z"/>
			</g>
		</g>
		<g>
			<g>
				<path class="st0" d="M7045.5,92.7c-3.8,0-6.9,3.1-6.9,6.9v4.7c0,3.8,3.1,6.9,6.9,6.9s6.9-3.1,6.9-6.9v-4.7
					C7052.4,95.8,7049.3,92.7,7045.5,92.7z"/>
			</g>
		</g>
		<g>
			<g>
				<path class="st0" d="M7045.5,59.4c-3.8,0-6.9,3.1-6.9,6.9V71c0,3.8,3.1,6.9,6.9,6.9s6.9-3.1,6.9-6.9v-4.7
					C7052.4,62.5,7049.3,59.4,7045.5,59.4z"/>
			</g>
		</g>
		<g>
			<g>
				<path class="st0" d="M6998.5,148.4h-4.7c-3.8,0-6.9,3.1-6.9,6.9c0,3.8,3.1,6.9,6.9,6.9h4.7c3.8,0,6.9-3.1,6.9-6.9
					C7005.4,151.5,7002.3,148.4,6998.5,148.4z"/>
			</g>
		</g>
		<g>
			<g>
				<path class="st0" d="M6965.2,148.4h-4.7c-3.8,0-6.9,3.1-6.9,6.9c0,3.8,3.1,6.9,6.9,6.9h4.7c3.8,0,6.9-3.1,6.9-6.9
					C6972.1,151.5,6969,148.4,6965.2,148.4z"/>
			</g>
		</g>
		<g>
			<g>
				<path class="st0" d="M6979.5,162.7c-3.8,0-6.9,3.1-6.9,6.9v4.7c0,3.8,3.1,6.9,6.9,6.9c3.8,0,6.9-3.1,6.9-6.9v-4.7
					C6986.4,165.8,6983.3,162.7,6979.5,162.7z"/>
			</g>
		</g>
		<g>
			<g>
				<path class="st0" d="M6979.5,129.4c-3.8,0-6.9,3.1-6.9,6.9v4.7c0,3.8,3.1,6.9,6.9,6.9c3.8,0,6.9-3.1,6.9-6.9v-4.7
					C6986.4,132.5,6983.3,129.4,6979.5,129.4z"/>
			</g>
		</g>
	</g>
	<g>
		<g>
			<g>
				<path class="st0" d="M5360.8,70.4c-1-3.1-4.4-4.8-7.5-3.8l-2.1,0.7V65c0-3.3-2.7-5.9-5.9-5.9s-5.9,2.7-5.9,5.9v2.3l-2.1-0.7
					c-3.1-1-6.5,0.7-7.5,3.8c-1,3.1,0.7,6.5,3.8,7.5l2.2,0.7l-1.4,1.9c-2.8,3.9,0,9.4,4.8,9.4c3.5,0,4.8-2.4,6.1-4.3l1.3,1.8
					c1.9,2.7,5.6,3.3,8.3,1.4c2.7-1.9,3.3-5.6,1.4-8.3l-1.4-1.9l2.2-0.7C5360.2,76.9,5361.9,73.6,5360.8,70.4z"/>
			</g>
		</g>
		<g>
			<g>
				<path class="st0" d="M5419.6,134.3c-1-3.1-4.4-4.8-7.5-3.8l-2.1,0.7v-2.3c0-3.3-2.7-5.9-5.9-5.9c-3.3,0-5.9,2.7-5.9,5.9v2.3
					l-2.1-0.7c-3.1-1-6.5,0.7-7.5,3.8c-1,3.1,0.7,6.5,3.8,7.5l2.2,0.7l-1.4,1.9c-1.9,2.7-1.3,6.4,1.4,8.3c2.7,1.9,6.4,1.3,8.3-1.4
					l1.3-1.8c1.2,1.7,2.6,4.3,6.1,4.3c4.8,0,7.7-5.5,4.8-9.4l-1.4-1.9l2.2-0.7C5419,140.8,5420.7,137.4,5419.6,134.3z"/>
			</g>
		</g>
		<g>
			<g>
				<circle class="st0" cx="5340.2" cy="120.5" r="5.9"/>
			</g>
		</g>
		<g>
			<g>
				<circle class="st0" cx="5435.4" cy="216.8" r="5.9"/>
			</g>
		</g>
		<g>
			<g>
				<circle class="st0" cx="5373.5" cy="171.3" r="5.9"/>
			</g>
		</g>
		<g>
			<g>
				<circle class="st0" cx="5437.8" cy="93.6" r="5.9"/>
			</g>
		</g>
		<g>
			<g>
				<path class="st0" d="M5327.9,134.6c-3.1-3.8-7.5-4.2-7.5-4.2c-3.4-0.5-6.3,1.9-6.7,5c-0.5,3.3,1.8,6.3,5,6.7l-10.6,10.3
					c-1.4,1.4-2,3.3-1.7,5.3l2.5,14.6c0,0,0,0,0,0c-17.5-9.2-14.4-9.1-31.7,0h0c0,0,0,0,0,0l2.5-14.6c0.3-1.9-0.3-3.9-1.7-5.3
					l-10.6-10.3l14.7-2.1c1.9-0.3,3.6-1.5,4.5-3.3l6.6-13.3l2.6,5.2c1,2,3.1,3.3,5.3,3.3c4.4,0,7.3-4.6,5.3-8.6l-2.6-5.2
					c-4.4-8.9-17.1-8.7-21.3,0l-5.2,10.5c-11.8,1.7-15.5,1.5-19.1,5.9c-1.8,2.2-2.7,4.8-2.7,7.6c0,6.2,3.6,8.4,12,16.6l-2,11.5
					c-0.1,0.7-0.2,1.4-0.2,2c0,3.2,1.3,6.3,3.6,8.5c2.3,2.2,5.3,3.4,8.3,3.4c3.7,0,5-1.1,15.9-6.8h0l10.3,5.4
					c7.9,4.2,17.5-1.6,17.4-10.5c0-0.7-0.1-1.4-0.2-2l-2-11.5l8.4-8.2C5331.5,146.4,5331.8,139.4,5327.9,134.6z"/>
			</g>
		</g>
		<g>
			<g>
				<path class="st0" d="M5466.3,240.3h-79.2l2.8-2.8c7.9-7.7,3.6-21.3-7.4-22.8l-15.3-2.2l-6.8-13.8c-4.9-10-19.1-9.9-24,0
					l-6.8,13.8l-15.3,2.2c-11,1.6-15.4,15.1-7.4,22.8l2.8,2.8h-21.3c0.3-3.4-0.8-7-3.4-9.6l-33.6-33.6c-4.6-4.6-12.2-4.6-16.8,0
					c-11.5,11.5-14.9,14.9-20.7,20.7l-22.8-22.8c-5.6-5.6-13.4-7.7-21.1-5.6c-7.6,2-13.4,7.8-15.4,15.4l-11.9,44.5
					c-7.1,3-12.7,8.6-15.7,15.7l-44.5,11.9c-16.2,4.3-21.7,24.6-9.8,36.5l22.8,22.8c-11.7,11.7-19.6,19.6-20.7,20.7
					c-4.6,4.6-4.6,12.2,0,16.8l33.6,33.6c2.3,2.3,5.4,3.5,8.4,3.5s6.1-1.2,8.4-3.5l155.1-155.1h180v140.8c0,3.3-2.7,5.9-5.9,5.9
					h-200.6c-3.3,0-5.9-2.7-5.9-5.9v-75.8c0-3.3-2.7-5.9-5.9-5.9c-3.3,0-5.9,2.7-5.9,5.9c0,0,0,0,0,0v75.8c0,4.8,1.9,9.2,5.2,12.6
					c3.4,3.4,7.9,5.2,12.6,5.2h200.6c9.8,0,17.8-7.9,17.8-17.8V246.2C5472.3,242.9,5469.6,240.3,5466.3,240.3z M5166.1,207.8
					c2-7.4,11.2-9.8,16.6-4.4l22.8,22.8c-8.2,8.2-17.6,17.6-27.5,27.5l7.2-26.8c0.9-3.2-1-6.4-4.2-7.3c-3.2-0.9-6.4,1-7.3,4.2
					l-6.9,25.8c-3.5-1.6-7.3-2.5-11.1-2.7L5166.1,207.8z M5149.3,259.4c6.4-1.9,13.4-0.1,18,4.9c-8.3,8.3-16.9,16.9-25.2,25.2
					C5132,280,5136.2,263.3,5149.3,259.4z M5081.1,304.9c-2.5-2.5-3.5-6.1-2.6-9.6c0.9-3.5,3.5-6.1,7-7l39.1-10.5
					c0.2,3.8,1.1,7.6,2.7,11.1l-25.8,6.9c-3.2,0.8-5.1,4.1-4.2,7.3c0.9,3.2,4.1,5.1,7.3,4.2l26.8-7.2c-9.9,9.9-19.3,19.3-27.5,27.5
					L5081.1,304.9z M5116.8,398.9l-33.6-33.6c1.3-1.3,10.9-10.9,24.9-24.9c0,0,0,0,0,0l0,0c10.9-10.9,96.9-96.9,110-110l0,0
					c10.4-10.4-3.1,3.1,24.9-24.9l33.6,33.6L5116.8,398.9z M5381.7,229l-11.6,11.3h-43.4c-12.4-12.1-12.3-11.6-11.9-12.8
					c0.4-1.2-0.2-0.8,19.6-3.7c1.9-0.3,3.6-1.5,4.5-3.3c8.9-18,8.3-17.5,9.6-17.5c1.3,0,0.7-0.5,9.6,17.5c0.9,1.8,2.5,3,4.5,3.3
					l18.4,2.7C5382.1,226.6,5382.6,228.1,5381.7,229z"/>
			</g>
		</g>
	</g>
</g>
<g id="Capa_2">
</g>
</svg>
