<?xml version="1.0" encoding="utf-8"?>
<!-- Generator: Adobe Illustrator 23.0.1, SVG Export Plug-In . SVG Version: 6.00 Build 0)  -->
<svg version="1.1" id="Capa_1" xmlns="http://www.w3.org/2000/svg" xmlns:xlink="http://www.w3.org/1999/xlink" x="0px" y="0px"
	 viewBox="0 0 8192 472.9" style="enable-background:new 0 0 8192 472.9;" xml:space="preserve">
<style type="text/css">
	.st0{fill:#2D4B59;}
</style>
<title>icon-chart</title>
<g id="surface1">
	<path class="st0" d="M1752.8,376.9h153v-11.8h-153c-9.8,0-17.7-7.9-17.7-17.7l0,0v-259c0-9.8,7.9-17.7,17.7-17.7h259
		c9.8,0,17.7,7.9,17.7,17.7v135.4h11.8V88.5c0-16.2-13.1-29.5-29.5-29.5h-259.1c-16.2,0-29.4,13.1-29.5,29.5v259
		C1723.4,363.7,1736.6,376.9,1752.8,376.9z"/>
	<path class="st0" d="M1747,82.6h11.8v11.8H1747V82.6z"/>
	<path class="st0" d="M1770.5,82.6h11.8v11.8h-11.8V82.6z"/>
	<path class="st0" d="M1794,82.6h11.8v11.8H1794V82.6z"/>
	<path class="st0" d="M1747,106.2h270.7v11.8H1747V106.2z"/>
	<path class="st0" d="M1807.6,131.5l-14.9,14.9c-13.6-9.1-31.9-5.4-40.9,8.2s-5.4,31.9,8.2,40.9c13.6,9.1,31.9,5.4,40.9-8.2
		c6.5-9.8,6.6-22.7,0.1-32.6l14.9-14.9L1807.6,131.5z M1776.4,188.6c-9.8-0.5-17.2-8.9-16.6-18.7c0.5-8.9,7.7-16.1,16.6-16.6
		c2.6,0,5.2,0.6,7.5,1.8l-11.7,11.7l8.3,8.3l11.8-11.7c1.2,2.4,1.8,4.9,1.8,7.5C1794,180.7,1786.1,188.6,1776.4,188.6L1776.4,188.6z
		"/>
	<path class="st0" d="M1823.5,153.2h100V165h-100V153.2z"/>
	<path class="st0" d="M1823.5,176.8h41.2v11.8h-41.2V176.8z"/>
	<path class="st0" d="M1876.4,176.8h82.4v11.8h-82.4V176.8z"/>
	<path class="st0" d="M1935.3,153.2h58.9V165h-58.9V153.2z"/>
	<path class="st0" d="M1807.6,202l-14.9,14.9c-13.6-9.1-31.9-5.4-40.9,8.2c-9,13.6-5.4,31.9,8.2,40.9c13.6,9.1,31.9,5.4,40.9-8.2
		c6.5-9.8,6.6-22.7,0.1-32.6l14.9-14.9L1807.6,202z M1776.4,259.2c-9.8-0.5-17.2-8.9-16.7-18.6c0.5-9,7.7-16.2,16.7-16.7
		c2.6,0,5.2,0.6,7.5,1.8l-11.7,11.7l8.3,8.3l11.8-11.7c1.2,2.4,1.8,4.9,1.8,7.5C1794,251.3,1786.1,259.2,1776.4,259.2z"/>
	<path class="st0" d="M1823.5,223.9h100v11.8h-100V223.9z"/>
	<path class="st0" d="M1823.5,247.4h41.2v11.8h-41.2V247.4z"/>
	<path class="st0" d="M1876.4,247.4h47.1v11.8h-47.1V247.4z"/>
	<path class="st0" d="M1935.3,223.9h23.5v11.8h-23.5V223.9z"/>
	<path class="st0" d="M1807.6,272.7l-14.9,14.9c-13.6-9-31.9-5.4-40.9,8.2s-5.4,31.9,8.2,40.9c13.6,9,31.9,5.4,40.9-8.2
		c6.5-9.8,6.6-22.7,0.1-32.6l14.9-14.9L1807.6,272.7z M1776.4,329.8c-9.8-0.5-17.2-8.9-16.7-18.6c0.5-9,7.7-16.2,16.7-16.7
		c2.6,0,5.2,0.6,7.5,1.8l-11.7,11.7l8.3,8.3l11.8-11.7c1.2,2.4,1.8,4.9,1.8,7.5C1794,321.9,1786.1,329.8,1776.4,329.8L1776.4,329.8z
		"/>
	<path class="st0" d="M1823.5,294.5h76.5v11.8h-76.5V294.5z"/>
	<path class="st0" d="M1823.5,318.1h41.2v11.8h-41.2V318.1z"/>
	<path class="st0" d="M1876.4,318.1h23.5v11.8h-23.5V318.1z"/>
	<path class="st0" d="M2000,412.3c48.8,0,88.3-39.5,88.4-88.3c0-48.8-39.5-88.3-88.3-88.4c-48.8,0-88.3,39.5-88.4,88.3l0,0
		C1911.7,372.7,1951.3,412.2,2000,412.3z M2000,247.4c42.3,0,76.5,34.3,76.5,76.5s-34.3,76.5-76.5,76.5s-76.5-34.3-76.5-76.5
		S1957.8,247.4,2000,247.4L2000,247.4z"/>
	<path class="st0" d="M1964.1,327.2l-10.5,5.2l11.8,23.5c0.8,1.7,2.5,2.8,4.3,3.2c0.3,0.1,0.6,0.1,0.9,0.1c1.5,0,3.1-0.6,4.2-1.7
		l70.6-70.7l-8.3-8.3l-64.9,64.9L1964.1,327.2z"/>
</g>
<g>
	<path class="st0" d="M2668.8,85.7c-1.2-2.9-4.5-4.3-7.5-3.1c-2.9,1.2-4.3,4.5-3.1,7.5c1.2,2.9,4.5,4.3,7.5,3.1
		c0.2-0.1,0.5-0.2,0.7-0.3C2668.8,91.3,2669.9,88.3,2668.8,85.7z"/>
	<path class="st0" d="M2707.6,85.7c-1.2-2.9-4.5-4.2-7.5-3.1c-2.9,1.2-4.2,4.5-3.1,7.5c1.2,2.9,4.5,4.2,7.5,3.1
		c0.2-0.1,0.5-0.2,0.8-0.4C2707.7,91.3,2708.7,88.3,2707.6,85.7z"/>
	<path class="st0" d="M2688.2,85.7c-1.2-2.9-4.5-4.3-7.5-3.2c-2.9,1.2-4.3,4.5-3.2,7.5c1.2,2.9,4.5,4.3,7.5,3.2
		c0.3-0.2,0.7-0.3,1-0.5C2688.4,91.1,2689.2,88.2,2688.2,85.7z"/>
	<g>
		<path class="st0" d="M2934.7,58.6h-278.4c-14.1,0-25.5,11.5-25.5,25.5v99c0.1,3.2,2.8,5.5,5.8,5.5c2.9-0.1,5.3-2.5,5.5-5.5v-69.6
			h167.8v73.4c0,3.2,2.5,5.7,5.6,5.7c1.3,0,2.5-0.4,3.5-1.2l71.3-55.2c2.5-1.9,2.9-5.5,1-7.9l0,0c-4.2-5.4-9-10.3-14.2-14.7h72
			v218.9c0,7.8-6.4,14.2-14.2,14.2h-163.2v-24.8c51.4,13.2,103.7-17.7,116.9-69.1c3.5-13.7,4-28,1.3-41.9c-0.5-3.1-3.4-5.2-6.5-4.7
			c-3.1,0.5-5.2,3.4-4.7,6.5c0,0.1,0,0.2,0.1,0.3c1,5.2,1.5,10.6,1.5,16c0,25.1-11.2,49.1-30.6,65.1l-46.2-64l62.4-48.5
			c3.2,4.8,6,9.9,8.2,15.3c1.2,2.8,4.6,4.2,7.5,2.9c2.8-1.2,4.1-4.4,3-7.2c-3.3-8.1-7.7-15.6-13.1-22.5c-1.9-2.5-5.5-2.9-7.9-1l0,0
			l-62.1,48.4v-78.7c0-3.2-2.5-5.6-5.6-5.6c-53-0.1-95.9,42.8-96,95.7c0,28.6,12.7,55.7,34.7,73.9v44h-14.2v-35.4
			c0-3.2-2.5-5.6-5.6-5.6h-26c-3.1,0-5.6,2.5-5.6,5.6v35.4h-14.6V201.9c0-3.1-2.5-5.6-5.6-5.6h-26c-3.2,0-5.6,2.5-5.6,5.6v206.9
			c0,3.2,2.5,5.6,5.6,5.6h26c3.1,0,5.6-2.5,5.6-5.6V358h14.6v50.8c0,3.1,2.5,5.6,5.6,5.6h26c3.2,0,5.6-2.5,5.6-5.6V358h14.2v50.8
			c0,3.2,2.5,5.6,5.6,5.6h26c3.2,0,5.6-2.5,5.6-5.6V358h163.2c14.1,0,25.5-11.5,25.5-25.5V84.1C2960.2,70,2948.7,58.6,2934.7,58.6z
			 M2642,403.2V207.5h14.7v195.6L2642,403.2L2642,403.2z M2693.9,403.2V317h14.8v86.2L2693.9,403.2z M2710.8,229
			c0.1-44.5,34.5-81.4,79-84.4V229c0,1.2,0.4,2.3,1.1,3.3l0,0l49.4,68.4c-20.5,12.8-45.6,16.3-68.9,9.5v-43.9c0-3.2-2.5-5.6-5.6-5.6
			h-26c-3.2,0-5.6,2.5-5.6,5.6v21.1C2719.1,271.6,2710.8,250.7,2710.8,229L2710.8,229z M2745.4,403.2V271.9h14.7v131.3H2745.4z
			 M2821.1,175.4v-72.7c22.1,1.4,42.8,11.5,57.5,28.1L2821.1,175.4z M2860.1,102.2c-13.8-7.2-29.1-10.9-44.6-10.9
			c-3.2,0-5.6,2.5-5.6,5.6v5.2h-167.8v-18c0-7.8,6.4-14.2,14.2-14.2h278.4c7.8,0,14.2,6.4,14.2,14.2v18.1H2860.1z"/>
		<path class="st0" d="M2612.3,234.6h-26c-3.2,0-5.6,2.5-5.6,5.6v168.6c0,3.2,2.5,5.6,5.6,5.6h26c3.1,0,5.6-2.5,5.6-5.6v-45.6
			c0.1-3.2-2.3-5.8-5.5-5.8c-3.2-0.1-5.8,2.3-5.8,5.5c0,0.2,0,0.3,0,0.4V403h-14.7V245.9h14.7v98.5c0.1,3.2,2.8,5.5,5.8,5.5
			c2.9-0.1,5.3-2.5,5.5-5.5V240.3C2618,237.1,2615.5,234.6,2612.3,234.6C2612.4,234.6,2612.3,234.6,2612.3,234.6z"/>
	</g>
	<path class="st0" d="M2938.8,322.2h-60.4c-3.2,0-5.7,2.5-5.7,5.7c0,3.2,2.5,5.7,5.7,5.7h60.4c3.2,0,5.7-2.5,5.7-5.7
		C2944.5,324.8,2942,322.2,2938.8,322.2L2938.8,322.2z"/>
	<path class="st0" d="M2938.8,298.1h-42.2c-3.2-0.2-5.8,2.3-5.9,5.5c-0.2,3.2,2.3,5.8,5.5,5.9c0.2,0,0.3,0,0.4,0h42.2
		c3.2,0.2,5.8-2.3,5.9-5.5s-2.3-5.8-5.5-5.9C2939.1,298.1,2939,298.1,2938.8,298.1z"/>
</g>
<g>
	<path class="st0" d="M3832.3,235.6c0-97-78.9-175.8-175.8-175.8c-30.2,0-60,7.8-86.3,22.7h-21.5V59.8h-34.1v72
		c-22.2,30.1-34.1,66.5-34.1,103.9c0,97,78.9,175.8,175.8,175.8c21.5,0,42.7-3.8,62.7-11.5c27.4,17.5,63,14.8,87.6-6.4l-7.4-8.6
		c-26.1,22.5-65.5,19.6-88-6.5c-22.5-26.1-19.6-65.5,6.5-88c26.1-22.5,65.5-19.6,88,6.5c9.8,11.3,15.1,25.8,15.1,40.8
		c0.1,14.2-4.8,28.1-13.8,39.1l8.8,7.2c10.5-13.1,16.2-29.5,16.2-46.2c0-14-4-27.7-11.5-39.4C3828.3,278.3,3832.3,257,3832.3,235.6z
		 M3571.4,116.5h11.3V196h-11.3V116.5z M3548.7,93.8h11.3V196h-11.3V93.8z M3526,71.2h11.3V196H3526V71.2z M3650.7,400
		c-86.2-2.9-155.7-72.5-158.6-158.6h158.6V400z M3650.7,230h-158.6c0.8-27.3,8.6-54,22.5-77.5v54.8h124.8v-56.7h-22.7v-22.7H3594
		v-22.7h-22.7V94.9c24-14.5,51.4-22.7,79.4-23.6L3650.7,230z M3594,196v-56.7h11.3V196H3594z M3616.7,196v-34.1h11.4V196H3616.7z
		 M3820.7,230h-48.5l41.7-41.7C3818,201.8,3820.3,215.8,3820.7,230L3820.7,230z M3792.1,142.9l-63.4,63.4l8,8l61.5-61.5
		c4.5,7.5,8.2,15.5,11.5,23.6l-53.6,53.6h-35l7.3-7.3l-8-8.1l-15.4,15.4h-35l106.4-106.4C3782.2,129.6,3787.4,136.1,3792.1,142.9
		L3792.1,142.9z M3662.1,71.3c14.1,0.5,28.1,2.8,41.7,6.8l-41.7,41.7V71.3z M3662.1,187l68.9-69l-8-8l-60.9,61v-35l53.6-53.6
		c8.2,3.2,16.1,7,23.6,11.5l-9.2,9.2l8,8l11-10.9c6.8,4.7,13.4,9.9,19.4,15.6L3662.1,222V187z M3758.5,264
		c-40.7-0.1-73.7,32.8-73.7,73.5c0,20.6,8.5,40.2,23.7,54.2c-15,5-30.6,7.8-46.4,8.2V241.3h158.7c-0.5,15.8-3.3,31.4-8.3,46.4
		C3798.6,272.6,3779,264,3758.5,264z"/>
	
		<rect x="3536.6" y="299" transform="matrix(0.7071 -0.7071 0.7071 0.7071 834.7521 2624.908)" class="st0" width="98.7" height="11.6"/>
	<path class="st0" d="M3609.2,310.6c-9.6,0-17.5,7.8-17.5,17.5s7.8,17.5,17.5,17.5c9.6,0,17.5-7.8,17.5-17.5
		S3618.9,310.6,3609.2,310.6z M3609.2,333.9c-3.2,0-5.8-2.6-5.8-5.8c0-3.2,2.6-5.8,5.8-5.8c3.2,0,5.8,2.6,5.8,5.8l0,0
		C3615,331.3,3612.4,333.9,3609.2,333.9z"/>
	<path class="st0" d="M3562.7,264.1c-9.6,0-17.5,7.8-17.5,17.5c0,9.6,7.8,17.5,17.5,17.5c9.6,0,17.5-7.8,17.5-17.5
		C3580.1,271.9,3572.3,264.1,3562.7,264.1z M3562.7,287.3c-3.2,0-5.8-2.6-5.8-5.8c0-3.2,2.6-5.8,5.8-5.8c3.2,0,5.8,2.6,5.8,5.8l0,0
		C3568.5,284.7,3565.9,287.3,3562.7,287.3L3562.7,287.3z"/>
	<path class="st0" d="M3760.4,333.9c-6.5,0-11.6-5.2-11.6-11.6c0-6.5,5.2-11.6,11.6-11.6c6.5,0,11.6,5.2,11.6,11.6h11.6
		c0-10.6-7.2-19.8-17.5-22.5v-12.5h-11.6v12.5c-12.5,3.2-19.9,15.8-16.8,28.2c2.6,10.3,11.9,17.5,22.5,17.5
		c6.5,0,11.6,5.2,11.6,11.6c0,6.5-5.2,11.6-11.6,11.6c-6.4,0-11.6-5.2-11.6-11.6h-11.6c0,10.6,7.2,19.8,17.5,22.5V392h11.6v-12.5
		c12.5-3.2,19.9-15.8,16.8-28.2C3780.4,341.1,3771.1,333.9,3760.4,333.9L3760.4,333.9z"/>
	<rect x="3801.2" y="333.9" class="st0" width="11.6" height="11.6"/>
	<rect x="3708.1" y="333.9" class="st0" width="11.6" height="11.6"/>
</g>
<g>
	<path class="st0" d="M4435.4,136.1c-6.1,0-11-4.9-11-11c0-6.1,4.9-11,11-11c6.1,0,11,4.9,11,11l0,0h11c0-12.1-9.8-21.9-21.9-21.9
		c-12.1,0-21.9,9.8-21.9,21.9s9.8,21.9,21.9,21.9l0,0c6.1,0,11,4.9,11,11c0,6.1-4.9,11-11,11c-6.1,0-11-4.9-11-11l0,0h-10.9
		c0,12.1,9.8,21.9,21.9,21.9c12.1,0,21.9-9.8,21.9-21.9S4447.6,136.1,4435.4,136.1L4435.4,136.1z"/>
	<rect x="4430" y="92.2" class="st0" width="11" height="16.5"/>
	<rect x="4430" y="174.5" class="st0" width="11" height="16.5"/>
	<path class="st0" d="M4364.1,372v32.9h98.7V372H4364.1z M4451.9,393.9H4375V383h76.8V393.9z"/>
	<path class="st0" d="M4364.1,350.1V383h98.7v-32.9H4364.1z M4451.9,372H4375v-11h76.8V372z"/>
	<path class="st0" d="M4364.1,328.1V361h98.7v-32.9H4364.1z M4451.9,350.1H4375v-11h76.8V350.1z"/>
	<polygon class="st0" points="4506.7,372 4506.7,383 4561.6,383 4561.6,393.9 4484.8,393.9 4484.8,383 4495.8,383 4495.8,372 
		4473.8,372 4473.8,404.9 4572.5,404.9 4572.5,372 	"/>
	<polygon class="st0" points="4473.8,350.1 4473.8,377.4 4484.8,377.4 4484.8,361 4561.6,361 4561.6,377.4 4572.5,377.4 
		4572.5,350.1 	"/>
	<path class="st0" d="M4473.8,328.1V361h98.7v-32.9H4473.8z M4561.6,350.1h-76.8v-11h76.8V350.1z"/>
	<path class="st0" d="M4473.8,306.2v32.9h98.7v-32.9H4473.8z M4561.6,328.1h-76.8v-11h76.8V328.1z"/>
	<path class="st0" d="M4473.8,284.2v32.9h98.7v-32.9H4473.8z M4561.6,306.2h-76.8v-11h76.8V306.2z"/>
	<path class="st0" d="M4583.5,372v32.9h98.7V372H4583.5z M4671.2,393.9h-76.8V383h76.8V393.9z"/>
	<path class="st0" d="M4583.5,350.1V383h98.7v-32.9H4583.5z M4671.2,372h-76.8v-11h76.8V372z"/>
	<path class="st0" d="M4583.5,328.1V361h98.7v-32.9H4583.5z M4671.2,350.1h-76.8v-11h76.8V350.1z"/>
	<path class="st0" d="M4583.5,306.2v32.9h98.7v-32.9H4583.5z M4671.2,328.1h-76.8v-11h76.8V328.1z"/>
	<polygon class="st0" points="4660.3,284.2 4660.3,295.2 4671.2,295.2 4671.2,306.2 4594.5,306.2 4594.5,295.2 4649.3,295.2 
		4649.3,284.2 4583.5,284.2 4583.5,317.2 4682.2,317.2 4682.2,284.2 	"/>
	<polygon class="st0" points="4583.5,262.2 4583.5,289.7 4594.5,289.7 4594.5,273.2 4671.2,273.2 4671.2,289.7 4682.2,289.7 
		4682.2,262.2 	"/>
	<path class="st0" d="M4583.5,240.3v32.9h98.7v-32.9L4583.5,240.3L4583.5,240.3z M4671.2,262.2h-76.8v-10.9h76.8V262.2z"/>
	<path class="st0" d="M4621.9,64.9c-9.1-0.2-16.6,7-16.8,16.1s7,16.6,16.1,16.8c0.2,0,0.5,0,0.7,0h25.1l-80.7,80.7l-43.4-27.1
		l-156.6,123l6.8,8.6l150.6-118.3l44.3,27.7l105.7-105.7h-51.6c-3-0.1-5.4-2.7-5.3-5.7c0.1-2.8,2.4-5.2,5.3-5.3h71.3v71.3
		c-0.1,3-2.7,5.4-5.7,5.3c-2.8-0.1-5.2-2.4-5.3-5.3v-46.1l-110.7,110.7l-49-27.1l-139.8,112l6.8,8.5l134.3-107.4l49.8,27.7
		l97.8-97.8v19.7c0.2,9.1,7.7,16.3,16.8,16.1c8.8-0.2,15.9-7.3,16.1-16.1V64.8L4621.9,64.9z"/>
	<rect x="4386" y="136.1" class="st0" width="11" height="11"/>
	<rect x="4473.8" y="136.1" class="st0" width="11" height="11"/>
	<path class="st0" d="M4435.4,70.3c-39.4,0-71.3,31.9-71.3,71.3s31.9,71.3,71.3,71.3c39.4,0,71.3-31.9,71.3-71.3l0,0
		C4506.7,102.2,4474.8,70.3,4435.4,70.3z M4435.4,202c-33.3,0-60.3-27.1-60.3-60.4s27.1-60.3,60.4-60.3s60.3,27.1,60.3,60.4
		S4468.7,202,4435.4,202z"/>
</g>
<g id="surface1_1_">
	<path class="st0" d="M6112.6,376.9h153v-11.8h-153c-9.8,0-17.7-7.9-17.7-17.7l0,0v-259c0-9.8,7.9-17.7,17.7-17.7h259
		c9.8,0,17.7,7.9,17.7,17.7v135.4h11.8V88.5c0-16.2-13.1-29.5-29.5-29.5h-259.1c-16.2,0-29.4,13.1-29.5,29.5v259
		C6083.2,363.7,6096.3,376.9,6112.6,376.9z"/>
	<path class="st0" d="M6106.7,82.6h11.8v11.8h-11.8V82.6z"/>
	<path class="st0" d="M6130.2,82.6h11.8v11.8h-11.8V82.6z"/>
	<path class="st0" d="M6153.8,82.6h11.8v11.8h-11.8V82.6z"/>
	<path class="st0" d="M6106.7,106.2h270.7v11.8h-270.7L6106.7,106.2L6106.7,106.2z"/>
	<path class="st0" d="M6167.3,131.5l-14.9,14.9c-13.6-9.1-31.9-5.4-40.9,8.2c-9,13.6-5.4,31.9,8.2,40.9c13.6,9.1,31.9,5.4,40.9-8.2
		c6.5-9.8,6.6-22.7,0.1-32.6l14.9-14.9L6167.3,131.5z M6136.2,188.6c-9.8-0.5-17.2-8.9-16.6-18.7c0.5-8.9,7.7-16.1,16.6-16.6
		c2.6,0,5.2,0.6,7.5,1.8l-11.7,11.7l8.3,8.3l11.8-11.7c1.2,2.4,1.8,4.9,1.8,7.5C6153.8,180.7,6145.8,188.6,6136.2,188.6
		L6136.2,188.6z"/>
	<path class="st0" d="M6183.2,153.2h100V165h-100V153.2z"/>
	<path class="st0" d="M6183.2,176.8h41.2v11.8h-41.2V176.8z"/>
	<path class="st0" d="M6236.2,176.8h82.4v11.8h-82.4L6236.2,176.8L6236.2,176.8z"/>
	<path class="st0" d="M6295,153.2h58.9V165H6295V153.2z"/>
	<path class="st0" d="M6167.3,202l-14.9,14.9c-13.6-9.1-31.9-5.4-40.9,8.2c-9,13.6-5.4,31.9,8.2,40.9c13.6,9.1,31.9,5.4,40.9-8.2
		c6.5-9.8,6.6-22.7,0.1-32.6l14.9-14.9L6167.3,202z M6136.2,259.2c-9.8-0.5-17.2-8.9-16.7-18.6c0.5-9,7.7-16.2,16.7-16.7
		c2.6,0,5.2,0.6,7.5,1.8l-11.7,11.7l8.3,8.3l11.8-11.7c1.2,2.4,1.8,4.9,1.8,7.5C6153.8,251.3,6145.8,259.2,6136.2,259.2z"/>
	<path class="st0" d="M6183.2,223.9h100v11.8h-100V223.9z"/>
	<path class="st0" d="M6183.2,247.4h41.2v11.8h-41.2V247.4z"/>
	<path class="st0" d="M6236.2,247.4h47.1v11.8h-47.1V247.4z"/>
	<path class="st0" d="M6295,223.9h23.5v11.8H6295V223.9z"/>
	<path class="st0" d="M6167.3,272.7l-14.9,14.9c-13.6-9-31.9-5.4-40.9,8.2c-9,13.6-5.4,31.9,8.2,40.9c13.6,9,31.9,5.4,40.9-8.2
		c6.5-9.8,6.6-22.7,0.1-32.6l14.9-14.9L6167.3,272.7z M6136.2,329.8c-9.8-0.5-17.2-8.9-16.7-18.6c0.5-9,7.7-16.2,16.7-16.7
		c2.6,0,5.2,0.6,7.5,1.8L6132,308l8.3,8.3l11.8-11.7c1.2,2.4,1.8,4.9,1.8,7.5C6153.8,321.9,6145.8,329.8,6136.2,329.8L6136.2,329.8z
		"/>
	<path class="st0" d="M6183.2,294.5h76.5v11.8h-76.5V294.5z"/>
	<path class="st0" d="M6183.2,318.1h41.2v11.8h-41.2V318.1z"/>
	<path class="st0" d="M6236.2,318.1h23.5v11.8h-23.5V318.1z"/>
	<path class="st0" d="M6359.8,412.3c48.8,0,88.3-39.5,88.4-88.3c0-48.8-39.5-88.3-88.3-88.4c-48.8,0-88.3,39.5-88.4,88.3l0,0
		C6271.5,372.7,6311,412.2,6359.8,412.3z M6359.8,247.4c42.3,0,76.5,34.3,76.5,76.5s-34.3,76.5-76.5,76.5
		c-42.2,0-76.5-34.3-76.5-76.5S6317.6,247.4,6359.8,247.4L6359.8,247.4z"/>
	<path class="st0" d="M6323.9,327.2l-10.5,5.2l11.8,23.5c0.8,1.7,2.5,2.8,4.3,3.2c0.3,0.1,0.6,0.1,0.9,0.1c1.5,0,3.1-0.6,4.2-1.7
		l70.6-70.7l-8.3-8.3l-64.9,64.9L6323.9,327.2z"/>
</g>
<g>
	<path class="st0" d="M5569.1,380h-301.7l38.1-42.4c11.7,6.2,26.1,1.8,32.4-9.9c0.1-0.2,0.2-0.2,0.2-0.4l38.9,9.8
		c1.1,13.2,12.7,23,25.8,21.9c13.1-1.1,23-12.7,21.9-25.8c-0.5-6.3-3.5-12.2-8.4-16.3l31.8-75.8l22.6,57.6
		c-10.3,8.4-11.8,23.5-3.5,33.8c8.4,10.3,23.5,11.8,33.8,3.5c7.8-6.3,10.8-16.8,7.5-26.4l27.7-27.7c2.8-2.6,2.9-7.1,0.3-9.8
		c-2.6-2.8-7.1-2.9-9.8-0.3c-0.1,0.1-0.2,0.2-0.3,0.3l-26.1,26.1c-4.2-3.2-9.2-4.8-14.4-4.8c-0.8,0-1.5,0-2.2,0.1l-27.8-70.8
		l27.9-66.7c0.7,0.1,1.4,0.1,2.1,0.1c10.8,0,20.4-7.3,23.2-17.8h44c3.8-0.2,6.9-3.4,6.8-7.2c-0.2-3.7-3.1-6.6-6.8-6.8h-44.5
		c-4.3-12.5-18-19.1-30.5-14.8c-12.5,4.3-19.1,18-14.8,30.5c1.5,4.3,4.2,8.1,7.6,10.8l-22.3,53.2L5416,121c9.8-8.8,10.7-24,1.8-33.9
		s-24-10.7-33.9-1.8c-9.5,8.5-10.7,23.1-2.6,33l-57.6,87.2c-5.2-1.8-10.9-1.8-16.1,0.1l-49.4-65.1V69.2c0.2-3.8-2.9-7.1-6.8-7.2
		c-3.8-0.2-7.1,2.9-7.2,6.8c0,0.2,0,0.3,0,0.5v68.7h-11.6c-3.8,0.2-6.9,3.4-6.8,7.2c0.2,3.7,3.1,6.6,6.8,6.8h11.7V222h-11.7
		c-3.8,0-7,3.2-7,7s3.2,7,7,7h11.7v71.9h-11.7c-3.8,0.2-6.9,3.4-6.8,7.2c0.2,3.7,3.1,6.6,6.8,6.8h11.7v65.3c0,3.8,3.2,7,7,7h60.2
		v9.2c0,3.8,3.2,7,7,7s7-3.2,7-7l0,0v-9.2h70.2v9.2c0,3.8,3.2,7,7,7s7-3.2,7-7l0,0v-9.2h71.9v9.2c0.2,3.8,3.4,6.9,7.2,6.8
		c3.7-0.2,6.6-3.1,6.8-6.8v-9.2h73.7c3.8,0,7-3.2,7-7C5576.1,383.2,5573,380,5569.1,380L5569.1,380z M5485.9,307.3
		c5.5,0,10,4.5,10,10c0,5.5-4.5,10-10,10s-10-4.5-10-10C5475.9,311.8,5480.3,307.4,5485.9,307.3L5485.9,307.3z M5485.9,122
		c5.5,0,10,4.5,10,10s-4.5,10-10,10s-10-4.5-10-10C5475.9,126.5,5480.3,122,5485.9,122L5485.9,122z M5316.7,326.5
		c-5.5,0-10-4.5-10-10c0-5.5,4.5-10,10-10c5.5,0,10,4.5,10,10C5326.6,322.1,5322.2,326.5,5316.7,326.5L5316.7,326.5z M5400.8,345.3
		c-5.5,0-10-4.5-10-10c0-5.5,4.5-10,10-10c5.5,0,10,4.5,10,10l0,0C5410.8,340.8,5406.4,345.2,5400.8,345.3L5400.8,345.3z M5400,93.2
		c5.5,0,10,4.5,10,10s-4.5,10-10,10s-10-4.5-10-10C5390,97.6,5394.4,93.2,5400,93.2L5400,93.2L5400,93.2z M5315.9,218.1
		c5.5,0,10,4.5,10,10c0,5.5-4.5,10-10,10s-10-4.5-10-10l0,0C5305.9,222.6,5310.3,218.1,5315.9,218.1z M5258.2,163.6l38.3,50.4
		c-7.8,10.7-5.5,25.7,5.2,33.5c10.7,7.8,25.7,5.5,33.5-5.2c6.2-8.5,6.2-20.1-0.1-28.5l57.9-87.7c3.4,1,6.8,1.3,10.3,0.8l37.4,95.6
		l-37.2,88.9c-0.9-0.1-1.8-0.2-2.8-0.2c-8.7,0-16.7,4.7-20.9,12.3l-39.4-9.9c-1.6-13.1-13.5-22.5-26.7-20.9s-22.5,13.5-20.9,26.7
		c0.4,3,1.3,5.8,2.7,8.5l-37.4,41.5L5258.2,163.6L5258.2,163.6z"/>
	<path class="st0" d="M5560.1,247.4c-2.7-2.7-7.2-2.8-9.8,0l0,0l-5.5,5.5c-2.6,2.8-2.5,7.2,0.3,9.9c2.7,2.5,6.9,2.5,9.6,0l5.5-5.5
		C5562.8,254.6,5562.8,250.1,5560.1,247.4z"/>
</g>
<g>
	<path class="st0" d="M7028.5,85.7c-1.2-2.9-4.5-4.3-7.5-3.1c-2.9,1.2-4.3,4.5-3.1,7.5c1.2,2.9,4.5,4.3,7.5,3.1
		c0.2-0.1,0.5-0.2,0.7-0.3C7028.5,91.3,7029.6,88.3,7028.5,85.7z"/>
	<path class="st0" d="M7067.3,85.7c-1.2-2.9-4.5-4.2-7.5-3.1c-2.9,1.2-4.2,4.5-3.1,7.5c1.2,2.9,4.5,4.2,7.5,3.1
		c0.2-0.1,0.5-0.2,0.8-0.4C7067.3,91.3,7068.3,88.3,7067.3,85.7z"/>
	<path class="st0" d="M7047.9,85.7c-1.2-2.9-4.5-4.3-7.5-3.2s-4.3,4.5-3.2,7.5c1.2,2.9,4.5,4.3,7.5,3.2c0.3-0.2,0.7-0.3,1-0.5
		C7048,91.1,7048.9,88.2,7047.9,85.7z"/>
	<g>
		<path class="st0" d="M7294.3,58.6h-278.4c-14.1,0-25.5,11.5-25.5,25.5v99c0.1,3.2,2.8,5.5,5.8,5.5c2.9-0.1,5.3-2.5,5.5-5.5v-69.6
			h167.8v73.4c0,3.2,2.5,5.7,5.6,5.7c1.3,0,2.5-0.4,3.5-1.2l71.3-55.2c2.5-1.9,2.9-5.5,1-7.9l0,0c-4.2-5.4-9-10.3-14.2-14.7h72
			v218.9c0,7.8-6.4,14.2-14.2,14.2h-163.2v-24.8c51.4,13.2,103.7-17.7,116.9-69.1c3.5-13.7,4-28,1.3-41.9c-0.5-3.1-3.4-5.2-6.5-4.7
			c-3.1,0.5-5.2,3.4-4.7,6.5c0,0.1,0,0.2,0.1,0.3c1,5.2,1.5,10.6,1.5,16c0,25.1-11.2,49.1-30.6,65.1l-46.2-64l62.4-48.5
			c3.2,4.8,6,9.9,8.2,15.3c1.2,2.8,4.6,4.2,7.5,2.9c2.8-1.2,4.1-4.4,3-7.2c-3.3-8.1-7.7-15.6-13.1-22.5c-1.9-2.5-5.5-2.9-7.9-1l0,0
			l-62.1,48.4v-78.7c0-3.2-2.5-5.6-5.6-5.6c-53-0.1-95.9,42.8-96,95.7c0,28.6,12.7,55.7,34.7,73.9v44h-14.2v-35.4
			c0-3.2-2.5-5.6-5.6-5.6h-26c-3.1,0-5.6,2.5-5.6,5.6v35.4H7028V201.9c0-3.1-2.5-5.6-5.6-5.6h-26c-3.2,0-5.6,2.5-5.6,5.6v206.9
			c0,3.2,2.5,5.6,5.6,5.6h26c3.1,0,5.6-2.5,5.6-5.6V358h14.6v50.8c0,3.1,2.5,5.6,5.6,5.6h26c3.2,0,5.6-2.5,5.6-5.6V358h14.2v50.8
			c0,3.2,2.5,5.6,5.6,5.6h26c3.2,0,5.6-2.5,5.6-5.6V358h163.2c14.1,0,25.5-11.5,25.5-25.5V84.1C7319.9,70,7308.4,58.6,7294.3,58.6z
			 M7001.7,403.2V207.5h14.7v195.6L7001.7,403.2L7001.7,403.2z M7053.6,403.2V317h14.8v86.2L7053.6,403.2z M7070.5,229
			c0.1-44.5,34.5-81.4,79-84.4V229c0,1.2,0.4,2.3,1.1,3.3l0,0l49.4,68.4c-20.5,12.8-45.6,16.3-68.9,9.5v-43.9c0-3.2-2.5-5.6-5.6-5.6
			h-26c-3.2,0-5.6,2.5-5.6,5.6v21.1C7078.8,271.6,7070.4,250.7,7070.5,229L7070.5,229z M7105.1,403.2V271.9h14.7v131.3H7105.1z
			 M7180.8,175.4v-72.7c22.1,1.4,42.8,11.5,57.5,28.1L7180.8,175.4z M7219.8,102.2c-13.8-7.2-29.1-10.9-44.6-10.9
			c-3.2,0-5.6,2.5-5.6,5.6v5.2h-167.8v-18c0-7.8,6.4-14.2,14.2-14.2h278.4c7.8,0,14.2,6.4,14.2,14.2v18.1H7219.8z"/>
		<path class="st0" d="M6972,234.6h-26c-3.2,0-5.6,2.5-5.6,5.6v168.6c0,3.2,2.5,5.6,5.6,5.6h26c3.1,0,5.6-2.5,5.6-5.6v-45.6
			c0.1-3.2-2.3-5.8-5.5-5.8c-3.2-0.1-5.8,2.3-5.8,5.5c0,0.2,0,0.3,0,0.4V403h-14.7V245.9h14.7v98.5c0.1,3.2,2.8,5.5,5.8,5.5
			c2.9-0.1,5.3-2.5,5.5-5.5V240.3C6977.7,237.1,6975.1,234.6,6972,234.6C6972.1,234.6,6972,234.6,6972,234.6z"/>
	</g>
	<path class="st0" d="M7298.5,322.2h-60.4c-3.2,0-5.7,2.5-5.7,5.7c0,3.2,2.5,5.7,5.7,5.7h60.4c3.2,0,5.7-2.5,5.7-5.7
		C7304.2,324.8,7301.6,322.2,7298.5,322.2L7298.5,322.2z"/>
	<path class="st0" d="M7298.5,298.1h-42.2c-3.2-0.2-5.8,2.3-5.9,5.5c-0.2,3.2,2.3,5.8,5.5,5.9c0.2,0,0.3,0,0.4,0h42.2
		c3.2,0.2,5.8-2.3,5.9-5.5c0.2-3.2-2.3-5.8-5.5-5.9C7298.7,298.1,7298.6,298.1,7298.5,298.1z"/>
</g>
<g>
	<path class="st0" d="M8192,235.6c0-97-78.9-175.8-175.8-175.8c-30.2,0-60,7.8-86.3,22.7h-21.5V59.8h-34.1v72
		c-22.2,30.1-34.1,66.5-34.1,103.9c0,97,78.9,175.8,175.8,175.8c21.5,0,42.7-3.8,62.7-11.5c27.4,17.5,63,14.8,87.6-6.4l-7.4-8.6
		c-26.1,22.5-65.5,19.6-88-6.5c-22.5-26.1-19.6-65.5,6.5-88c26.1-22.5,65.5-19.6,88,6.5c9.8,11.3,15.1,25.8,15.1,40.8
		c0.1,14.2-4.8,28.1-13.8,39.1l8.8,7.2c10.5-13.1,16.2-29.5,16.2-46.2c0-14-4-27.7-11.5-39.4C8188.1,278.3,8192,257,8192,235.6z
		 M7931.1,116.5h11.3V196h-11.3V116.5z M7908.4,93.8h11.3V196h-11.3V93.8z M7885.7,71.2h11.3V196h-11.3V71.2z M8010.5,400
		c-86.2-2.9-155.7-72.5-158.6-158.6h158.6V400z M8010.5,230h-158.6c0.8-27.3,8.6-54,22.5-77.5v54.8h124.8v-56.7h-22.7v-22.7h-22.7
		v-22.7h-22.7V94.9c24-14.5,51.4-22.7,79.4-23.6L8010.5,230z M7953.8,196v-56.7h11.3V196H7953.8z M7976.5,196v-34.1h11.4V196H7976.5
		z M8180.5,230h-48.5l41.7-41.7C8177.7,201.8,8180,215.8,8180.5,230L8180.5,230z M8151.9,142.9l-63.4,63.4l8,8l61.5-61.5
		c4.5,7.5,8.2,15.5,11.5,23.6l-53.6,53.6h-35l7.3-7.3l-8-8.1l-15.4,15.4h-35l106.4-106.4C8141.9,129.6,8147.2,136.1,8151.9,142.9
		L8151.9,142.9z M8021.8,71.3c14.1,0.5,28.1,2.8,41.7,6.8l-41.7,41.7V71.3z M8021.8,187l68.9-69l-8-8l-60.9,61v-35l53.6-53.6
		c8.2,3.2,16.1,7,23.6,11.5l-9.2,9.2l8,8l11-10.9c6.8,4.7,13.4,9.9,19.4,15.6L8021.8,222L8021.8,187L8021.8,187z M8118.3,264
		c-40.7-0.1-73.7,32.8-73.7,73.5c0,20.6,8.5,40.2,23.7,54.2c-15,5-30.6,7.8-46.4,8.2V241.3h158.7c-0.5,15.8-3.3,31.4-8.3,46.4
		C8158.3,272.6,8138.7,264,8118.3,264z"/>
	
		<rect x="7896.2" y="299.1" transform="matrix(0.7071 -0.7071 0.7071 0.7071 2111.6182 5707.6709)" class="st0" width="98.7" height="11.6"/>
	<path class="st0" d="M7968.9,310.6c-9.6,0-17.5,7.8-17.5,17.5s7.8,17.5,17.5,17.5c9.6,0,17.5-7.8,17.5-17.5
		S7978.6,310.6,7968.9,310.6z M7968.9,333.9c-3.2,0-5.8-2.6-5.8-5.8c0-3.2,2.6-5.8,5.8-5.8c3.2,0,5.8,2.6,5.8,5.8l0,0
		C7974.8,331.3,7972.2,333.9,7968.9,333.9z"/>
	<path class="st0" d="M7922.4,264.1c-9.6,0-17.5,7.8-17.5,17.5c0,9.6,7.8,17.5,17.5,17.5c9.6,0,17.5-7.8,17.5-17.5
		C7939.9,271.9,7932,264.1,7922.4,264.1z M7922.4,287.3c-3.2,0-5.8-2.6-5.8-5.8c0-3.2,2.6-5.8,5.8-5.8c3.2,0,5.8,2.6,5.8,5.8l0,0
		C7928.3,284.7,7925.6,287.3,7922.4,287.3L7922.4,287.3z"/>
	<path class="st0" d="M8120.2,333.9c-6.5,0-11.6-5.2-11.6-11.6c0-6.5,5.2-11.6,11.6-11.6c6.5,0,11.6,5.2,11.6,11.6h11.6
		c0-10.6-7.2-19.8-17.5-22.5v-12.5h-11.6v12.5c-12.5,3.2-19.9,15.8-16.8,28.2c2.6,10.3,11.9,17.5,22.5,17.5
		c6.5,0,11.6,5.2,11.6,11.6c0,6.5-5.2,11.6-11.6,11.6c-6.4,0-11.6-5.2-11.6-11.6h-11.6c0,10.6,7.2,19.8,17.5,22.5V392h11.6v-12.5
		c12.5-3.2,19.9-15.8,16.8-28.2C8140.2,341.1,8130.9,333.9,8120.2,333.9L8120.2,333.9z"/>
	<rect x="8160.9" y="333.9" class="st0" width="11.6" height="11.6"/>
	<rect x="8067.9" y="333.9" class="st0" width="11.6" height="11.6"/>
</g>
<g>
	<g>
		<g>
			<path class="st0" d="M310.6,88.8v126.5h46V88.8H310.6z M345,203.8h-23V100.2h23V203.8z"/>
			<path class="st0" d="M253.1,146.9c-3.7-3.3-7.5-6.4-11.5-9.2v-2.9h-4.3c-22.4-14.8-48.9-23-76.2-23h-5.8v143.8H299v-5.8
				c0-11.7-1.5-23.2-4.5-34.5h4.5V111.8h-46V146.9z M166.8,244V123.4c16.3,0.8,32.1,4.7,46.8,11.4h-18v80.5h46v-62.9
				c4,3.3,7.9,6.8,11.5,10.7v52.2h29.7c2.7,9.4,4.3,19,4.7,28.8H166.8L166.8,244z M230.1,146.3v57.5h-23v-57.5H230.1z M264.5,123.3
				h23.1v80.5h-23.1V123.3z"/>
			
				<rect x="38.8" y="251.2" transform="matrix(0.7071 -0.7071 0.7071 0.7071 -160.2517 127.1391)" class="st0" width="69.1" height="11.5"/>
			<path class="st0" d="M69,232.6c0-9.5-7.8-17.2-17.2-17.2s-17.2,7.7-17.2,17.2c0,9.5,7.8,17.2,17.2,17.2S69,242,69,232.6z
				 M46,232.6c0-3.2,2.6-5.8,5.8-5.8c3.2,0,5.8,2.6,5.8,5.8c0,3.2-2.6,5.8-5.8,5.8S46,235.7,46,232.6z"/>
			<path class="st0" d="M97.7,261.3c-9.5,0-17.2,7.8-17.2,17.2c0,9.5,7.8,17.2,17.2,17.2S115,288,115,278.5
				C115,269,107.3,261.3,97.7,261.3z M97.7,284.3c-3.2,0-5.8-2.6-5.8-5.8c0-3.2,2.6-5.8,5.8-5.8c3.2,0,5.8,2.6,5.8,5.8
				C103.5,281.7,101,284.3,97.7,284.3z"/>
			<path class="st0" d="M252.2,350.1c15.5-22.9,23.8-49.5,23.8-77.3v-5.8H143.8V134.8H138c-5.7,0-11.5,0.5-17.2,1.2V54.2H0v80.5
				h72.4L83.6,146C33.3,167.6,0,217.5,0,272.8c0,76.1,61.9,138,138,138c33.4,0,65.1-12.1,90.3-33.8l17.8,17.8
				c3.5,3.5,8.1,5.2,12.7,5.2c4.6,0,9.2-1.8,12.7-5.2c7-7,7-18.4,0-25.4L252.2,350.1z M77.1,123.3H11.5V65.8h97.7v89.6L77.1,123.3z
				 M138,399.4c-69.7,0-126.5-56.7-126.5-126.6c0-52.3,32.4-99.2,81-118l28.3,28.3v-35.6c3.8-0.5,7.7-0.9,11.5-1.2v132.1h132.2
				c-1,22.7-8.1,44.3-20.5,63.3l-9.2-9.2c0.6-2.6,1-5.3,1-8.2c0-19-15.5-34.5-34.5-34.5s-34.5,15.5-34.5,34.5
				c0,19,15.5,34.5,34.5,34.5c2.8,0,5.5-0.4,8.2-1l10.8,10.8C197.2,388.4,168.3,399.4,138,399.4z M224.3,324.5c0,12.7-10.3,23-23,23
				c-12.7,0-23-10.3-23-23c0-12.7,10.3-23,23-23C214,301.5,224.3,311.8,224.3,324.5z M263.4,386.7c-2.5,2.5-6.6,2.5-9.2,0
				l-33.5-33.6c3.6-2.5,6.7-5.5,9.2-9.2l33.5,33.5C265.9,380,265.9,384.1,263.4,386.7z"/>
			<rect x="23" y="77.2" class="st0" width="74.7" height="11.5"/>
			<rect x="23" y="100.2" class="st0" width="74.7" height="11.5"/>
			<rect x="195.5" y="318.8" class="st0" width="11.5" height="11.5"/>
			<rect x="143.8" y="318.8" class="st0" width="11.5" height="11.5"/>
			<rect x="120.8" y="318.8" class="st0" width="11.5" height="11.5"/>
			<rect x="97.7" y="318.8" class="st0" width="11.5" height="11.5"/>
		</g>
	</g>
</g>
<g>
	<g>
		<g>
			<path class="st0" d="M1200.8,94.5h-48.6c4.6-3.6,7.6-9.2,7.6-15.6c0-10.9-8.8-19.8-19.8-19.8s-19.8,8.8-19.8,19.8
				c0,3.3,0.8,6.5,2.3,9.2l-7,6.4h-95.5c-3-7.1-10-12-18.1-12c-8.2,0-15.1,5-18.1,12H876.6c-8.6,0-15.6,7-15.6,15.6v38.4
				c0,2.8,2.3,5.2,5.2,5.2c2.8,0,5.2-2.3,5.2-5.2v-38.4c0-2.8,2.3-5.2,5.2-5.2h105.7c0.3,2,0.8,3.9,1.7,5.7l-43.9,39.8
				c-3.1-2-6.8-3.2-10.8-3.2c-10.9,0-19.8,8.8-19.8,19.8s8.8,19.8,19.8,19.8s19.8-8.8,19.8-19.8c0-3.2-0.8-6.1-2.1-8.8l43.8-39.6
				c3.2,2.2,7,3.5,11.1,3.5c5.6,0,10.6-2.3,14.2-6.1l35.4,21.1c-0.2,1.3-0.4,2.6-0.4,3.9c0,10.9,8.8,19.8,19.8,19.8
				s19.8-8.8,19.8-19.8c0-2.8-0.6-5.5-1.7-8l30.6-28h81.1c2.8,0,5.2,2.3,5.2,5.2v128.7c0,2.8,2.3,5.2,5.2,5.2c2.8,0,5.2-2.3,5.2-5.2
				V110.2C1216.5,101.5,1209.4,94.5,1200.8,94.5z M929.3,176.3c-5.2,0-9.3-4.2-9.3-9.3s4.2-9.3,9.3-9.3c5.2,0,9.3,4.2,9.3,9.3
				S934.5,176.3,929.3,176.3z M1001.9,111.6c-5.2,0-9.3-4.2-9.3-9.3c0-5.2,4.2-9.3,9.3-9.3c5.2,0,9.3,4.2,9.3,9.3
				S1007.1,111.6,1001.9,111.6z M1071,150.3c-5.2,0-9.3-4.2-9.3-9.3c0-5.2,4.2-9.3,9.3-9.3c5.2,0,9.3,4.2,9.3,9.3
				C1080.4,146.1,1076.1,150.3,1071,150.3z M1082.5,124.9c-3.2-2.3-7.2-3.7-11.5-3.7c-5.8,0-11,2.5-14.6,6.5l-35.3-20.9
				c0.2-0.6,0.2-1.2,0.3-1.8h82.7L1082.5,124.9z M1140.1,88.3c-5.2,0-9.3-4.2-9.3-9.3c0-5.2,4.2-9.3,9.3-9.3c5.1,0,9.3,4.2,9.3,9.3
				C1149.4,84.2,1145.3,88.3,1140.1,88.3z"/>
		</g>
	</g>
	<g>
		<g>
			<path class="st0" d="M1216.5,259.7c0-2.8-2.3-5.2-5.2-5.2c-2.8,0-5.2,2.3-5.2,5.2v39.2h-38.4V175.5v-21.2v-21.5
				c0-2.8-2.3-5.2-5.2-5.2h-39.2c-2.8,0-5.2,2.3-5.2,5.2v21.5v21.2v123.4h-19.5v-26.5v-21.2v-21.5c0-2.8-2.3-5.2-5.2-5.2h-39.2
				c-2.8,0-5.2,2.3-5.2,5.2v21.5v21.2v26.5h-19.5v-93.7V184v-21.5c0-2.8-2.3-5.2-5.2-5.2h-39.2c-2.8,0-5.2,2.3-5.2,5.2V184v21.2
				v29.1c0,2.8,2.3,5.2,5.2,5.2c2.8,0,5.2-2.3,5.2-5.2v-23.9h28.8v88.5h-28.8v-43.8c0-2.8-2.3-5.2-5.2-5.2c-2.8,0-5.2,2.3-5.2,5.2
				v43.8h-19.3v-26.5v-21.2v-21.5c0-2.8-2.3-5.2-5.2-5.2H916c-2.8,0-5.2,2.3-5.2,5.2v21.5v21.2v26.5h-39.4V169.5
				c0-2.8-2.3-5.2-5.2-5.2c-2.8,0-5.2,2.3-5.2,5.2v172.4c0,8.6,7,15.6,15.6,15.6h114.1l-3,25.9h-24.8c-2.8,0-5.2,2.3-5.2,5.2V407
				c0,2.8,2.3,5.2,5.2,5.2h151.4c2.8,0,5.2-2.3,5.2-5.2v-18.3c0-2.8-2.3-5.2-5.2-5.2h-24.8l-3-25.9h114.1c8.6,0,15.6-7,15.6-15.6
				c0,0,0-37.6,0-37.7v-0.1L1216.5,259.7L1216.5,259.7z M1128.5,137.9h28.8v11.1h-28.8V137.9z M1128.5,159.4h28.8v10.8h-28.8V159.4z
				 M1128.5,180.7h28.8v118.2h-28.8V180.7z M1059.4,234.8h28.8v11.1h-28.8V234.8z M1059.4,256.3h28.8v10.8h-28.8V256.3z
				 M1059.4,277.6h28.8v21.3h-28.8V277.6z M990.3,178.7v-11.1h28.8v11.1H990.3z M990.3,200v-10.8h28.8V200H990.3z M921.3,234.8H950
				v11.1h-28.8V234.8z M921.3,256.3H950v10.8h-28.8V256.3z M921.3,277.6H950v21.3h-28.8V277.6z M1109.2,393.8v7.8h-141v-7.8H1109.2z
				 M998.2,383.4l3-25.9h75l3,25.9H998.2z M1200.8,347.1H876.6c-2.8,0-5.2-2.3-5.2-5.2v-32.4h334.6v32.4l0,0
				C1206,344.8,1203.7,347.1,1200.8,347.1z"/>
		</g>
	</g>
</g>
</svg>
