<svg xmlns="http://www.w3.org/2000/svg" viewBox="0 0 136 131"><defs><style>.cls-1{fill:#eaeaea;}</style></defs><title>imagotipo</title><g id="Capa_3" data-name="Capa 3"><path class="cls-1" d="M63.46,12.81H22.64a4.32,4.32,0,0,0-4.32,4.32v6.7A18.78,18.78,0,0,0,10,39.41a1.42,1.42,0,0,0,1.42,1.42H28.76a1.42,1.42,0,0,0,1.43-1.42V22.07a1.43,1.43,0,0,0-1.43-1.42,18.76,18.76,0,0,0-3.2.28,20.66,20.66,0,0,1-2.07.55,3.83,3.83,0,0,1-.73.07v-4.3H63.34V75.39H22.76V71.07A2.2,2.2,0,0,0,23,70.2a2.15,2.15,0,0,0-.68-1.54,2.4,2.4,0,0,0-3.26,0,2.18,2.18,0,0,0-.68,1.49h0v5.37a4.31,4.31,0,0,0,4.32,4.31H63.46a4.32,4.32,0,0,0,4.32-4.31V17.13A4.33,4.33,0,0,0,63.46,12.81ZM27.34,23.55V38H12.9A16,16,0,0,1,27.34,23.55Z"/><path class="cls-1" d="M63.46,84.09H22.64a4.31,4.31,0,0,0-4.32,4.31v23.28A4.31,4.31,0,0,0,22.64,116H63.46a4.32,4.32,0,0,0,4.32-4.32V88.4A4.32,4.32,0,0,0,63.46,84.09Zm-.12,27.47H22.76v-23H63.34Z"/><path class="cls-1" d="M116.64,12.81H75.81a4.32,4.32,0,0,0-4.31,4.32V40.41a4.32,4.32,0,0,0,4.31,4.32h40.83A4.32,4.32,0,0,0,121,40.41V17.13A4.32,4.32,0,0,0,116.64,12.81Zm-.12,27.48H75.94v-23h40.58Z"/><path class="cls-1" d="M116.64,47.92H75.81a4.31,4.31,0,0,0-4.31,4.31v59.45A4.31,4.31,0,0,0,75.81,116h40.83a4.31,4.31,0,0,0,4.31-4.32V52.23A4.31,4.31,0,0,0,116.64,47.92Zm-.12,63.64H75.94V52.36h40.58Z"/><path class="cls-1" d="M85.88,100.29H95a1.73,1.73,0,1,0,0-3.46H85.88a1.73,1.73,0,1,0,0,3.46Z"/><path class="cls-1" d="M102.93,96.83a1.75,1.75,0,0,0-1.23.5,1.74,1.74,0,0,0,0,2.46,1.75,1.75,0,0,0,2.45,0,1.74,1.74,0,0,0,0-2.46A1.74,1.74,0,0,0,102.93,96.83Z"/><path class="cls-1" d="M85.88,83.65h21.18a1.74,1.74,0,0,0,0-3.47H85.88a1.74,1.74,0,0,0,0,3.47Z"/><path class="cls-1" d="M85.88,92h21.18a1.74,1.74,0,0,0,0-3.47H85.88a1.74,1.74,0,0,0,0,3.47Z"/><path class="cls-1" d="M85.88,67h21.18a1.74,1.74,0,0,0,0-3.47H85.88a1.74,1.74,0,0,0,0,3.47Z"/><path class="cls-1" d="M85.88,75.33h21.18a1.74,1.74,0,0,0,0-3.47H85.88a1.74,1.74,0,0,0,0,3.47Z"/><path class="cls-1" d="M82.88,37.22a3.08,3.08,0,0,0,2.78-4.41l3.75-3.75A3.07,3.07,0,0,0,92.29,29l3.82,3.82a3.13,3.13,0,0,0-.3,1.34,3.08,3.08,0,0,0,6.16,0,3,3,0,0,0-.29-1.31L107.54,27a3.08,3.08,0,1,0,1.45-5.8,3.08,3.08,0,0,0-3.08,3.08,3,3,0,0,0,.25,1.2l-5.92,5.92a3.22,3.22,0,0,0-1.35-.31,3.08,3.08,0,0,0-1.32.3l-3.93-3.93a3,3,0,0,0,.21-1.12A3.08,3.08,0,1,0,88,27.59L84.2,31.36a3.08,3.08,0,1,0-1.32,5.86Zm26.11-14a1,1,0,1,1-1,1A1,1,0,0,1,109,23.21Zm-10.1,9.9a1,1,0,1,1-1,1A1,1,0,0,1,98.89,33.11Zm-8.12-7.84a1,1,0,1,1-1,1A1,1,0,0,1,90.77,25.27Zm-7.89,7.84a1,1,0,0,1,.71.29h0l0,0a1,1,0,0,1-.74,1.74,1,1,0,0,1,0-2.06Z"/><path class="cls-1" d="M35,67.22a22.69,22.69,0,0,0,0-45.37,1.72,1.72,0,0,0-1.72,1.72V42.82H14.06a1.72,1.72,0,0,0-1.71,1.71A22.71,22.71,0,0,0,35,67.22Zm1.72-41.86a19.18,19.18,0,0,1,10.61,4.41L36.75,40.39ZM35,46.25a1.71,1.71,0,0,0,1.21-.5h0L49.79,32.2a19.24,19.24,0,1,1-33.93,14Z"/><path class="cls-1" d="M40.14,104.17h2v2.28a1,1,0,0,0,2,0v-2.28h2a.91.91,0,0,0,1-.77v-3.05a.91.91,0,0,0-1-.76h-2V92.72a1,1,0,0,0-2,0v6.87h-2c-.56,0-1,.34-1,.76v3.05A.92.92,0,0,0,40.14,104.17Zm1-3.06h4v1.53h-4Z"/><path class="cls-1" d="M52.15,102.64h2v3.81a1,1,0,0,0,2,0v-3.81h2c.56,0,1-.34,1-.76v-3a.9.9,0,0,0-1-.77h-2V92.72a1,1,0,0,0-2,0v5.34h-2a.91.91,0,0,0-1,.77v3A.91.91,0,0,0,52.15,102.64Zm1-3h4v1.52h-4Z"/><path class="cls-1" d="M28.12,99.59h2v6.86a1,1,0,0,0,2,0V99.59h2a.91.91,0,0,0,1-.76V95.77a.91.91,0,0,0-1-.76h-2V92.72c0-.42-.44-.76-1-.76a.91.91,0,0,0-1,.76V95h-2c-.56,0-1,.34-1,.76v3.06C27.12,99.25,27.56,99.59,28.12,99.59Zm1-3h4v1.52h-4Z"/></g></svg>