<?xml version="1.0" encoding="utf-8"?>
<!-- Generator: Adobe Illustrator 23.0.1, SVG Export Plug-In . SVG Version: 6.00 Build 0)  -->
<svg version="1.1" id="Capa_1" xmlns="http://www.w3.org/2000/svg" xmlns:xlink="http://www.w3.org/1999/xlink" x="0px" y="0px"
	 viewBox="0 0 512 512" style="enable-background:new 0 0 512 512;" xml:space="preserve">
<style type="text/css">
	.st0{fill:#FFE600;}
	.st1{fill:#666666;}
</style>
<g>
	<g>
		<path class="st0" d="M309.1,158.7c-4.5-3.2-10.7-2.1-13.9,2.4l-0.2,0.3c-3.2,4.5-2.1,10.7,2.4,13.9c1.8,1.2,3.8,1.8,5.8,1.8
			c3.1,0,6.2-1.5,8.2-4.2l0.2-0.3C314.7,168.2,313.6,161.9,309.1,158.7z"/>
	</g>
</g>
<g>
	<g>
		<path class="st1" d="M286.3,187.1c-3.5-4.3-9.8-4.9-14.1-1.4c-13.9,11.4-29.7,19.5-46.9,24.1c-5.3,1.4-8.5,6.9-7.1,12.2
			c1.2,4.5,5.2,7.4,9.7,7.4c0.9,0,1.7-0.1,2.6-0.3c20-5.3,38.3-14.8,54.4-28C289.2,197.6,289.8,191.3,286.3,187.1z"/>
	</g>
</g>
<g>
	<g>
		<path class="st1" d="M482,226.5c-16.5,0-30,13.5-30,30v5c0,41.9-30.5,76.9-70.5,83.7c5.2-7.7,8.3-17,8.3-27v-6.9
			c0-26.6-21.6-48.2-48.2-48.2s-48.2,21.6-48.2,48.2v6.9c0,9.7,2.9,18.8,7.9,26.4c-38.4-8.1-67.4-42.3-67.4-83.1v-5
			c0-16.5-13.5-30-30-30s-30,13.5-30,30v5c0,20.3,4.1,39.9,12.1,58.1h-66.2H118V218.8c0-4.5-3-8.4-7.2-9.6
			C57.3,193.9,20,144.5,20,89v-5c0-5.5,4.5-10,10-10s10,4.5,10,10v5c0,57.9,47.1,105,105,105h48.1c57.9,0,105-47.1,105-105v-5
			c0-5.5,4.5-10,10-10s10,4.5,10,10v5c0,15.4-2.8,30.4-8.2,44.6c-2,5.2,0.6,10.9,5.8,12.9c5.2,2,10.9-0.6,12.9-5.8
			c6.3-16.5,9.6-34,9.6-51.8v-5c0-16.5-13.5-30-30-30s-30,13.5-30,30v5c0,41.9-30.5,76.9-70.5,83.7c5.2-7.7,8.3-17,8.3-27v-6.9
			c0-26.6-21.6-48.2-48.2-48.2s-48.2,21.6-48.2,48.2v6.9c0,9.7,2.9,18.8,7.9,26.4C88.9,164,60,129.8,60,89v-5c0-16.5-13.5-30-30-30
			S0,67.5,0,84v5c0,32.1,10.3,62.5,29.8,88c17.3,22.6,41.3,39.9,68.1,49.1v103.4c0,5.5,4.5,10,10,10h1.8V502c0,5.5,4.5,10,10,10
			s10-4.5,10-10V339.5h67c2.2,3.4,4.5,6.7,7,10c0.7,0.9,1.4,1.7,2,2.6V502c0,5.5,4.5,10,10,10s10-4.5,10-10V372.5
			c13.6,11.4,29.3,20.3,46,26.1V502c0,5.5,4.5,10,10,10s10-4.5,10-10V391.3c0-4.5-3-8.4-7.2-9.6c-53.4-15.3-90.7-64.7-90.7-120.2v-5
			c0-5.5,4.5-10,10-10s10,4.5,10,10v5c0,57.9,47.1,105,105,105H367c57.9,0,105-47.1,105-105v-5c0-5.5,4.5-10,10-10s10,4.5,10,10v5
			c0,56.5-38.2,106.2-92.8,120.8c-4.4,1.2-7.4,5.1-7.4,9.7v72.4c0,5.5,4.5,10,10,10s10-4.5,10-10v-64.9
			c59.4-19.4,100.2-75,100.2-138v-5C512,239.9,498.5,226.5,482,226.5z M139.5,138.8c0-15.6,12.7-28.2,28.2-28.2s28.2,12.7,28.2,28.2
			v6.9c0,15.6-12.7,28.2-28.2,28.2c-15.6,0-28.2-12.7-28.2-28.2V138.8z M369.7,318.2c0,15.6-12.7,28.2-28.2,28.2
			c-15.6,0-28.2-12.7-28.2-28.2v-6.9c0-15.6,12.7-28.2,28.2-28.2s28.2,12.7,28.2,28.2V318.2z"/>
	</g>
</g>
<g>
	<g>
		<path class="st0" d="M408.9,494.9c-1.9-1.9-4.4-2.9-7.1-2.9s-5.2,1.1-7.1,2.9c-1.9,1.9-2.9,4.4-2.9,7.1s1.1,5.2,2.9,7.1
			c1.9,1.9,4.4,2.9,7.1,2.9s5.2-1.1,7.1-2.9c1.9-1.9,2.9-4.4,2.9-7.1S410.7,496.8,408.9,494.9z"/>
	</g>
</g>
<g>
	<g>
		<path class="st1" d="M167.7,374c-5.5,0-10,4.5-10,10v118c0,5.5,4.5,10,10,10s10-4.5,10-10V384C177.7,378.5,173.2,374,167.7,374z"
			/>
	</g>
</g>
<g>
	<g>
		<path class="st0" d="M466,82c-5.5,0-10,4.5-10,10v12.4c0,5.5,4.5,10,10,10s10-4.5,10-10V92C476,86.5,471.5,82,466,82z"/>
	</g>
</g>
<g>
	<g>
		<path class="st0" d="M466,141.6c-5.5,0-10,4.5-10,10V164c0,5.5,4.5,10,10,10s10-4.5,10-10v-12.4C476,146,471.5,141.6,466,141.6z"
			/>
	</g>
</g>
<g>
	<g>
		<path class="st0" d="M502,118h-12.4c-5.5,0-10,4.5-10,10s4.5,10,10,10H502c5.5,0,10-4.5,10-10S507.5,118,502,118z"/>
	</g>
</g>
<g>
	<g>
		<path class="st0" d="M442.4,118H430c-5.5,0-10,4.5-10,10s4.5,10,10,10h12.4c5.5,0,10-4.5,10-10S448,118,442.4,118z"/>
	</g>
</g>
<g>
	<g>
		<path class="st0" d="M219.9,0c-5.5,0-10,4.5-10,10v12.4c0,5.5,4.5,10,10,10s10-4.5,10-10V10C229.9,4.5,225.4,0,219.9,0z"/>
	</g>
</g>
<g>
	<g>
		<path class="st0" d="M219.9,59.6c-5.5,0-10,4.5-10,10V82c0,5.5,4.5,10,10,10s10-4.5,10-10V69.6C229.9,64,225.4,59.6,219.9,59.6z"
			/>
	</g>
</g>
<g>
	<g>
		<path class="st0" d="M255.9,36h-12.4c-5.5,0-10,4.5-10,10s4.5,10,10,10h12.4c5.5,0,10-4.5,10-10S261.4,36,255.9,36z"/>
	</g>
</g>
<g>
	<g>
		<path class="st0" d="M196.3,36h-12.4c-5.5,0-10,4.5-10,10s4.5,10,10,10h12.4c5.5,0,10-4.5,10-10S201.8,36,196.3,36z"/>
	</g>
</g>
</svg>
