<?xml version="1.0" encoding="utf-8"?>
<!-- Generator: Adobe Illustrator 23.0.1, SVG Export Plug-In . SVG Version: 6.00 Build 0)  -->
<svg version="1.1" id="Capa_1" xmlns="http://www.w3.org/2000/svg" xmlns:xlink="http://www.w3.org/1999/xlink" x="0px" y="0px"
	 viewBox="0 0 512 512" style="enable-background:new 0 0 512 512;" xml:space="preserve">
<style type="text/css">
	.st0{fill:#676767;}
	.st1{fill:#FFD60B;}
</style>
<g>
	<g>
		<path class="st0" d="M343.4,259.1c-3-1.1-6.2-2.2-9.6-3.4l-20.9-6.9l17.6-13.2c31.8-23.8,50-60.1,50-99.7
			c0-68.7-55.8-124.5-124.5-124.5S131.5,67.3,131.5,136c0,39.6,18.2,75.9,50,99.7l17.7,13.2l-21,6.9c-29.4,9.7-56.4,24.5-80.1,44
			C54.4,335.8,24,386,12.6,441.1c-3.1,14.7,0.6,29.7,10,41.3c9.4,11.5,23.3,18.1,38.1,18.1h70.8c4.7,0,8.5-3.8,8.5-8.5
			s-3.8-8.5-8.5-8.5H60.7c-13.3,0-21.3-7.4-24.9-11.8c-6.2-7.6-8.6-17.5-6.6-27.1C39.8,393.8,67.8,347.4,108,314
			s90.8-52.4,142.6-53.6h0.3h0.4c1.8,0.1,3.3,0.1,4.7,0.1s2.9,0,4.7-0.1h0.3h0.3c26.1,0.6,51.7,5.5,76,14.6c2.1,0.8,4.4,0.7,6.5-0.2
			c2.1-0.9,3.7-2.6,4.5-4.8c0.8-2.1,0.7-4.4-0.2-6.5C347.2,261.5,345.5,259.9,343.4,259.1z M261.2,243.4h-0.4h-0.4c-3,0-6,0-8.9,0
			h-0.4h-0.4c-57.3-2.8-102.3-49.9-102.3-107.4c0-59.3,48.2-107.5,107.5-107.5S363.5,76.7,363.5,136c0,27.8-10.6,54.1-29.8,74.2
			C314.5,230.3,288.8,242,261.2,243.4z"/>
	</g>
	<g>
		<path class="st1" d="M500.5,411.8c0.1,25.5-7.6,48.5-14.1,63.4c-6.7,15.4-21.9,25.3-38.6,25.3h-63.2c-17.2,0-32.6-10.4-39.2-26.5
			c-2.9-7.1-5.4-14.9-7.6-24c-0.5-2.2-0.2-4.5,1-6.4s3.1-3.3,5.3-3.8c0.7-0.2,1.3-0.2,2-0.2c3.8,0,7.3,2.6,8.3,6.5
			c2,8.2,4.2,15.3,6.8,21.5c3.9,9.5,13.4,15.9,23.5,16h63.2c10,0,19.1-5.9,23.1-15.1c5.8-13.3,12.8-34,12.7-56.5
			c0-22.4-7-42.6-12.8-55.7c-4-9.1-12.9-14.7-23.2-14.7h-62.4c-10.6,0-19.8,6.1-23.5,15.5c-3.1,8.1-5.3,14.9-7,22
			c-0.9,3.8-4.3,6.5-8.3,6.5H204l-26.1,26.8l26.7,27.2H266c4.7,0,8.5,3.8,8.5,8.5s-3.8,8.5-8.5,8.5h-65c-2.3,0-4.5-0.9-6.1-2.5
			l-35-35.6c-3.2-3.3-3.2-8.6,0-11.9l34.4-35.4c1.6-1.6,3.8-2.6,6.1-2.6h139.2l2.6-7.9c1.3-4.1,2.6-7.5,3.5-9.7
			c6.2-16,21.6-26.4,39.3-26.4h62.5c16.8,0,32,9.8,38.7,24.8C492.7,363.8,500.4,386.5,500.5,411.8z"/>
	</g>
	<g>
		<circle class="st0" cx="431" cy="412" r="8.5"/>
	</g>
</g>
</svg>
