<svg xmlns="http://www.w3.org/2000/svg" viewBox="0 0 563 131"><defs><style>.cls-1{fill:#fff;}</style></defs><title>Mesa de trabajo 3 copia</title><g id="Capa_3" data-name="Capa 3"><path class="cls-1" d="M192.47,36.84q-6-5.09-16.15-5.09H154.69V96.93h4.94V70h16.69q10.17,0,16.15-5.14t6-14Q198.44,41.93,192.47,36.84Zm-3.76,24.74q-4.49,3.75-13,3.75h-16.1v-29h16.1q8.49,0,13,3.8t4.5,10.71C193.21,55.49,191.71,59.07,188.71,61.58Z"/><path class="cls-1" d="M230.53,46.57q-11,0-17.23,6.86T207,72.24q0,12,6.27,18.81t17.23,6.87q11,0,17.23-6.87T254,72.24q0-11.94-6.28-18.81T230.53,46.57Zm13.63,41.37q-4.93,5.73-13.63,5.73t-13.62-5.73Q212,82.21,212,72.24t4.94-15.7q4.93-5.73,13.62-5.73t13.63,5.73q4.93,5.73,4.94,15.7T244.16,87.94Z"/><path class="cls-1" d="M279.36,49.48a17.67,17.67,0,0,0-6.17,8.15l-.59-10.08h-4.15V96.93h4.94V69.28a21.2,21.2,0,0,1,2-9.33,16.5,16.5,0,0,1,5.34-6.52,12,12,0,0,1,7.06-2.32,10,10,0,0,1,6.32,1.78l1.28-4.65a10.32,10.32,0,0,0-6.22-1.67A16.53,16.53,0,0,0,279.36,49.48Z"/><path class="cls-1" d="M327,93.37c-2.83,0-5-.8-6.47-2.42s-2.22-4-2.22-7.06V51.8h18.56V47.55H318.32V33.83l-4.94,1.38V47.55h-9.87V51.8h9.87V84.58q0,6.72,3.41,10t9.43,3.31a17.8,17.8,0,0,0,6.32-1.09,13.44,13.44,0,0,0,4.84-3.06l-1.78-4A11.74,11.74,0,0,1,327,93.37Z"/><path class="cls-1" d="M386.46,88.44V63q0-8-4.89-12.2t-13.48-4.19a23,23,0,0,0-12.35,3.11,17.21,17.21,0,0,0-7.2,8.93l3.75,2.77q4.05-10.47,15.8-10.47,6.42,0,9.92,3.36t3.51,9.28V67.9l-15.11,2.66q-18.77,3.36-18.76,14.81A10.88,10.88,0,0,0,352,94.66q4.4,3.25,11.7,3.26a25.94,25.94,0,0,0,10.57-2.23,15.06,15.06,0,0,0,7.31-6.17c.19,3.1,1,5.27,2.47,6.52a8.28,8.28,0,0,0,5.62,1.88,10.09,10.09,0,0,0,4.84-1l.3-4a8.78,8.78,0,0,1-3.85.69Q386.46,93.67,386.46,88.44Zm-4.94-7.31a9.59,9.59,0,0,1-2.62,6.76,16.41,16.41,0,0,1-6.57,4.25,23.66,23.66,0,0,1-8.09,1.43c-3.62,0-6.46-.71-8.5-2.12a7,7,0,0,1-3.06-6.08,8.11,8.11,0,0,1,3.66-6.81Q360,75.89,368,74.41l13.53-2.47Z"/><path class="cls-1" d="M417.66,93.27q-3.36,0-4.79-1.87T411.44,85V24.84H406.5V85.47c0,4.28.86,7.43,2.57,9.43s4.34,3,7.9,3a15.32,15.32,0,0,0,6.52-1.29l.69-4.74A16.57,16.57,0,0,1,421,93,16.22,16.22,0,0,1,417.66,93.27Z"/><path class="cls-1" d="M507.23,62.46v-.1a14,14,0,0,0,9-5.16,15.38,15.38,0,0,0,3.2-9.7q0-9-5.83-13.83t-17.8-4.85H469V96.93h27.24q12,0,18.47-5T521.16,78a15.07,15.07,0,0,0-3.77-10.21A16.43,16.43,0,0,0,507.23,62.46ZM479.78,38.11H495q13,0,13,10t-13,10H479.78Zm26.62,47q-3.3,2.64-9.7,2.63H479.78V67.31H496.7q6.41,0,9.7,2.63a9.13,9.13,0,0,1,3.31,7.59A9.1,9.1,0,0,1,506.4,85.11Z"/><path class="cls-1" d="M541.28,36.67a7.57,7.57,0,0,0,5.42-1.81,6.69,6.69,0,0,0,1.91-5.11,6.52,6.52,0,0,0-1.91-5.05,7.74,7.74,0,0,0-5.42-1.76,7.92,7.92,0,0,0-5.47,1.76,6.41,6.41,0,0,0-2,5.05,6.57,6.57,0,0,0,2,5.11A7.75,7.75,0,0,0,541.28,36.67Z"/><rect class="cls-1" x="535.71" y="45.33" width="11.04" height="51.59"/><path class="cls-1" d="M63.46,12.81H22.64a4.32,4.32,0,0,0-4.32,4.32v6.7A18.78,18.78,0,0,0,10,39.41a1.42,1.42,0,0,0,1.42,1.42H28.76a1.42,1.42,0,0,0,1.43-1.42V22.07a1.43,1.43,0,0,0-1.43-1.42,18.76,18.76,0,0,0-3.2.28,20.66,20.66,0,0,1-2.07.55,3.83,3.83,0,0,1-.73.07v-4.3H63.34V75.39H22.76V71.07A2.2,2.2,0,0,0,23,70.2a2.15,2.15,0,0,0-.68-1.54,2.4,2.4,0,0,0-3.26,0,2.18,2.18,0,0,0-.68,1.49h0v5.37a4.31,4.31,0,0,0,4.32,4.31H63.46a4.32,4.32,0,0,0,4.32-4.31V17.13A4.33,4.33,0,0,0,63.46,12.81ZM27.34,23.55V38H12.9A16,16,0,0,1,27.34,23.55Z"/><path class="cls-1" d="M63.46,84.09H22.64a4.31,4.31,0,0,0-4.32,4.31v23.28A4.31,4.31,0,0,0,22.64,116H63.46a4.32,4.32,0,0,0,4.32-4.32V88.4A4.32,4.32,0,0,0,63.46,84.09Zm-.12,27.47H22.76v-23H63.34Z"/><path class="cls-1" d="M116.64,12.81H75.81a4.32,4.32,0,0,0-4.31,4.32V40.41a4.32,4.32,0,0,0,4.31,4.32h40.83A4.32,4.32,0,0,0,121,40.41V17.13A4.32,4.32,0,0,0,116.64,12.81Zm-.12,27.48H75.94v-23h40.58Z"/><path class="cls-1" d="M116.64,47.92H75.81a4.31,4.31,0,0,0-4.31,4.31v59.45A4.31,4.31,0,0,0,75.81,116h40.83a4.31,4.31,0,0,0,4.31-4.32V52.23A4.31,4.31,0,0,0,116.64,47.92Zm-.12,63.64H75.94V52.36h40.58Z"/><path class="cls-1" d="M85.88,100.29H95a1.73,1.73,0,1,0,0-3.46H85.88a1.73,1.73,0,1,0,0,3.46Z"/><path class="cls-1" d="M102.93,96.83a1.75,1.75,0,0,0-1.23.5,1.74,1.74,0,0,0,0,2.46,1.75,1.75,0,0,0,2.45,0,1.74,1.74,0,0,0,0-2.46A1.74,1.74,0,0,0,102.93,96.83Z"/><path class="cls-1" d="M85.88,83.65h21.18a1.74,1.74,0,0,0,0-3.47H85.88a1.74,1.74,0,0,0,0,3.47Z"/><path class="cls-1" d="M85.88,92h21.18a1.74,1.74,0,0,0,0-3.47H85.88a1.74,1.74,0,0,0,0,3.47Z"/><path class="cls-1" d="M85.88,67h21.18a1.74,1.74,0,0,0,0-3.47H85.88a1.74,1.74,0,0,0,0,3.47Z"/><path class="cls-1" d="M85.88,75.33h21.18a1.74,1.74,0,0,0,0-3.47H85.88a1.74,1.74,0,0,0,0,3.47Z"/><path class="cls-1" d="M82.88,37.22a3.08,3.08,0,0,0,2.78-4.41l3.75-3.75A3.07,3.07,0,0,0,92.29,29l3.82,3.82a3.13,3.13,0,0,0-.3,1.34,3.08,3.08,0,0,0,6.16,0,3,3,0,0,0-.29-1.31L107.54,27a3.08,3.08,0,1,0,1.45-5.8,3.08,3.08,0,0,0-3.08,3.08,3,3,0,0,0,.25,1.2l-5.92,5.92a3.22,3.22,0,0,0-1.35-.31,3.08,3.08,0,0,0-1.32.3l-3.93-3.93a3,3,0,0,0,.21-1.12A3.08,3.08,0,1,0,88,27.59L84.2,31.36a3.08,3.08,0,1,0-1.32,5.86Zm26.11-14a1,1,0,1,1-1,1A1,1,0,0,1,109,23.21Zm-10.1,9.9a1,1,0,1,1-1,1A1,1,0,0,1,98.89,33.11Zm-8.12-7.84a1,1,0,1,1-1,1A1,1,0,0,1,90.77,25.27Zm-7.89,7.84a1,1,0,0,1,.71.29h0l0,0a1,1,0,0,1-.74,1.74,1,1,0,0,1,0-2.06Z"/><path class="cls-1" d="M35,67.22a22.69,22.69,0,0,0,0-45.37,1.72,1.72,0,0,0-1.72,1.72V42.82H14.06a1.72,1.72,0,0,0-1.71,1.71A22.71,22.71,0,0,0,35,67.22Zm1.72-41.86a19.18,19.18,0,0,1,10.61,4.41L36.75,40.39ZM35,46.25a1.71,1.71,0,0,0,1.21-.5h0L49.79,32.2a19.24,19.24,0,1,1-33.93,14Z"/><path class="cls-1" d="M40.14,104.17h2v2.28a1,1,0,0,0,2,0v-2.28h2a.91.91,0,0,0,1-.77v-3.05a.91.91,0,0,0-1-.76h-2V92.72a1,1,0,0,0-2,0v6.87h-2c-.56,0-1,.34-1,.76v3.05A.92.92,0,0,0,40.14,104.17Zm1-3.06h4v1.53h-4Z"/><path class="cls-1" d="M52.15,102.64h2v3.81a1,1,0,0,0,2,0v-3.81h2c.56,0,1-.34,1-.76v-3a.9.9,0,0,0-1-.77h-2V92.72a1,1,0,0,0-2,0v5.34h-2a.91.91,0,0,0-1,.77v3A.91.91,0,0,0,52.15,102.64Zm1-3h4v1.52h-4Z"/><path class="cls-1" d="M28.12,99.59h2v6.86a1,1,0,0,0,2,0V99.59h2a.91.91,0,0,0,1-.76V95.77a.91.91,0,0,0-1-.76h-2V92.72c0-.42-.44-.76-1-.76a.91.91,0,0,0-1,.76V95h-2c-.56,0-1,.34-1,.76v3.06C27.12,99.25,27.56,99.59,28.12,99.59Zm1-3h4v1.52h-4Z"/></g></svg>