<?xml version="1.0" encoding="utf-8"?>
<!-- Generator: Adobe Illustrator 23.0.3, SVG Export Plug-In . SVG Version: 6.00 Build 0)  -->
<svg version="1.1" id="Capa_1" xmlns="http://www.w3.org/2000/svg" xmlns:xlink="http://www.w3.org/1999/xlink" x="0px" y="0px"
	 viewBox="0 0 496 496" style="enable-background:new 0 0 496 496;" xml:space="preserve">
<style type="text/css">
	.st0{fill:#FFFFFF;}
</style>
<path class="st0" d="M480,480H24V308.4l56.9-35.6c7.5,9.6,19,15.2,31.2,15.1s23.7-5.7,31.1-15.3l98.3,52.9c-1,3.4-1.5,6.9-1.5,10.4
	c0,17.1,10.9,32.4,27.1,37.9s34.2,0.1,44.6-13.5s11.1-32.3,1.5-46.6l112.9-120.4c17.2,11.1,40,7.4,52.8-8.6s11.4-39.1-3.2-53.4
	s-37.7-15.3-53.5-2.2c-15.7,13.1-19,36-7.6,53L301.9,302.6c-17.3-11.4-40.4-7.6-53.1,8.7l-98.3-52.9c1-3.4,1.5-6.9,1.5-10.4
	c0-22.1-17.9-40-40-40s-40,17.9-40,40c0.1,3.6,0.6,7.1,1.6,10.6l-49.6,31V8c0-4.4-3.6-8-8-8S8,3.6,8,8v480c0,4.4,3.6,8,8,8h464
	c4.4,0,8-3.6,8-8S484.4,480,480,480z M448,136c13.3,0,24,10.7,24,24s-10.7,24-24,24s-24-10.7-24-24S434.7,136,448,136z M280,312
	c13.3,0,24,10.7,24,24s-10.7,24-24,24s-24-10.7-24-24S266.7,312,280,312z M112,224c13.3,0,24,10.7,24,24s-10.7,24-24,24
	s-24-10.7-24-24C88,234.7,98.7,224,112,224z"/>
<path class="st0" d="M104,304v160c0,4.4,3.6,8,8,8s8-3.6,8-8V304c0-4.4-3.6-8-8-8S104,299.6,104,304z"/>
<path class="st0" d="M272,392v72c0,4.4,3.6,8,8,8s8-3.6,8-8v-72c0-4.4-3.6-8-8-8S272,387.6,272,392z"/>
<path class="st0" d="M440,216v248c0,4.4,3.6,8,8,8s8-3.6,8-8V216c0-4.4-3.6-8-8-8S440,211.6,440,216z"/>
</svg>
