<?xml version="1.0" encoding="utf-8"?>
<!-- Generator: Adobe Illustrator 23.0.1, SVG Export Plug-In . SVG Version: 6.00 Build 0)  -->
<svg version="1.1" id="Capa_1" xmlns="http://www.w3.org/2000/svg" xmlns:xlink="http://www.w3.org/1999/xlink" x="0px" y="0px"
	 viewBox="0 0 496 496" style="enable-background:new 0 0 496 496;" xml:space="preserve">
<style type="text/css">
	.st0{fill:#666666;}
	.st1{fill:#FFE600;}
</style>
<path class="st0" d="M480,480H24V308.4l56.9-35.6c7.5,9.6,19,15.2,31.2,15.1s23.7-5.7,31.1-15.3l98.3,52.9c-1,3.4-1.5,6.9-1.5,10.4
	c0,17.1,10.9,32.4,27.1,37.9c16.2,5.5,34.2,0.1,44.6-13.5c10.4-13.6,11.1-32.3,1.5-46.6l112.9-120.4c17.2,11.1,40,7.4,52.8-8.6
	c12.8-16,11.4-39.1-3.2-53.4s-37.7-15.3-53.5-2.2c-15.7,13.1-19,36-7.6,53L301.9,302.6c-17.3-11.4-40.4-7.6-53.1,8.7l-98.3-52.9
	c1-3.4,1.5-6.9,1.5-10.4c0-22.1-17.9-40-40-40s-40,17.9-40,40c0.1,3.6,0.6,7.1,1.6,10.6l-49.6,31V8c0-4.4-3.6-8-8-8S8,3.6,8,8v480
	c0,4.4,3.6,8,8,8h464c4.4,0,8-3.6,8-8S484.4,480,480,480z M448,136c13.3,0,24,10.7,24,24s-10.7,24-24,24s-24-10.7-24-24
	S434.7,136,448,136z M280,312c13.3,0,24,10.7,24,24s-10.7,24-24,24s-24-10.7-24-24S266.7,312,280,312z M112,224
	c13.3,0,24,10.7,24,24s-10.7,24-24,24s-24-10.7-24-24S98.7,224,112,224z"/>
<path class="st1" d="M104,304v160c0,4.4,3.6,8,8,8s8-3.6,8-8V304c0-4.4-3.6-8-8-8S104,299.6,104,304z"/>
<path class="st1" d="M272,392v72c0,4.4,3.6,8,8,8s8-3.6,8-8v-72c0-4.4-3.6-8-8-8S272,387.6,272,392z"/>
<path class="st1" d="M440,216v248c0,4.4,3.6,8,8,8s8-3.6,8-8V216c0-4.4-3.6-8-8-8S440,211.6,440,216z"/>
<path class="st0" d="M93.7,133.7l10.3-10.3V184c0,4.4,3.6,8,8,8s8-3.6,8-8v-80c0-3.2-1.9-6.2-4.9-7.4s-6.4-0.6-8.7,1.7l-24,24
	c-3,3.1-3,8.1,0.1,11.2S90.5,136.7,93.7,133.7z"/>
<path class="st1" d="M256,224c4.4,0,8-3.6,8-8c0-8.8,7.2-16,16-16c5.1-0.2,9.8,2.5,12.3,7c2.7,4.8,2.6,10.8-0.2,15.5
	c-8.3,12-18.2,22.8-29.3,32.1c-4.4,4-8.6,7.9-12.4,11.7c-2.3,2.3-3,5.7-1.7,8.7s4.1,4.9,7.4,4.9h48c4.4,0,8-3.6,8-8s-3.6-8-8-8
	h-27.8c11.4-9.7,21.4-20.9,29.7-33.4c5.8-9.7,5.9-21.8,0.4-31.6c-5.4-9.4-15.4-15.2-26.2-15c-17.7,0-32,14.3-32,32
	C248,220.4,251.6,224,256,224z"/>
<path class="st0" d="M448,88c-8.7,0-16-5.5-16-12c0-4.4-3.6-8-8-8s-8,3.6-8,8c2.2,16,15.8,28,32,28s29.8-12,32-28
	c-0.1-7.8-3.6-15.1-9.6-20c6-4.9,9.5-12.2,9.6-20c-2.2-16-15.8-28-32-28s-29.8,12-32,28c0,4.4,3.6,8,8,8s8-3.6,8-8
	c0-6.5,7.3-12,16-12s16,5.5,16,12s-7.3,12-16,12c-4.4,0-8,3.6-8,8s3.6,8,8,8c8.7,0,16,5.5,16,12S456.7,88,448,88z"/>
</svg>
