<?xml version="1.0" encoding="iso-8859-1"?>
<!-- Generator: Adobe Illustrator 19.1.0, SVG Export Plug-In . SVG Version: 6.00 Build 0)  -->
<svg xmlns="http://www.w3.org/2000/svg" xmlns:xlink="http://www.w3.org/1999/xlink" version="1.1" id="Capa_1" x="0px" y="0px" viewBox="0 0 48 48" style="enable-background:new 0 0 48 48;" xml:space="preserve" width="512px" height="512px">
<g id="sand_watches">
	<g>
		<path d="M42,0H6v2h5v10.999C11,18.25,18.265,22.237,22,24c-3.735,1.763-11,5.75-11,11.001V46H6v2h36v-2h-5V35.001    C37,29.75,29.735,25.763,26,24c3.735-1.763,11-5.748,11-11l0-11h5V0z M35,35.001V46H13V35.001c0-4.387,7.518-8.559,11-10.001    C27.482,26.443,35,30.615,35,35.001z M35,12.999c0,4.387-7.52,8.559-11,10.001c-3.482-1.443-11-5.615-11-10.001V2h22V12.999z" fill="#ffffff"/>
	</g>
</g>
<g>
</g>
<g>
</g>
<g>
</g>
<g>
</g>
<g>
</g>
<g>
</g>
<g>
</g>
<g>
</g>
<g>
</g>
<g>
</g>
<g>
</g>
<g>
</g>
<g>
</g>
<g>
</g>
<g>
</g>
</svg>
