<?xml version="1.0" encoding="utf-8"?>
<!-- Generator: Adobe Illustrator 23.0.1, SVG Export Plug-In . SVG Version: 6.00 Build 0)  -->
<svg version="1.1" id="Capa_1" xmlns="http://www.w3.org/2000/svg" xmlns:xlink="http://www.w3.org/1999/xlink" x="0px" y="0px"
	 viewBox="0 0 512 512" style="enable-background:new 0 0 512 512;" xml:space="preserve">
<style type="text/css">
	.st0{fill:#FFE600;}
	.st1{fill:#666666;}
</style>
<g>
	<path class="st0" d="M53.8,71.8c-12.1,0-22-9.9-22-22c0-12.1,9.9-22,22-22c12.1,0,22,9.9,22,22C75.8,61.9,65.9,71.8,53.8,71.8z
		 M53.8,42.8c-3.9,0-7,3.1-7,7c0,3.9,3.1,7,7,7c3.9,0,7-3.1,7-7C60.8,45.9,57.6,42.8,53.8,42.8z"/>
	<path class="st0" d="M109.8,71.8c-12.1,0-22-9.9-22-22c0-12.1,9.9-22,22-22s22,9.9,22,22C131.8,61.9,122,71.8,109.8,71.8z
		 M109.8,42.8c-3.9,0-7,3.1-7,7c0,3.9,3.1,7,7,7c3.9,0,7-3.1,7-7C116.8,45.9,113.7,42.8,109.8,42.8z"/>
	<path class="st0" d="M165.9,71.8c-12.1,0-22-9.9-22-22c0-12.1,9.9-22,22-22c12.1,0,22,9.9,22,22C187.9,61.9,178,71.8,165.9,71.8z
		 M165.9,42.8c-3.9,0-7,3.1-7,7c0,3.9,3.1,7,7,7c3.9,0,7-3.1,7-7C172.9,45.9,169.7,42.8,165.9,42.8z"/>
	<path class="st1" d="M333,131.9h-157c-4.1,0-7.5,3.4-7.5,7.5c0,4.1,3.4,7.5,7.5,7.5h157c4.1,0,7.5-3.4,7.5-7.5
		C340.5,135.3,337.1,131.9,333,131.9z"/>
	<path class="st1" d="M188.7,252.5c0,4.1,3.4,7.5,7.5,7.5h116.5c4.1,0,7.5-3.4,7.5-7.5c0-4.1-3.4-7.5-7.5-7.5H196.2
		C192,245,188.7,248.3,188.7,252.5z"/>
	<path class="st1" d="M62.7,173.4c0,4.1,3.4,7.5,7.5,7.5h134.5c4.1,0,7.5-3.4,7.5-7.5c0-4.1-3.4-7.5-7.5-7.5H70.2
		C66.1,165.9,62.7,169.3,62.7,173.4z"/>
	<path class="st1" d="M296.9,165.9h-55.8c-4.1,0-7.5,3.4-7.5,7.5c0,4.1,3.4,7.5,7.5,7.5h55.8c4.1,0,7.5-3.4,7.5-7.5
		C304.4,169.3,301,165.9,296.9,165.9z"/>
	<path class="st1" d="M326.1,173.4c0,4.1,3.4,7.5,7.5,7.5h105.1c4.1,0,7.5-3.4,7.5-7.5c0-4.1-3.4-7.5-7.5-7.5H333.6
		C329.4,165.9,326.1,169.3,326.1,173.4z"/>
	<path class="st1" d="M478-1H32C13.8-1-1,13.8-1,32v135.6c0,4.1,3.4,7.5,7.5,7.5c4.1,0,7.5-3.4,7.5-7.5V101h482V478
		c0,9.9-8.1,18-18,18H32c-9.9,0-18-8.1-18-18V213.7c0-4.1-3.4-7.5-7.5-7.5c-4.1,0-7.5,3.4-7.5,7.5V478c0,18.2,14.8,33,33,33h446
		c18.2,0,33-14.8,33-33V32C511,13.8,496.2-1,478-1z M496,86H14V32c0-9.9,8.1-18,18-18h446c9.9,0,18,8.1,18,18V86z"/>
	<path class="st0" d="M43.3,369.9v78.2c0,9.3,7.6,16.9,16.9,16.9h81c9.3,0,16.9-7.6,16.9-16.9v-78.2c0-9.3-7.6-16.9-16.9-16.9h-34.3
		v-20h140v20h-33c-9.3,0-16.9,7.6-16.9,16.9v78.2c0,9.3,7.6,16.9,16.9,16.9h81c9.3,0,16.9-7.6,16.9-16.9v-78.2
		c0-9.3-7.6-16.9-16.9-16.9h-33v-20h140v20h-34.3c-9.3,0-16.9,7.6-16.9,16.9v78.2c0,9.3,7.6,16.9,16.9,16.9h81
		c9.3,0,16.9-7.6,16.9-16.9v-78.2c0-9.3-7.6-16.9-16.9-16.9H417v-22.7c0-6.8-5.5-12.3-12.3-12.3H261.9v-25.4h106.5
		c9.3,0,16.9-7.6,16.9-16.9v-47.9c0-9.3-7.6-16.9-16.9-16.9h-57c-4.1,0-7.5,3.4-7.5,7.5c0,4.1,3.4,7.5,7.5,7.5h57
		c1,0,1.9,0.8,1.9,1.9v47.9c0,1-0.8,1.9-1.9,1.9H140.4c-1,0-1.9-0.8-1.9-1.9v-47.9c0-1,0.8-1.9,1.9-1.9H266c4.1,0,7.5-3.4,7.5-7.5
		c0-4.1-3.4-7.5-7.5-7.5H140.4c-9.3,0-16.9,7.6-16.9,16.9v47.9c0,9.3,7.6,16.9,16.9,16.9h106.5V318H104.2c-6.8,0-12.3,5.5-12.3,12.3
		V353H60.2C50.9,353,43.3,360.6,43.3,369.9z M448.7,368c1,0,1.9,0.8,1.9,1.9v78.2c0,1-0.8,1.9-1.9,1.9h-81c-1,0-1.9-0.8-1.9-1.9
		v-78.2c0-1,0.8-1.9,1.9-1.9H448.7z M295,368c1,0,1.9,0.8,1.9,1.9v78.2c0,1-0.8,1.9-1.9,1.9h-81c-1,0-1.9-0.8-1.9-1.9v-78.2
		c0-1,0.8-1.9,1.9-1.9H295z M141.2,368c1,0,1.9,0.8,1.9,1.9v78.2c0,1-0.8,1.9-1.9,1.9h-81c-1,0-1.9-0.8-1.9-1.9v-78.2
		c0-1,0.8-1.9,1.9-1.9H141.2z"/>
	<path class="st1" d="M279.4,403h-50c-4.1,0-7.5-3.4-7.5-7.5c0-4.1,3.4-7.5,7.5-7.5h50c4.1,0,7.5,3.4,7.5,7.5
		C286.9,399.6,283.6,403,279.4,403z"/>
	<path class="st1" d="M261.4,430h-32c-4.1,0-7.5-3.4-7.5-7.5c0-4.1,3.4-7.5,7.5-7.5h32c4.1,0,7.5,3.4,7.5,7.5
		C268.9,426.6,265.6,430,261.4,430z"/>
	<path class="st1" d="M125.7,403h-50c-4.1,0-7.5-3.4-7.5-7.5c0-4.1,3.4-7.5,7.5-7.5h50c4.1,0,7.5,3.4,7.5,7.5
		C133.2,399.6,129.9,403,125.7,403z"/>
	<path class="st1" d="M107.7,430h-32c-4.1,0-7.5-3.4-7.5-7.5c0-4.1,3.4-7.5,7.5-7.5h32c4.1,0,7.5,3.4,7.5,7.5
		C115.2,426.6,111.9,430,107.7,430z"/>
	<path class="st1" d="M433.2,403h-50c-4.1,0-7.5-3.4-7.5-7.5c0-4.1,3.4-7.5,7.5-7.5h50c4.1,0,7.5,3.4,7.5,7.5
		C440.7,399.6,437.3,403,433.2,403z"/>
	<path class="st1" d="M415.2,430h-32c-4.1,0-7.5-3.4-7.5-7.5c0-4.1,3.4-7.5,7.5-7.5h32c4.1,0,7.5,3.4,7.5,7.5
		C422.7,426.6,419.3,430,415.2,430z"/>
</g>
</svg>
