<?xml version="1.0" encoding="utf-8"?>
<!-- Generator: Adobe Illustrator 23.0.1, SVG Export Plug-In . SVG Version: 6.00 Build 0)  -->
<svg version="1.1" id="Capa_1" xmlns="http://www.w3.org/2000/svg" xmlns:xlink="http://www.w3.org/1999/xlink" x="0px" y="0px"
	 viewBox="0 0 136 131" style="enable-background:new 0 0 136 131;" xml:space="preserve">
<style type="text/css">
	.st0{opacity:6.000000e-02;}
	.st1{fill:#383838;}
</style>
<title>imagotipo</title>
<g class="st0">
	<path class="st1" d="M63.5,12.8H22.6c-2.4,0-4.3,1.9-4.3,4.3l0,0v6.7c-5.2,3.5-8.3,9.3-8.3,15.6c0,0.8,0.6,1.4,1.4,1.4h17.3
		c0.8,0,1.4-0.6,1.4-1.4c0,0,0,0,0,0V22.1c0-0.8-0.6-1.4-1.4-1.4c-1.1,0-2.1,0.1-3.2,0.3c-0.7,0.2-1.4,0.4-2.1,0.5
		c-0.2,0-0.5,0.1-0.7,0.1v-4.3h40.6v58.1H22.8v-4.3c0.1-0.3,0.2-0.6,0.2-0.9c0-0.6-0.3-1.1-0.7-1.5c-0.9-0.9-2.3-0.9-3.3,0
		c-0.4,0.4-0.7,0.9-0.7,1.5l0,0v5.4c0,2.4,1.9,4.3,4.3,4.3c0,0,0,0,0,0h40.8c2.4,0,4.3-1.9,4.3-4.3V17.1
		C67.8,14.7,65.8,12.8,63.5,12.8z M27.3,23.5V38H12.9C13.6,30.3,19.7,24.3,27.3,23.5z"/>
	<path class="st1" d="M63.5,84.1H22.6c-2.4,0-4.3,1.9-4.3,4.3c0,0,0,0,0,0v23.3c0,2.4,1.9,4.3,4.3,4.3c0,0,0,0,0,0h40.8
		c2.4,0,4.3-1.9,4.3-4.3V88.4C67.8,86,65.8,84.1,63.5,84.1z M63.3,111.6H22.8v-23h40.6V111.6z"/>
	<path class="st1" d="M116.6,12.8H75.8c-2.4,0-4.3,1.9-4.3,4.3v23.3c0,2.4,1.9,4.3,4.3,4.3h40.8c2.4,0,4.3-1.9,4.4-4.3c0,0,0,0,0,0
		V17.1C121,14.7,119.1,12.8,116.6,12.8C116.7,12.8,116.7,12.8,116.6,12.8z M116.5,40.3H75.9v-23h40.6L116.5,40.3z"/>
	<path class="st1" d="M116.6,47.9H75.8c-2.4,0-4.3,1.9-4.3,4.3v59.5c0,2.4,1.9,4.3,4.3,4.3c0,0,0,0,0,0h40.8c2.4,0,4.3-1.9,4.3-4.3
		c0,0,0,0,0,0V52.2C120.9,49.8,119,47.9,116.6,47.9z M116.5,111.6H75.9V52.4h40.6L116.5,111.6z"/>
	<path class="st1" d="M85.9,100.3H95c1,0,1.7-0.8,1.7-1.7S96,96.8,95,96.8c0,0,0,0,0,0h-9.1c-1,0-1.7,0.8-1.7,1.7
		S84.9,100.3,85.9,100.3C85.9,100.3,85.9,100.3,85.9,100.3z"/>
	<path class="st1" d="M102.9,96.8c-0.5,0-0.9,0.2-1.2,0.5c-0.7,0.7-0.7,1.8,0,2.5c0.7,0.7,1.8,0.7,2.4,0c0.7-0.7,0.7-1.8,0-2.5
		C103.8,97,103.4,96.8,102.9,96.8z"/>
	<path class="st1" d="M85.9,83.7h21.2c1-0.1,1.7-0.9,1.6-1.9c-0.1-0.9-0.7-1.5-1.6-1.6H85.9c-1,0.1-1.7,0.9-1.6,1.9
		C84.3,82.9,85,83.6,85.9,83.7z"/>
	<path class="st1" d="M85.9,92h21.2c1-0.1,1.7-0.9,1.6-1.9c-0.1-0.9-0.7-1.5-1.6-1.6H85.9c-1,0.1-1.7,0.9-1.6,1.9
		C84.3,91.3,85,91.9,85.9,92z"/>
	<path class="st1" d="M85.9,67h21.2c1-0.1,1.7-0.9,1.6-1.9c-0.1-0.9-0.7-1.5-1.6-1.6H85.9c-1,0.1-1.7,0.9-1.6,1.9
		C84.3,66.3,85,66.9,85.9,67z"/>
	<path class="st1" d="M85.9,75.3h21.2c1-0.1,1.7-0.9,1.6-1.9c-0.1-0.9-0.7-1.5-1.6-1.6H85.9c-1,0.1-1.7,0.9-1.6,1.9
		C84.3,74.6,85,75.3,85.9,75.3z"/>
	<path class="st1" d="M82.9,37.2c1.7,0,3.1-1.4,3.1-3.1c0-0.5-0.1-0.9-0.3-1.3l3.8-3.8c0.9,0.5,2,0.4,2.9-0.1l3.8,3.8
		c-0.2,0.4-0.3,0.9-0.3,1.3c0,1.7,1.4,3.1,3.1,3.1s3.1-1.4,3.1-3.1c0-0.5-0.1-0.9-0.3-1.3l5.9-5.8c1.5,0.8,3.4,0.2,4.2-1.3
		s0.2-3.4-1.3-4.2c-0.4-0.2-0.9-0.4-1.4-0.4c-1.7,0-3.1,1.4-3.1,3.1v0c0,0.4,0.1,0.8,0.2,1.2l-5.9,5.9c-0.4-0.2-0.9-0.3-1.3-0.3
		c-0.5,0-0.9,0.1-1.3,0.3l-3.9-3.9c0.1-0.4,0.2-0.7,0.2-1.1c0.1-1.7-1.3-3.1-3-3.2c-1.7-0.1-3.1,1.3-3.2,3c0,0.5,0.1,1,0.3,1.4
		l-3.8,3.8c-1.5-0.7-3.4-0.1-4.1,1.5c-0.7,1.5-0.1,3.4,1.5,4.1C82,37.1,82.4,37.2,82.9,37.2z M109,23.2c0.6,0,1,0.4,1,1s-0.4,1-1,1
		s-1-0.4-1-1C108,23.7,108.4,23.2,109,23.2C109,23.2,109,23.2,109,23.2L109,23.2z M98.9,33.1c0.6,0,1,0.4,1,1s-0.4,1-1,1s-1-0.4-1-1
		C97.9,33.6,98.3,33.1,98.9,33.1C98.9,33.1,98.9,33.1,98.9,33.1L98.9,33.1z M90.8,25.3c0.6,0,1,0.4,1,1s-0.4,1-1,1s-1-0.4-1-1
		C89.8,25.7,90.2,25.3,90.8,25.3C90.8,25.3,90.8,25.3,90.8,25.3L90.8,25.3z M82.9,33.1c0.3,0,0.5,0.1,0.7,0.3l0,0l0,0
		c0.4,0.4,0.4,1,0.1,1.4c-0.2,0.2-0.5,0.3-0.8,0.3c-0.6,0-1-0.5-1-1C81.8,33.6,82.3,33.1,82.9,33.1L82.9,33.1z"/>
	<path class="st1" d="M35,67.2C47.5,67,57.5,56.6,57.2,44.1C57,31.9,47.2,22.1,35,21.9c-0.9,0-1.7,0.8-1.7,1.7l0,0v19.2H14.1
		c-0.9,0-1.7,0.8-1.7,1.7C12.4,57,22.5,67.2,35,67.2z M36.7,25.4c3.9,0.4,7.6,1.9,10.6,4.4L36.8,40.4L36.7,25.4z M35,46.2
		c0.5,0,0.9-0.2,1.2-0.5l0,0l13.6-13.5c6.8,8.2,5.7,20.3-2.4,27.1c-8.2,6.8-20.3,5.7-27.1-2.4c-2.5-3-4.1-6.8-4.4-10.7L35,46.2z"/>
	<path class="st1" d="M40.1,104.2h2v2.3c0,0.6,0.4,1,1,1s1-0.4,1-1v-2.3h2c0.5,0.1,0.9-0.3,1-0.8v-3.1c-0.1-0.5-0.5-0.8-1-0.8h-2
		v-6.9c0-0.6-0.4-1-1-1s-1,0.4-1,1v6.9h-2c-0.6,0-1,0.3-1,0.8v3.1C39.2,103.9,39.7,104.2,40.1,104.2z M41.1,101.1h4v1.5h-4V101.1z"
		/>
	<path class="st1" d="M52.2,102.6h2v3.8c0,0.6,0.4,1,1,1s1-0.4,1-1v-3.8h2c0.6,0,1-0.3,1-0.8v-3c-0.1-0.5-0.5-0.8-1-0.8h-2v-5.4
		c0-0.6-0.4-1-1-1s-1,0.4-1,1v5.3h-2c-0.5-0.1-0.9,0.3-1,0.8v3C51.2,102.3,51.7,102.7,52.2,102.6z M53.2,99.6h4v1.5h-4V99.6z"/>
	<path class="st1" d="M28.1,99.6h2v6.9c0,0.6,0.4,1,1,1c0.6,0,1-0.4,1-1v-6.9h2c0.5,0.1,0.9-0.3,1-0.8v-3.1c-0.1-0.5-0.5-0.8-1-0.8
		h-2v-2.3c0-0.4-0.4-0.8-1-0.8c-0.5-0.1-0.9,0.3-1,0.8V95h-2c-0.6,0-1,0.3-1,0.8v3.1C27.1,99.2,27.6,99.6,28.1,99.6z M29.1,96.6h4
		v1.5h-4L29.1,96.6z"/>
</g>
</svg>
