<?xml version="1.0" encoding="utf-8"?>
<!-- Generator: Adobe Illustrator 23.0.1, SVG Export Plug-In . SVG Version: 6.00 Build 0)  -->
<svg version="1.1" id="Capa_1" xmlns="http://www.w3.org/2000/svg" xmlns:xlink="http://www.w3.org/1999/xlink" x="0px" y="0px"
	 viewBox="0 0 937 937" style="enable-background:new 0 0 937 937;" xml:space="preserve">
<style type="text/css">
	.st0{fill:#666666;}
	.st1{fill:#FFE600;}
</style>
<path class="st0" d="M62.5,781.1h31.2v-31.2H62.5c-17.3,0-31.2-14-31.2-31.2V93.9c0-17.3,14-31.2,31.2-31.2h687.1
	c17.3,0,31.2,14,31.2,31.2v31.2H812V93.9c0-34.5-28-62.5-62.5-62.5h-687C28,31.5,0,59.5,0,93.9v624.7C0,753.1,28,781.1,62.5,781.1z"
	/>
<path class="st1" d="M62.5,93.9h31.2v31.2H62.5V93.9z"/>
<path class="st1" d="M124.9,93.9h31.2v31.2h-31.2C124.9,125.1,124.9,93.9,124.9,93.9z"/>
<path class="st1" d="M187.4,93.9h31.2v31.2h-31.2V93.9z"/>
<path class="st0" d="M124.9,843.5c0,34.5,28,62.5,62.5,62.5h687.1c34.5,0,62.5-28,62.5-62.5V218.9c0-34.5-28-62.5-62.5-62.5H187.4
	c-34.5,0-62.5,28-62.5,62.5C124.9,218.9,124.9,843.5,124.9,843.5z M156.2,218.9c0-17.3,14-31.2,31.2-31.2h687.1
	c17.3,0,31.2,14,31.2,31.2v624.7c0,17.3-14,31.2-31.2,31.2H187.4c-17.3,0-31.2-14-31.2-31.2V218.9z"/>
<path class="st1" d="M187.4,218.9h31.2v31.2h-31.2V218.9z"/>
<path class="st1" d="M249.9,218.9h31.2v31.2h-31.2L249.9,218.9L249.9,218.9z"/>
<path class="st1" d="M312.3,218.9h31.2v31.2h-31.2V218.9z"/>
<path class="st1" d="M187.4,281.3h687.1v31.2H187.4V281.3z"/>
<path class="st1" d="M187.4,359.4h124.9v31.2H187.4V359.4z"/>
<path class="st1" d="M187.4,421.9h93.7v31.2h-93.7L187.4,421.9L187.4,421.9z"/>
<path class="st0" d="M531,484.4c-60.4,0-109.3,48.9-109.3,109.3S470.6,703,531,703s109.3-48.9,109.3-109.3
	C640.2,533.3,591.3,484.4,531,484.4z M531,671.8c-43.1,0-78.1-35-78.1-78.1s35-78.1,78.1-78.1s78.1,35,78.1,78.1
	C609,636.8,574.1,671.7,531,671.8z"/>
<path class="st0" d="M780.8,546.8c0-8.6-7-15.6-15.6-15.6h-41.3c-3.3-10.3-7.4-20.2-12.4-29.8l29.2-29.2c6.1-6.1,6.1-16,0-22.1
	l-66.3-66.3c-6.1-6.1-16-6.1-22.1,0l-29,29.2c-9.6-4.9-19.6-9-29.8-12.3v-41.3c0-8.6-7-15.6-15.6-15.6h-93.7
	c-8.6,0-15.6,7-15.6,15.6v41.3c-10.3,3.3-20.2,7.4-29.8,12.3l-29.2-29.2c-6.1-6.1-16-6.1-22.1,0l-66.3,66.3c-6.1,6.1-6.1,16,0,22.1
	l29.2,29.2c-1.3,2.6-2.6,5.1-3.7,7.7c-3.3,7.2-6.2,14.6-8.6,22.1h-41.3c-8.6,0-15.6,7-15.6,15.6v93.7c0,8.6,7,15.6,15.6,15.6H338
	c3.3,10.3,7.4,20.2,12.4,29.8l-29.2,29.2c-6.1,6.1-6.1,16,0,22.1l66.3,66.3c6.1,6.1,16,6.1,22.1,0l29.2-29.2
	c9.6,4.9,19.6,9,29.8,12.3v41.3c0,8.6,7,15.6,15.6,15.6h93.7c8.6,0,15.6-7,15.6-15.6v-41.3c10.3-3.3,20.2-7.4,29.8-12.3l29.2,29.2
	c6.1,6.1,16,6.1,22.1,0l66.3-66.3c6.1-6.1,6.1-16,0-22.1L711.6,686c4.9-9.6,9-19.6,12.4-29.8h41.3c8.6,0,15.6-7,15.6-15.6
	L780.8,546.8L780.8,546.8z M749.6,624.9h-37.4c-7.1,0-13.3,4.8-15.1,11.7c-4,15.5-10.1,30.4-18.3,44.2c-3.6,6.1-2.6,13.9,2.4,19
	l26.4,26.4l-44.2,44.2L637,744c-5-5-12.8-6-19-2.4c-13.8,8.1-28.7,14.3-44.2,18.3c-6.9,1.8-11.7,8-11.7,15.1v37.4h-62.5V775
	c0-7.1-4.8-13.3-11.7-15.1c-15.5-4-30.4-10.1-44.2-18.3c-6.1-3.6-13.9-2.6-19,2.4l-26.4,26.4l-44.2-44.2l26.4-26.4
	c5-5,6-12.8,2.4-19c-8.1-13.8-14.3-28.7-18.3-44.2c-1.8-6.9-8-11.7-15.1-11.7h-37.4v-62.5h37.4c7.1,0,13.3-4.8,15.1-11.7
	c2.5-9.8,5.9-19.4,10.2-28.6c2.4-5.3,5.1-10.6,8.1-15.6c3.6-6.1,2.6-13.9-2.4-19l-26.4-26.4l44.2-44.2l26.4,26.4c5,5,12.8,6,19,2.4
	c13.8-8.1,28.7-14.3,44.2-18.3c6.9-1.8,11.7-8,11.7-15.1V375h62.5v37.4c0,7.1,4.8,13.3,11.7,15.1c15.5,4,30.4,10.1,44.2,18.3
	c6.1,3.6,13.9,2.6,19-2.4l26.4-26.4l44.2,44.2l-26.4,26.4c-5,5-6,12.8-2.4,19c8.1,13.8,14.3,28.7,18.3,44.2
	c1.8,6.9,8,11.7,15.1,11.7h37.4V624.9z"/>
<path class="st1" d="M780.8,812.3h93.7v31.2h-93.7V812.3z"/>
</svg>
