<?xml version="1.0" encoding="utf-8"?>
<!-- Generator: Adobe Illustrator 23.0.4, SVG Export Plug-In . SVG Version: 6.00 Build 0)  -->
<svg version="1.1" id="Capa_1" xmlns="http://www.w3.org/2000/svg" xmlns:xlink="http://www.w3.org/1999/xlink" x="0px" y="0px"
	 viewBox="0 0 601.1 578.9" style="enable-background:new 0 0 601.1 578.9;" xml:space="preserve">
<style type="text/css">
	.st0{fill:#EAD03F;}
	.st1{fill:none;stroke:#999999;stroke-width:5;stroke-miterlimit:10;}
	.st2{fill:none;stroke:#999999;stroke-width:5;stroke-miterlimit:10;stroke-dasharray:3.9628,3.9628;}
	.st3{fill:none;stroke:#EAD03F;stroke-width:5;stroke-miterlimit:10;stroke-dasharray:3.9628,3.9628;}
	.st4{fill:none;stroke:#4C80FF;stroke-width:5;stroke-miterlimit:10;stroke-dasharray:3.9628,3.9628;}
	.st5{fill:none;stroke:#4C80FF;stroke-width:5;stroke-miterlimit:10;}
	.st6{fill:none;stroke:#EAD03F;stroke-width:5;stroke-miterlimit:10;}
	.st7{fill:#FFFFFF;}
	.st8{fill:none;stroke:#EAD03F;stroke-width:5;stroke-linecap:round;stroke-linejoin:round;stroke-miterlimit:10;}
	.st9{fill:none;stroke:#999999;stroke-width:5;stroke-linecap:round;stroke-linejoin:round;stroke-miterlimit:10;}
	.st10{fill:none;stroke:#4C80FF;stroke-width:5;stroke-linecap:round;stroke-linejoin:round;stroke-miterlimit:10;}
	
		.st11{clip-path:url(#SVGID_4_);fill:none;stroke:#EAD03F;stroke-width:5;stroke-linecap:round;stroke-linejoin:round;stroke-miterlimit:10;}
	
		.st12{clip-path:url(#SVGID_8_);fill:none;stroke:#EAD03F;stroke-width:5;stroke-linecap:round;stroke-linejoin:round;stroke-miterlimit:10;}
	
		.st13{clip-path:url(#SVGID_10_);fill:none;stroke:#4C80FF;stroke-width:5;stroke-linecap:round;stroke-linejoin:round;stroke-miterlimit:10;}
	
		.st14{clip-path:url(#SVGID_12_);fill:none;stroke:#4C80FF;stroke-width:5;stroke-linecap:round;stroke-linejoin:round;stroke-miterlimit:10;}
	
		.st15{clip-path:url(#SVGID_14_);fill:none;stroke:#999999;stroke-width:5;stroke-linecap:round;stroke-linejoin:round;stroke-miterlimit:10;}
	
		.st16{clip-path:url(#SVGID_16_);fill:none;stroke:#999999;stroke-width:5;stroke-linecap:round;stroke-linejoin:round;stroke-miterlimit:10;}
	
		.st17{clip-path:url(#SVGID_18_);fill:none;stroke:#999999;stroke-width:5;stroke-linecap:round;stroke-linejoin:round;stroke-miterlimit:10;}
	
		.st18{clip-path:url(#SVGID_20_);fill:none;stroke:#999999;stroke-width:5;stroke-linecap:round;stroke-linejoin:round;stroke-miterlimit:10;}
</style>
<g>
	<circle class="st0" cx="464.7" cy="417.9" r="13.9"/>
	<circle class="st1" cx="458" cy="420.8" r="13.9"/>
	<circle class="st0" cx="373.7" cy="49.9" r="13.9"/>
	<circle class="st1" cx="367" cy="52.8" r="13.9"/>
	<circle class="st0" cx="281.7" cy="316.9" r="13.9"/>
	<circle class="st1" cx="275" cy="319.8" r="13.9"/>
	<circle class="st0" cx="150.7" cy="262.9" r="13.9"/>
	<circle class="st1" cx="144" cy="265.8" r="13.9"/>
	
		<ellipse transform="matrix(0.1602 -0.9871 0.9871 0.1602 -98.2768 317.3449)" class="st2" cx="137.4" cy="216.4" rx="13.9" ry="13.9"/>
	
		<ellipse transform="matrix(0.1602 -0.9871 0.9871 0.1602 32.8585 207.476)" class="st3" cx="138.4" cy="84.4" rx="13.9" ry="13.9"/>
	
		<ellipse transform="matrix(0.9239 -0.3827 0.3827 0.9239 -178.8275 87.8287)" class="st2" cx="131.4" cy="493.4" rx="13.9" ry="13.9"/>
	<path class="st4" d="M427.9,382c0,7.7-6.2,13.9-13.9,13.9s-13.9-6.2-13.9-13.9c0-7.7,6.2-13.9,13.9-13.9
		C421.7,368.1,427.9,374.3,427.9,382z"/>
	<circle class="st2" cx="378.6" cy="108.2" r="13.9"/>
	
		<ellipse transform="matrix(0.1602 -0.9871 0.9871 0.1602 -81.6852 623.8733)" class="st2" cx="325.8" cy="359.9" rx="13.9" ry="13.9"/>
	<circle class="st5" cx="329.6" cy="81" r="6.2"/>
	<circle class="st5" cx="117.7" cy="117.3" r="6.2"/>
	<circle class="st1" cx="48.8" cy="219.7" r="6.2"/>
	<circle class="st1" cx="552.8" cy="318.7" r="6.2"/>
	<circle class="st6" cx="322" cy="129.7" r="6.2"/>
	<circle class="st6" cx="419.3" cy="78.1" r="6.2"/>
	<circle class="st7" cx="179.3" cy="213.1" r="6.2"/>
	<circle class="st7" cx="179.3" cy="303.1" r="6.2"/>
	<circle class="st7" cx="502.3" cy="133.1" r="6.2"/>
	<circle class="st1" cx="517.7" cy="300.8" r="6.2"/>
	<circle class="st5" cx="239.7" cy="33.8" r="6.2"/>
	<circle class="st5" cx="335" cy="258" r="6.2"/>
	<circle class="st5" cx="94.8" cy="264.8" r="6.2"/>
	<circle class="st1" cx="206.8" cy="299.7" r="6.2"/>
	<circle class="st1" cx="357.8" cy="383" r="6.2"/>
	<circle class="st5" cx="191.8" cy="351" r="6.2"/>
	<circle class="st1" cx="410.6" cy="447.6" r="6.2"/>
	<circle class="st1" cx="472.5" cy="481.3" r="6.2"/>
	<circle class="st6" cx="320.2" cy="457.6" r="6.2"/>
	<circle class="st5" cx="178.4" cy="505" r="6.2"/>
	
		<rect x="197.6" y="458.4" transform="matrix(0.7071 -0.7071 0.7071 0.7071 -268.4111 279.2422)" class="st6" width="10.5" height="10.5"/>
	
		<rect x="321.1" y="198.3" transform="matrix(0.7071 -0.7071 0.7071 0.7071 -48.3417 290.3424)" class="st5" width="10.5" height="10.5"/>
	
		<rect x="490.5" y="437.5" transform="matrix(0.7071 -0.7071 0.7071 0.7071 -167.8732 480.2535)" class="st1" width="10.5" height="10.5"/>
	<g>
		<path class="st8" d="M233.6,234.5c0-6.7,0-13.4,0-20.1c0-0.9,0.1-1.1,0.6-1.1c2.8,0,5.5,0,8.3,0c0.4,0,0.5,0.2,0.5,1
			c0,13.5,0,27,0,40.5c0,0.8-0.1,1-0.5,1c-2.8,0-5.5,0-8.3,0c-0.4,0-0.5-0.2-0.5-1C233.6,248.1,233.6,241.3,233.6,234.5z"/>
		<path class="st8" d="M225.5,235.4c0,6.4,0,12.9,0,19.3c0,0.9-0.1,1.1-0.6,1.1c-2.7,0-5.4,0-8.2,0c-0.4,0-0.6-0.2-0.6-1.1
			c0-12.8,0-25.7,0-38.5c0-0.9,0.1-1.1,0.6-1.1c2.7,0,5.5,0,8.2,0c0.5,0,0.6,0.3,0.6,1.2C225.5,222.7,225.5,229,225.5,235.4z"/>
		<path class="st8" d="M260.3,240.1c0,4.9,0,9.8,0,14.8c0,0.7-0.1,1-0.5,1c-2.8,0-5.6,0-8.4,0c-0.4,0-0.5-0.2-0.5-0.9
			c0-9.8,0-19.7,0-29.5c0-0.9,0.2-1,0.6-1c2.8,0,5.5,0,8.3,0c0.4,0,0.5,0.2,0.5,1C260.3,230.3,260.3,235.2,260.3,240.1z"/>
		<path class="st8" d="M208,246.1c0,3,0,5.9,0,8.9c0,0.7-0.1,0.9-0.4,0.9c-2.8,0-5.6,0-8.4,0c-0.4,0-0.5-0.3-0.5-1
			c0-5.9,0-11.8,0-17.6c0-0.8,0.1-1,0.5-1c2.8,0,5.5,0,8.3,0c0.4,0,0.5,0.3,0.5,1.1C208,240.2,208,243.2,208,246.1z"/>
	</g>
	<path class="st9" d="M502.4,341c-0.9-3.9-2.8-7.2-5.9-9.7c-3.7-3.1-8.1-4.6-13-4.6c-2.9,0-5.7,0.6-8.4,1.7c-4,1.8-7,4.6-8.9,8.5
		c-1.8,3.7-2.4,7.6-1.9,11.7c0.3,2.7,1.1,5.2,2.3,7.7c1.9,4,4.5,7.5,7.3,10.9c3,3.6,6.2,6.9,9.4,10.2c0.3,0.3,0.4,0.2,0.6,0
		c1.3-1.4,2.7-2.8,4-4.2c2.2-2.4,4.5-4.8,6.5-7.4c2.6-3.3,5.1-6.8,6.7-10.7C503.1,350.6,503.6,345.9,502.4,341z M483.6,355.6
		c-5.5,0-10.4-4.4-10.4-10.4c0-5.9,4.8-10.3,10.4-10.3c5.6,0,10.3,4.4,10.3,10.3C494,351.1,489.2,355.6,483.6,355.6z"/>
	<path class="st8" d="M102.4,425c-0.9-3.9-2.8-7.2-5.9-9.7c-3.7-3.1-8.1-4.6-13-4.6c-2.9,0-5.7,0.6-8.4,1.7c-4,1.8-7,4.6-8.9,8.5
		c-1.8,3.7-2.4,7.6-1.9,11.7c0.3,2.7,1.1,5.2,2.3,7.7c1.9,4,4.5,7.5,7.3,10.9c3,3.6,6.2,6.9,9.4,10.2c0.3,0.3,0.4,0.2,0.6,0
		c1.3-1.4,2.7-2.8,4-4.2c2.2-2.4,4.5-4.8,6.5-7.4c2.6-3.3,5.1-6.8,6.7-10.7C103.1,434.6,103.6,429.9,102.4,425z M83.6,439.6
		c-5.5,0-10.4-4.4-10.4-10.4c0-5.9,4.8-10.3,10.4-10.3s10.3,4.4,10.3,10.3C94,435.1,89.2,439.6,83.6,439.6z"/>
	<g>
		<line class="st1" x1="409.9" y1="131.8" x2="420" y2="141.9"/>
		<line class="st1" x1="420" y1="131.8" x2="409.9" y2="141.9"/>
	</g>
	<g>
		<line class="st1" x1="146" y1="130" x2="156.1" y2="140.2"/>
		<line class="st1" x1="156.1" y1="130" x2="146" y2="140.2"/>
	</g>
	<g>
		<line class="st1" x1="320.8" y1="39.5" x2="331" y2="49.7"/>
		<line class="st1" x1="331" y1="39.5" x2="320.8" y2="49.7"/>
	</g>
	<g>
		<line class="st6" x1="538.8" y1="212.5" x2="549" y2="222.7"/>
		<line class="st6" x1="549" y1="212.5" x2="538.8" y2="222.7"/>
	</g>
	<g>
		<line class="st1" x1="280.6" y1="228.1" x2="290.8" y2="238.2"/>
		<line class="st1" x1="290.8" y1="228.1" x2="280.6" y2="238.2"/>
	</g>
	<g>
		<line class="st6" x1="413.6" y1="291.1" x2="423.8" y2="301.2"/>
		<line class="st6" x1="423.8" y1="291.1" x2="413.6" y2="301.2"/>
	</g>
	<g>
		<line class="st1" x1="263.4" y1="378.3" x2="273.6" y2="388.5"/>
		<line class="st1" x1="273.6" y1="378.3" x2="263.4" y2="388.5"/>
	</g>
	<g>
		<line class="st1" x1="379.2" y1="346.8" x2="389.4" y2="356.9"/>
		<line class="st1" x1="389.4" y1="346.8" x2="379.2" y2="356.9"/>
	</g>
	<g>
		<line class="st1" x1="225.1" y1="339.1" x2="235.3" y2="349.3"/>
		<line class="st1" x1="235.3" y1="339.1" x2="225.1" y2="349.3"/>
	</g>
	<g>
		<line class="st5" x1="227.2" y1="414.3" x2="237.4" y2="424.5"/>
		<line class="st5" x1="237.4" y1="414.3" x2="227.2" y2="424.5"/>
	</g>
	<rect x="57.4" y="174.8" class="st7" width="15.3" height="15.3"/>
	<rect x="210.4" y="378.8" class="st7" width="15.3" height="15.3"/>
	<rect x="466.6" y="295.1" class="st7" width="15.3" height="15.3"/>
	<line class="st9" x1="352.2" y1="139.7" x2="340.8" y2="139.7"/>
	<line class="st9" x1="364.7" y1="146.8" x2="353.2" y2="146.8"/>
	<line class="st9" x1="356.1" y1="153.5" x2="344.6" y2="153.5"/>
	<line class="st8" x1="385.6" y1="179" x2="374.1" y2="179"/>
	<line class="st8" x1="385.6" y1="191.4" x2="374.1" y2="191.4"/>
	<line class="st8" x1="374.6" y1="184.7" x2="352.1" y2="184.7"/>
	<line class="st10" x1="539.4" y1="400.9" x2="527.9" y2="400.9"/>
	<line class="st10" x1="528.4" y1="406.7" x2="505.9" y2="406.7"/>
	<line class="st8" x1="555.4" y1="349.9" x2="543.9" y2="349.9"/>
	<line class="st8" x1="544.4" y1="355.7" x2="521.9" y2="355.7"/>
	<line class="st8" x1="297.2" y1="276.7" x2="274.7" y2="276.7"/>
	<line class="st8" x1="314.4" y1="270" x2="291.9" y2="270"/>
	<line class="st8" x1="314.4" y1="284.4" x2="291.9" y2="284.4"/>
	<line class="st10" x1="361.3" y1="426" x2="338.8" y2="426"/>
	<line class="st10" x1="378.6" y1="419.3" x2="356.1" y2="419.3"/>
	<line class="st10" x1="378.6" y1="433.7" x2="356.1" y2="433.7"/>
	<line class="st8" x1="152" y1="444.9" x2="129.5" y2="444.9"/>
	<line class="st8" x1="169.3" y1="438.2" x2="146.8" y2="438.2"/>
	<line class="st8" x1="169.3" y1="452.6" x2="146.8" y2="452.6"/>
	<line class="st10" x1="86.6" y1="208.7" x2="64.1" y2="208.7"/>
	<line class="st10" x1="103.9" y1="215.4" x2="81.4" y2="215.4"/>
	<line class="st10" x1="95.2" y1="224" x2="72.8" y2="224"/>
	<line class="st10" x1="479.1" y1="116.8" x2="456.6" y2="116.8"/>
	<line class="st9" x1="442.7" y1="338.9" x2="420.2" y2="338.9"/>
	<line class="st9" x1="432.2" y1="349.4" x2="409.7" y2="349.4"/>
	<line class="st10" x1="479.1" y1="130.2" x2="456.6" y2="130.2"/>
	<line class="st10" x1="462.8" y1="123.5" x2="440.3" y2="123.5"/>
	<line class="st5" x1="115.3" y1="138.9" x2="92.9" y2="138.9"/>
	<line class="st5" x1="115.3" y1="152.3" x2="92.9" y2="152.3"/>
	<line class="st5" x1="99.1" y1="145.6" x2="76.6" y2="145.6"/>
	<line class="st6" x1="446" y1="491.3" x2="423.5" y2="491.3"/>
	<line class="st6" x1="446" y1="504.7" x2="423.5" y2="504.7"/>
	<line class="st6" x1="429.8" y1="498" x2="407.3" y2="498"/>
	<g>
		<line class="st6" x1="175.6" y1="169.5" x2="153.2" y2="169.5"/>
		<line class="st6" x1="159.4" y1="176.2" x2="136.9" y2="176.2"/>
	</g>
	<path class="st7" d="M42.2,263.8c0-3.7,3-6.6,6.7-6.4c1.6,0.1,3.1,0.7,4.3,1.9c0.9,0.9,1.7,1.7,2.6,2.6c0.2,0.2,0.4,0.2,0.6,0
		c0.9-0.9,1.9-1.9,2.9-2.8c3.3-3.1,8.6-1.8,10.3,2.4c1,2.6,0.4,5-1.5,7c-3.8,3.8-7.6,7.6-11.5,11.5c-0.3,0.3-0.5,0.3-0.8,0
		c-3.8-3.8-7.6-7.7-11.5-11.5C42.8,267.1,42.1,265.6,42.2,263.8z"/>
	<path class="st9" d="M367.8,328.8c-5.4,0-10.8,0-16.3,0c-4.6,0-8.8-3.3-10-7.7c-1.5-5.2,1.2-10.3,4.8-12.2c0.4-0.2,0.8-0.6,1.3-0.7
		c1.9-0.3,2.4-1.4,2.7-3.2c1.3-6.8,7.6-12.5,14.3-13.7c9.8-1.7,18.2,4.5,20.6,12.7c0.2,0.8,0.5,1.7,0.5,2.5c0,1,0.4,1.3,1.3,1.6
		c1.6,0.5,3.2,1.2,4.5,2.4c5.3,5,3.7,14.4-3,17.4c-1.5,0.7-3.1,1-4.7,1C378.4,328.8,373.1,328.8,367.8,328.8z"/>
	<path class="st8" d="M290.8,440.8c-5.4,0-10.8,0-16.3,0c-4.6,0-8.8-3.3-10-7.7c-1.5-5.2,1.2-10.3,4.8-12.2c0.4-0.2,0.8-0.6,1.3-0.7
		c1.9-0.3,2.4-1.4,2.7-3.2c1.3-6.8,7.6-12.5,14.3-13.7c9.8-1.7,18.2,4.5,20.6,12.7c0.2,0.8,0.5,1.7,0.5,2.5c0,1,0.4,1.3,1.3,1.6
		c1.6,0.5,3.2,1.2,4.5,2.4c5.3,5,3.7,14.4-3,17.4c-1.5,0.7-3.1,1-4.7,1C301.4,440.8,296.1,440.8,290.8,440.8z"/>
	<path class="st9" d="M460.7,272.5c-25.5,0-50.9,0-76.4,0c-4.4,0-7.8-2.3-8.5-6.1c-0.6-3.5-0.4-7.2-0.2-10.8c0.1-1,0.9-1.6,1.5-2.3
		c8.1-7.3,16.2-14.6,24.3-21.9c1.1-1,1.5-2,1.5-3.4c0-20.6,0-41.2,0-61.7c0-3.7,1.4-6.6,4.8-8.3c1.4-0.7,2.9-0.7,4.5-0.7
		c16.2,0,32.5,0,48.7,0c16,0,32,0.1,48-0.1c6.4-0.1,9.5,4.4,9.5,9.6c-0.1,20.6,0,41.2-0.1,61.7c0,1.1,0.3,1.9,1.2,2.7
		c8.2,7.3,16.3,14.7,24.4,22c1.4,1.2,2,2.6,1.9,4.4c-0.1,2.6,0.1,5.2-0.2,7.8c-0.4,3.8-3.4,6.8-7.2,7.1c-0.7,0.1-1.4,0-2.1,0
		C511.2,272.5,485.9,272.5,460.7,272.5z"/>
	<path class="st10" d="M428,216.3c0.2-1.9,0.3-3.3,0.4-4.7c0.3-2.8-0.4-4-2.9-5.2c-1.4-0.6-2.9-1.3-4.3-1.9
		c-1.2-0.5-1.8-1.4-1.8-2.8c0-2.3,0-4.5,0-6.8c0-1.3,0.5-2.2,1.7-2.7c1.6-0.7,3.1-1.4,4.7-2.1c2-0.9,2.9-2.6,2.7-4.7
		c-0.2-1.7-0.3-3.4-0.5-5.1c-0.1-1.3,0.5-2.3,1.6-2.9c1.9-1.1,3.9-2.2,5.8-3.3c1.2-0.7,2.2-0.6,3.3,0.2c1.4,1,2.7,2,4.1,2.9
		c2,1.4,3.6,1.4,5.5,0c1.3-1,2.7-2,4.1-3c1-0.8,2.1-0.8,3.2-0.2c2,1.1,3.9,2.3,5.9,3.4c1.3,0.8,1.8,1.9,1.5,3.4
		c-0.2,1.6-0.4,3.1-0.5,4.7c-0.2,2.3,0.6,3.7,2.7,4.6c1.5,0.7,3,1.3,4.5,2c1.3,0.6,2,1.6,1.9,3c0,2.2,0,4.3,0,6.5
		c0,1.4-0.6,2.4-1.9,2.9c-1.4,0.6-2.8,1.2-4.2,1.8c-2.5,1.1-3.3,2.3-3,5c0.1,1.5,0.3,3,0.5,4.6c0.2,1.5-0.2,2.6-1.6,3.3
		c-1.9,1.1-3.8,2.2-5.8,3.3c-1.2,0.7-2.3,0.6-3.4-0.2c-1.2-0.9-2.5-1.8-3.7-2.7c-2.2-1.6-3.8-1.6-6,0c-1.2,0.9-2.4,1.7-3.6,2.6
		c-1.2,0.9-2.4,1-3.7,0.2c-1.7-1-3.4-2.1-5.1-3C428.5,218.8,427.7,217.7,428,216.3z"/>
	<path class="st10" d="M508.6,186.3c-2.5,0-2.5,0-3.4,2.3c0,0,0,0.1-0.1,0.1c-0.2,1-1.5,1.7-1.1,2.7c0.4,0.9,1.4,1.5,2.1,2.2
		c2,2,2,2,0,3.9c-2,2-2,2.1-4-0.1c-1.5-1.7-2.7-2.6-5.1-1.2c-1.5,0.8-2,1.4-2,3c0.1,3.5,0,3.5-3.4,3.5c-2.1,0-2.2,0-2-2
		c0.2-2.5-0.2-4.1-3-4.9c-1.7-0.5-2.6-0.6-3.8,0.8c-0.7,0.9-1.6,2.2-2.6,2.3c-1.1,0.1-1.7-1.5-2.7-2.3c-1.1-0.8-1.3-1.6,0-2.4
		c0.1-0.1,0.1-0.1,0.2-0.2c3-3,3-3,1.4-7c-0.3-0.6-0.6-0.7-1.1-0.7c-1.3,0-2.6,0-3.8,0c-0.8,0-1-0.3-1-1c0.1-1.1,0.1-2.3,0-3.4
		c0-0.8,0.2-1.1,1.1-1.1c1.5,0,3.4,0.6,4.5-0.2c1.1-0.8,1-2.8,1.9-4c0.4-0.6,0-0.9-0.3-1.2c-1-1-1.9-2-2.9-2.9
		c-0.5-0.5-0.6-0.8,0-1.3c1.1-1,2.1-2.7,3.2-2.9c1.1-0.2,2.1,1.7,3.1,2.7c0.8,0.9,1.5,1.2,2.6,0.4c0.4-0.4,1.1-0.6,1.6-0.7
		c1.7-0.2,1.9-1.2,1.8-2.7c-0.1-3.6,0-3.6,3.6-3.6c2.2,0,2-0.3,1.9,2s0,4.1,2.9,4.8c1.6,0.4,2.5,0.7,3.6-0.7c0.8-1,1.9-2.6,2.8-2.6
		c1.2,0,1.9,1.7,3,2.6c0.8,0.7,0.8,1.2,0,1.9c-1,0.9-1.9,1.9-2.9,2.8c-0.6,0.6-0.8,1-0.3,1.8c0.4,0.6,0.8,1.2,0.9,1.9
		c0.2,2,1.4,2.1,3.1,2.1c3.3-0.1,3.3,0,3.3,3.3C511.6,186.3,511.6,186.3,508.6,186.3z"/>
	<path class="st10" d="M497.7,183.6c0,3-2.4,5.3-5.4,5.3c-2.9,0-5.4-2.4-5.4-5.4c0-2.9,2.4-5.4,5.4-5.4
		C495.3,178.2,497.7,180.6,497.7,183.6z"/>
	<path class="st9" d="M444.2,260c1.3-1.7,2.5-3.3,3.7-4.9c0.3-0.5,0.7-0.6,1.3-0.6c7.7,0,15.4,0,23.1,0c0.5,0,0.9,0.1,1.3,0.6
		c1.2,1.6,2.4,3.1,3.7,4.9C466.1,260,455.3,260,444.2,260z"/>
	<path class="st10" d="M455.1,198.4c0,5.3-4.3,9.6-9.6,9.5c-5.2,0-9.7-4.4-9.6-9.6c0-5.2,4.4-9.7,9.5-9.7
		C450.8,188.7,455.1,193,455.1,198.4z"/>
	<path class="st10" d="M79,370.3c0.2-1.9,0.3-3.3,0.4-4.7c0.3-2.8-0.4-4-2.9-5.2c-1.4-0.6-2.9-1.3-4.3-1.9c-1.2-0.5-1.8-1.4-1.8-2.8
		c0-2.3,0-4.5,0-6.8c0-1.3,0.5-2.2,1.7-2.7c1.6-0.7,3.1-1.4,4.7-2.1c2-0.9,2.9-2.6,2.7-4.7c-0.2-1.7-0.3-3.4-0.5-5.1
		c-0.1-1.3,0.5-2.3,1.6-2.9c1.9-1.1,3.9-2.2,5.8-3.3c1.2-0.7,2.2-0.6,3.3,0.2c1.4,1,2.7,2,4.1,2.9c2,1.4,3.6,1.4,5.5,0
		c1.3-1,2.7-2,4.1-3c1-0.8,2.1-0.8,3.2-0.2c2,1.1,3.9,2.3,5.9,3.4c1.3,0.8,1.8,1.9,1.5,3.4c-0.2,1.6-0.4,3.1-0.5,4.7
		c-0.2,2.3,0.6,3.7,2.7,4.6c1.5,0.7,3,1.3,4.5,2c1.3,0.6,2,1.6,1.9,3c0,2.2,0,4.3,0,6.5c0,1.4-0.6,2.4-1.9,2.9
		c-1.4,0.6-2.8,1.2-4.2,1.8c-2.5,1.1-3.3,2.3-3,5c0.1,1.5,0.3,3,0.5,4.6c0.2,1.5-0.2,2.6-1.6,3.3c-1.9,1.1-3.8,2.2-5.8,3.3
		c-1.2,0.7-2.3,0.6-3.4-0.2c-1.2-0.9-2.5-1.8-3.7-2.7c-2.2-1.6-3.8-1.6-6,0c-1.2,0.9-2.4,1.7-3.6,2.6s-2.4,1-3.7,0.2
		c-1.7-1-3.4-2.1-5.1-3C79.5,372.8,78.7,371.7,79,370.3z"/>
	<path class="st10" d="M106.1,352.4c0,5.3-4.3,9.6-9.6,9.5c-5.2,0-9.7-4.4-9.6-9.6c0-5.2,4.4-9.7,9.5-9.7
		C101.8,342.7,106.1,347,106.1,352.4z"/>
	<line class="st9" x1="519.3" y1="230.1" x2="402" y2="230.1"/>
	<line class="st9" x1="394.6" y1="260" x2="526.1" y2="260"/>
	<g>
		<path class="st9" d="M135.2,391.7H46.1c-2.1,0-3.9-1.7-3.9-3.9v-86.1c0-2.1,1.7-3.9,3.9-3.9H156c2.1,0,3.9,1.7,3.9,3.9v50.9"/>
		<line class="st9" x1="42.9" y1="319.1" x2="159.9" y2="319.1"/>
		<circle class="st9" cx="53.3" cy="309.4" r="2.4"/>
		<circle class="st9" cx="64.9" cy="309.4" r="2.4"/>
		<circle class="st9" cx="77.5" cy="309.4" r="2.4"/>
		<path class="st10" d="M177.7,404.8c0,2.1-1.7,3.9-3.9,3.9h-31c-2.1,0-3.9-1.7-3.9-3.9v-18.4c0-2.1,1.7-3.9,3.9-3.9h31
			c2.1,0,3.9,1.7,3.9,3.9V404.8z"/>
		<path class="st10" d="M146.2,367c0-6.9,5.6-11.4,12.5-11.4s12.5,5.6,12.5,12.5V382"/>
	</g>
	<g>
		<polyline class="st9" points="238.2,126.8 166.7,126.8 166.7,54.9 		"/>
		<line class="st9" x1="266.5" y1="54.9" x2="266.5" y2="93.8"/>
		<line class="st9" x1="147" y1="54.3" x2="286.3" y2="54.3"/>
		<polyline class="st10" points="196,96.9 209.3,84.2 222,96.9 237.3,81.6 		"/>
		<path class="st8" d="M311.9,188.4v-19c0-5-4.1-9-9-9h-73.8c-5,0-9,4-9,9v19"/>
		<g>
			<g>
				<defs>
					<circle id="SVGID_2_" cx="266" cy="123.4" r="28"/>
				</defs>
				<clipPath id="SVGID_4_">
					<use xlink:href="#SVGID_2_"  style="overflow:visible;"/>
				</clipPath>
				<path class="st11" d="M234.1,117.1c0,0,43.3,7.6,45.9-15.3l-5.1-10.2L259.6,84l-17.8,12.7L234.1,117.1z"/>
			</g>
			<g>
				<defs>
					<circle id="SVGID_6_" cx="266" cy="123.4" r="28"/>
				</defs>
				<clipPath id="SVGID_8_">
					<use xlink:href="#SVGID_6_"  style="overflow:visible;"/>
				</clipPath>
				<polygon class="st12" points="292.7,101.8 280,98.3 280,119.6 295.3,119.6 				"/>
			</g>
			<g>
				<circle id="SVGID_1_" class="st8" cx="266" cy="123.4" r="28"/>
			</g>
		</g>
	</g>
	<g>
		<g>
			<g>
				<defs>
					<circle id="SVGID_9_" cx="299.1" cy="503.1" r="20.7"/>
				</defs>
				<clipPath id="SVGID_10_">
					<use xlink:href="#SVGID_9_"  style="overflow:visible;"/>
				</clipPath>
				<path class="st13" d="M275.5,498.4c0,0,32.1,5.7,34-11.3l-3.8-7.5l-11.3-5.7l-13.2,9.4L275.5,498.4z"/>
			</g>
			<g>
				<defs>
					<circle id="SVGID_11_" cx="299.1" cy="503.1" r="20.7"/>
				</defs>
				<clipPath id="SVGID_12_">
					<use xlink:href="#SVGID_11_"  style="overflow:visible;"/>
				</clipPath>
				<polygon class="st14" points="318.9,487.1 309.5,484.5 309.5,500.3 320.8,500.3 				"/>
			</g>
			<g>
				<circle id="SVGID_3_" class="st10" cx="299.1" cy="503.1" r="20.7"/>
			</g>
		</g>
		<path class="st9" d="M387,543.3v-11.7c0-5-4.1-9-9-9h-49.9c-5,0-9,4-9,9v11.7"/>
		<g>
			<g>
				<defs>
					<circle id="SVGID_13_" cx="353" cy="495.2" r="20.7"/>
				</defs>
				<clipPath id="SVGID_14_">
					<use xlink:href="#SVGID_13_"  style="overflow:visible;"/>
				</clipPath>
				<path class="st15" d="M329.5,490.5c0,0,32.1,5.7,34-11.3l-3.8-7.5l-11.3-5.7l-13.2,9.4L329.5,490.5z"/>
			</g>
			<g>
				<defs>
					<circle id="SVGID_15_" cx="353" cy="495.2" r="20.7"/>
				</defs>
				<clipPath id="SVGID_16_">
					<use xlink:href="#SVGID_15_"  style="overflow:visible;"/>
				</clipPath>
				<polygon class="st16" points="372.9,479.2 363.4,476.6 363.4,492.4 374.7,492.4 				"/>
			</g>
			<g>
				<circle id="SVGID_5_" class="st9" cx="353" cy="495.2" r="20.7"/>
			</g>
		</g>
		<path class="st9" d="M282.6,543.3v-11.7c0-5-4-9-9-9h-49.9c-5,0-9,4-9,9v11.7"/>
		<g>
			<g>
				<defs>
					<circle id="SVGID_17_" cx="248.6" cy="495.2" r="20.7"/>
				</defs>
				<clipPath id="SVGID_18_">
					<use xlink:href="#SVGID_17_"  style="overflow:visible;"/>
				</clipPath>
				<path class="st17" d="M225,490.5c0,0,32.1,5.7,34-11.3l-3.8-7.5l-11.3-5.7l-13.2,9.4L225,490.5z"/>
			</g>
			<g>
				<defs>
					<circle id="SVGID_19_" cx="248.6" cy="495.2" r="20.7"/>
				</defs>
				<clipPath id="SVGID_20_">
					<use xlink:href="#SVGID_19_"  style="overflow:visible;"/>
				</clipPath>
				<polygon class="st18" points="268.4,479.2 259,476.6 259,492.4 270.3,492.4 				"/>
			</g>
			<g>
				<circle id="SVGID_7_" class="st9" cx="248.6" cy="495.2" r="20.7"/>
			</g>
		</g>
		<g>
			<path class="st7" d="M333.1,551.2v-11.7c0-4.9-4-9-9-9h-49.9c-5,0-9,4.1-9,9v11.7"/>
			<path class="st10" d="M333.1,551.2v-11.7c0-4.9-4-9-9-9h-49.9c-5,0-9,4.1-9,9v11.7"/>
		</g>
	</g>
</g>
</svg>
