<?xml version="1.0" encoding="utf-8"?>
<!-- Generator: Adobe Illustrator 23.0.1, SVG Export Plug-In . SVG Version: 6.00 Build 0)  -->
<svg version="1.1" id="Capa_1" xmlns="http://www.w3.org/2000/svg" xmlns:xlink="http://www.w3.org/1999/xlink" x="0px" y="0px"
	 viewBox="0 0 480 480" style="enable-background:new 0 0 480 480;" xml:space="preserve">
<style type="text/css">
	.st0{fill:#676767;}
</style>
<path class="st0" d="M472,368h-16V120c0-22.1-17.9-40-40-40h-16v-8c0-13.3-10.7-24-24-24H104c-13.3,0-24,10.7-24,24v8H64
	c-22.1,0-40,17.9-40,40v248H8c-4.4,0-8,3.6-8,8v32c0,13.3,10.7,24,24,24h432c13.3,0,24-10.7,24-24v-32C480,371.6,476.4,368,472,368z
	 M96,112h288v200c0,4.4-3.6,8-8,8H104c-4.4,0-8-3.6-8-8V112z M104,64h272c4.4,0,8,3.6,8,8v24H96V72C96,67.6,99.6,64,104,64z M40,120
	c0-13.3,10.7-24,24-24h16v216c0,13.3,10.7,24,24,24h272c13.3,0,24-10.7,24-24V96h16c13.3,0,24,10.7,24,24v248H40V120z M464,408
	c0,4.4-3.6,8-8,8H24c-4.4,0-8-3.6-8-8v-24h448V408z"/>
<path class="st0" d="M208,392h64v16h-64V392z"/>
<path class="st0" d="M112,72h16v16h-16V72z"/>
<path class="st0" d="M144,72h16v16h-16V72z"/>
<path class="st0" d="M176,72h16v16h-16V72z"/>
<path class="st0" d="M240,280c35.3,0,64-28.7,64-64s-28.7-64-64-64s-64,28.7-64,64C176,251.3,204.7,280,240,280z M240,168
	c26.5,0,48,21.5,48,48s-21.5,48-48,48s-48-21.5-48-48C192,189.5,213.5,168,240,168z"/>
<path class="st0" d="M223,244.3l17-17l17,17l11.3-11.3l-17-17l17-17L257,187.7l-17,17l-17-17L211.7,199l17,17l-17,17L223,244.3z"/>
<path class="st0" d="M312,144h40v16h-40V144z"/>
<path class="st0" d="M144,272h40v16h-40V272z"/>
<path class="st0" d="M312,272h40v16h-40V272z"/>
<path class="st0" d="M320,176h32v16h-32V176z"/>
<path class="st0" d="M320,208h32v16h-32V208z"/>
<path class="st0" d="M320,240h32v16h-32V240z"/>
<path class="st0" d="M128,176h32v16h-32V176z"/>
<path class="st0" d="M144,208h16v16h-16V208z"/>
<path class="st0" d="M128,240h32v16h-32V240z"/>
<path class="st0" d="M130.3,165.7l11.3-11.3L131.3,144l10.3-10.3l-11.3-11.3l-16,16c-3.1,3.1-3.1,8.2,0,11.3L130.3,165.7z"/>
<path class="st0" d="M173.7,165.7l16-16c3.1-3.1,3.1-8.2,0-11.3l-16-16l-11.3,11.3l10.3,10.3l-10.3,10.3L173.7,165.7z"/>
</svg>
