<svg height="496pt" viewBox="-3 0 496 496" width="496pt" xmlns="http://www.w3.org/2000/svg"><path d="m489.886719 288-48-96h-12.941407v-16c0-2.929688-.847656-5.640625-2.226562-8 1.378906-2.359375 2.226562-5.070312 2.226562-8v-16c0-2.929688-.847656-5.640625-2.226562-8 1.378906-2.359375 2.226562-5.070312 2.226562-8v-16c0-8.824219-7.175781-16-16-16h-144c-8.824218 0-16 7.175781-16 16v16c0 2.929688.847657 5.640625 2.222657 8-1.375 2.359375-2.222657 5.070312-2.222657 8v16c0 2.929688.847657 5.640625 2.222657 8-1.375 2.359375-2.222657 5.070312-2.222657 8v16h-16v-16c0-2.929688-.847656-5.640625-2.226562-8 1.378906-2.359375 2.226562-5.070312 2.226562-8v-16c0-2.929688-.847656-5.640625-2.226562-8 1.378906-2.359375 2.226562-5.070312 2.226562-8v-16c0-2.929688-.847656-5.640625-2.226562-8 1.378906-2.359375 2.226562-5.070312 2.226562-8v-16c0-2.929688-.847656-5.640625-2.226562-8 1.378906-2.359375 2.226562-5.070312 2.226562-8v-16c0-2.929688-.847656-5.640625-2.226562-8 1.378906-2.359375 2.226562-5.070312 2.226562-8v-16c0-8.824219-7.175781-16-16-16h-144c-8.824218 0-16 7.175781-16 16v16c0 2.929688.847657 5.640625 2.222657 8-1.375 2.359375-2.222657 5.070312-2.222657 8v16c0 2.929688.847657 5.640625 2.222657 8-1.375 2.359375-2.222657 5.070312-2.222657 8v16c0 2.929688.847657 5.640625 2.222657 8-1.375 2.359375-2.222657 5.070312-2.222657 8v16c0 2.929688.847657 5.640625 2.222657 8-1.375 2.359375-2.222657 5.070312-2.222657 8v16c0 2.929688.847657 5.640625 2.222657 8-1.375 2.359375-2.222657 5.070312-2.222657 8v16h-12.945312l-48 96h44.945312v208h400v-208zm-220.941407-144h144v16h-144zm96-16v-16h16v16zm-16 0h-16v-16h16zm-32 0h-16v-16h16zm0 48v16h-16v-16zm16 0h16v16h-16zm32 0h16v16h-16zm32 0h16v16h-16zm16-48h-16v-16h16zm-144-16h16v16h-16zm0 64h16v16h-16zm163.054688 32 32 64h-214.113281l-32-64zm-355.054688-64h16v16h-16zm0-32h144v16h-144zm0-32h16v16h-16zm0-32h144v16h-144zm96-16v-16h16v16zm-16 0h-16v-16h16zm-32 0h-16v-16h16zm96 64h-16v-16h16zm-96-16v16h-16v-16zm16 0h16v16h-16zm32 0h16v16h-16zm-64 64h16v16h-16zm32 0h16v16h-16zm32 0h16v16h-16zm32 0h16v16h-16zm16-112h-16v-16h16zm-144-16h16v16h-16zm0 160h144v16h-144zm-19.058593 32h134.113281l-32 64h-134.113281zm3.058593 80h108.941407l27.058593-54.113281v246.113281h-136zm368 192h-216v-246.113281l27.054688 54.113281h188.945312zm0 0"/><path d="m76.945312 384h16v16h-16zm0 0"/><path d="m108.945312 384h72v16h-72zm0 0"/><path d="m76.945312 416h16v16h-16zm0 0"/><path d="m108.945312 416h72v16h-72zm0 0"/><path d="m76.945312 448h16v16h-16zm0 0"/><path d="m108.945312 448h72v16h-72zm0 0"/><path d="m388.945312 416h-32c-4.410156 0-8-3.59375-8-8h-16c0 13.230469 10.765626 24 24 24h8v16h16v-16h8c13.230469 0 24-10.769531 24-24v-8c0-13.230469-10.769531-24-24-24h-32c-4.410156 0-8-3.59375-8-8v-8c0-4.40625 3.589844-8 8-8h32c4.40625 0 8 3.59375 8 8h16c0-13.230469-10.769531-24-24-24h-8v-16h-16v16h-8c-13.234374 0-24 10.769531-24 24v8c0 13.230469 10.765626 24 24 24h32c4.40625 0 8 3.59375 8 8v8c0 4.40625-3.59375 8-8 8zm0 0"/><path d="m228.945312 448h16v16h-16zm0 0"/><path d="m260.945312 448h16v16h-16zm0 0"/><path d="m292.945312 448h16v16h-16zm0 0"/></svg>